%TF.GenerationSoftware,KiCad,Pcbnew,8.0.8*%
%TF.CreationDate,2025-06-09T15:06:14+05:30*%
%TF.ProjectId,bytepad,62797465-7061-4642-9e6b-696361645f70,8.2*%
%TF.SameCoordinates,Original*%
%TF.FileFunction,Drillmap*%
%TF.FilePolarity,Positive*%
%FSLAX45Y45*%
G04 Gerber Fmt 4.5, Leading zero omitted, Abs format (unit mm)*
G04 Created by KiCad (PCBNEW 8.0.8) date 2025-06-09 15:06:14*
%MOMM*%
%LPD*%
G01*
G04 APERTURE LIST*
%ADD10C,0.100000*%
%ADD11C,0.200000*%
%ADD12C,0.150000*%
%ADD13C,0.170000*%
%ADD14C,0.300000*%
%ADD15C,0.340000*%
G04 APERTURE END LIST*
D10*
X4900000Y-9200000D02*
X12600000Y-9200000D01*
X12700000Y-9100000D02*
X12700000Y-4000000D01*
X12700000Y-9100000D02*
G75*
G02*
X12600000Y-9200000I-100000J0D01*
G01*
X4800000Y-4000000D02*
X4800000Y-9100000D01*
X4800000Y-4000000D02*
G75*
G02*
X4900000Y-3900000I100000J0D01*
G01*
X12600000Y-3900000D02*
X4900000Y-3900000D01*
X12600000Y-3900000D02*
G75*
G02*
X12700000Y-4000000I0J-100000D01*
G01*
X4900000Y-9200000D02*
G75*
G02*
X4800000Y-9100000I0J100000D01*
G01*
D11*
D12*
X5825000Y-7765000D02*
X5975000Y-7915000D01*
X5975000Y-7765000D02*
X5825000Y-7915000D01*
D10*
X5835000Y-7915000D02*
X5965000Y-7915000D01*
X5965000Y-7765000D02*
G75*
G02*
X5965000Y-7915000I0J-75000D01*
G01*
X5965000Y-7765000D02*
X5835000Y-7765000D01*
X5835000Y-7765000D02*
G75*
G03*
X5835000Y-7915000I0J-75000D01*
G01*
D12*
X5825000Y-8885000D02*
X5975000Y-9035000D01*
X5975000Y-8885000D02*
X5825000Y-9035000D01*
D10*
X5835000Y-9035000D02*
X5965000Y-9035000D01*
X5965000Y-8885000D02*
G75*
G02*
X5965000Y-9035000I0J-75000D01*
G01*
X5965000Y-8885000D02*
X5835000Y-8885000D01*
X5835000Y-8885000D02*
G75*
G03*
X5835000Y-9035000I0J-75000D01*
G01*
D13*
X7535000Y-4900000D02*
G75*
G02*
X7365000Y-4900000I-85000J0D01*
G01*
X7365000Y-4900000D02*
G75*
G02*
X7535000Y-4900000I85000J0D01*
G01*
X7535000Y-6600000D02*
G75*
G02*
X7365000Y-6600000I-85000J0D01*
G01*
X7365000Y-6600000D02*
G75*
G02*
X7535000Y-6600000I85000J0D01*
G01*
X7535000Y-8300000D02*
G75*
G02*
X7365000Y-8300000I-85000J0D01*
G01*
X7365000Y-8300000D02*
G75*
G02*
X7535000Y-8300000I85000J0D01*
G01*
X8635000Y-4900000D02*
G75*
G02*
X8465000Y-4900000I-85000J0D01*
G01*
X8465000Y-4900000D02*
G75*
G02*
X8635000Y-4900000I85000J0D01*
G01*
X8635000Y-6600000D02*
G75*
G02*
X8465000Y-6600000I-85000J0D01*
G01*
X8465000Y-6600000D02*
G75*
G02*
X8635000Y-6600000I85000J0D01*
G01*
X8635000Y-8300000D02*
G75*
G02*
X8465000Y-8300000I-85000J0D01*
G01*
X8465000Y-8300000D02*
G75*
G02*
X8635000Y-8300000I85000J0D01*
G01*
X9335000Y-4900000D02*
G75*
G02*
X9165000Y-4900000I-85000J0D01*
G01*
X9165000Y-4900000D02*
G75*
G02*
X9335000Y-4900000I85000J0D01*
G01*
X9335000Y-6600000D02*
G75*
G02*
X9165000Y-6600000I-85000J0D01*
G01*
X9165000Y-6600000D02*
G75*
G02*
X9335000Y-6600000I85000J0D01*
G01*
X9335000Y-8300000D02*
G75*
G02*
X9165000Y-8300000I-85000J0D01*
G01*
X9165000Y-8300000D02*
G75*
G02*
X9335000Y-8300000I85000J0D01*
G01*
X10435000Y-4900000D02*
G75*
G02*
X10265000Y-4900000I-85000J0D01*
G01*
X10265000Y-4900000D02*
G75*
G02*
X10435000Y-4900000I85000J0D01*
G01*
X10435000Y-6600000D02*
G75*
G02*
X10265000Y-6600000I-85000J0D01*
G01*
X10265000Y-6600000D02*
G75*
G02*
X10435000Y-6600000I85000J0D01*
G01*
X10435000Y-8300000D02*
G75*
G02*
X10265000Y-8300000I-85000J0D01*
G01*
X10265000Y-8300000D02*
G75*
G02*
X10435000Y-8300000I85000J0D01*
G01*
X11135000Y-4900000D02*
G75*
G02*
X10965000Y-4900000I-85000J0D01*
G01*
X10965000Y-4900000D02*
G75*
G02*
X11135000Y-4900000I85000J0D01*
G01*
X11135000Y-6600000D02*
G75*
G02*
X10965000Y-6600000I-85000J0D01*
G01*
X10965000Y-6600000D02*
G75*
G02*
X11135000Y-6600000I85000J0D01*
G01*
X11135000Y-8300000D02*
G75*
G02*
X10965000Y-8300000I-85000J0D01*
G01*
X10965000Y-8300000D02*
G75*
G02*
X11135000Y-8300000I85000J0D01*
G01*
X12235000Y-4900000D02*
G75*
G02*
X12065000Y-4900000I-85000J0D01*
G01*
X12065000Y-4900000D02*
G75*
G02*
X12235000Y-4900000I85000J0D01*
G01*
X12235000Y-6600000D02*
G75*
G02*
X12065000Y-6600000I-85000J0D01*
G01*
X12065000Y-6600000D02*
G75*
G02*
X12235000Y-6600000I85000J0D01*
G01*
X12235000Y-8300000D02*
G75*
G02*
X12065000Y-8300000I-85000J0D01*
G01*
X12065000Y-8300000D02*
G75*
G02*
X12235000Y-8300000I85000J0D01*
G01*
D14*
X8000000Y-4160000D02*
X8000000Y-4460000D01*
X7850000Y-4310000D02*
X8150000Y-4310000D01*
X8000000Y-5860000D02*
X8000000Y-6160000D01*
X7850000Y-6010000D02*
X8150000Y-6010000D01*
X8000000Y-7560000D02*
X8000000Y-7860000D01*
X7850000Y-7710000D02*
X8150000Y-7710000D01*
X8500000Y-4370000D02*
X8500000Y-4670000D01*
X8350000Y-4520000D02*
X8650000Y-4520000D01*
X8500000Y-6070000D02*
X8500000Y-6370000D01*
X8350000Y-6220000D02*
X8650000Y-6220000D01*
X8500000Y-7770000D02*
X8500000Y-8070000D01*
X8350000Y-7920000D02*
X8650000Y-7920000D01*
X9800000Y-4160000D02*
X9800000Y-4460000D01*
X9650000Y-4310000D02*
X9950000Y-4310000D01*
X9800000Y-5860000D02*
X9800000Y-6160000D01*
X9650000Y-6010000D02*
X9950000Y-6010000D01*
X9800000Y-7560000D02*
X9800000Y-7860000D01*
X9650000Y-7710000D02*
X9950000Y-7710000D01*
X10300000Y-4370000D02*
X10300000Y-4670000D01*
X10150000Y-4520000D02*
X10450000Y-4520000D01*
X10300000Y-6070000D02*
X10300000Y-6370000D01*
X10150000Y-6220000D02*
X10450000Y-6220000D01*
X10300000Y-7770000D02*
X10300000Y-8070000D01*
X10150000Y-7920000D02*
X10450000Y-7920000D01*
X11600000Y-4160000D02*
X11600000Y-4460000D01*
X11450000Y-4310000D02*
X11750000Y-4310000D01*
X11600000Y-5860000D02*
X11600000Y-6160000D01*
X11450000Y-6010000D02*
X11750000Y-6010000D01*
X11600000Y-7560000D02*
X11600000Y-7860000D01*
X11450000Y-7710000D02*
X11750000Y-7710000D01*
X12100000Y-4370000D02*
X12100000Y-4670000D01*
X11950000Y-4520000D02*
X12250000Y-4520000D01*
X12100000Y-6070000D02*
X12100000Y-6370000D01*
X11950000Y-6220000D02*
X12250000Y-6220000D01*
X12100000Y-7770000D02*
X12100000Y-8070000D01*
X11950000Y-7920000D02*
X12250000Y-7920000D01*
D15*
X8120209Y-5020209D02*
X8120209Y-4779791D01*
X7879791Y-4779791D01*
X7879791Y-5020209D01*
X8120209Y-5020209D01*
X8120209Y-6720209D02*
X8120209Y-6479791D01*
X7879791Y-6479791D01*
X7879791Y-6720209D01*
X8120209Y-6720209D01*
X8120209Y-8420209D02*
X8120209Y-8179791D01*
X7879791Y-8179791D01*
X7879791Y-8420209D01*
X8120209Y-8420209D01*
X9920209Y-5020209D02*
X9920209Y-4779791D01*
X9679791Y-4779791D01*
X9679791Y-5020209D01*
X9920209Y-5020209D01*
X9920209Y-6720209D02*
X9920209Y-6479791D01*
X9679791Y-6479791D01*
X9679791Y-6720209D01*
X9920209Y-6720209D01*
X9920209Y-8420209D02*
X9920209Y-8179791D01*
X9679791Y-8179791D01*
X9679791Y-8420209D01*
X9920209Y-8420209D01*
X11720209Y-5020209D02*
X11720209Y-4779791D01*
X11479791Y-4779791D01*
X11479791Y-5020209D01*
X11720209Y-5020209D01*
X11720209Y-6720209D02*
X11720209Y-6479791D01*
X11479791Y-6479791D01*
X11479791Y-6720209D01*
X11720209Y-6720209D01*
X11720209Y-8420209D02*
X11720209Y-8179791D01*
X11479791Y-8179791D01*
X11479791Y-8420209D01*
X11720209Y-8420209D01*
D11*
X5055777Y-9516484D02*
X5055777Y-9316484D01*
X5055777Y-9316484D02*
X5103396Y-9316484D01*
X5103396Y-9316484D02*
X5131967Y-9326008D01*
X5131967Y-9326008D02*
X5151015Y-9345055D01*
X5151015Y-9345055D02*
X5160539Y-9364103D01*
X5160539Y-9364103D02*
X5170063Y-9402198D01*
X5170063Y-9402198D02*
X5170063Y-9430770D01*
X5170063Y-9430770D02*
X5160539Y-9468865D01*
X5160539Y-9468865D02*
X5151015Y-9487912D01*
X5151015Y-9487912D02*
X5131967Y-9506960D01*
X5131967Y-9506960D02*
X5103396Y-9516484D01*
X5103396Y-9516484D02*
X5055777Y-9516484D01*
X5255777Y-9516484D02*
X5255777Y-9383150D01*
X5255777Y-9421246D02*
X5265301Y-9402198D01*
X5265301Y-9402198D02*
X5274824Y-9392674D01*
X5274824Y-9392674D02*
X5293872Y-9383150D01*
X5293872Y-9383150D02*
X5312920Y-9383150D01*
X5379586Y-9516484D02*
X5379586Y-9383150D01*
X5379586Y-9316484D02*
X5370063Y-9326008D01*
X5370063Y-9326008D02*
X5379586Y-9335531D01*
X5379586Y-9335531D02*
X5389110Y-9326008D01*
X5389110Y-9326008D02*
X5379586Y-9316484D01*
X5379586Y-9316484D02*
X5379586Y-9335531D01*
X5503396Y-9516484D02*
X5484348Y-9506960D01*
X5484348Y-9506960D02*
X5474824Y-9487912D01*
X5474824Y-9487912D02*
X5474824Y-9316484D01*
X5608158Y-9516484D02*
X5589110Y-9506960D01*
X5589110Y-9506960D02*
X5579586Y-9487912D01*
X5579586Y-9487912D02*
X5579586Y-9316484D01*
X5836729Y-9516484D02*
X5836729Y-9316484D01*
X5836729Y-9316484D02*
X5903396Y-9459341D01*
X5903396Y-9459341D02*
X5970062Y-9316484D01*
X5970062Y-9316484D02*
X5970062Y-9516484D01*
X6151015Y-9516484D02*
X6151015Y-9411722D01*
X6151015Y-9411722D02*
X6141491Y-9392674D01*
X6141491Y-9392674D02*
X6122443Y-9383150D01*
X6122443Y-9383150D02*
X6084348Y-9383150D01*
X6084348Y-9383150D02*
X6065301Y-9392674D01*
X6151015Y-9506960D02*
X6131967Y-9516484D01*
X6131967Y-9516484D02*
X6084348Y-9516484D01*
X6084348Y-9516484D02*
X6065301Y-9506960D01*
X6065301Y-9506960D02*
X6055777Y-9487912D01*
X6055777Y-9487912D02*
X6055777Y-9468865D01*
X6055777Y-9468865D02*
X6065301Y-9449817D01*
X6065301Y-9449817D02*
X6084348Y-9440293D01*
X6084348Y-9440293D02*
X6131967Y-9440293D01*
X6131967Y-9440293D02*
X6151015Y-9430770D01*
X6246253Y-9383150D02*
X6246253Y-9583150D01*
X6246253Y-9392674D02*
X6265301Y-9383150D01*
X6265301Y-9383150D02*
X6303396Y-9383150D01*
X6303396Y-9383150D02*
X6322443Y-9392674D01*
X6322443Y-9392674D02*
X6331967Y-9402198D01*
X6331967Y-9402198D02*
X6341491Y-9421246D01*
X6341491Y-9421246D02*
X6341491Y-9478389D01*
X6341491Y-9478389D02*
X6331967Y-9497436D01*
X6331967Y-9497436D02*
X6322443Y-9506960D01*
X6322443Y-9506960D02*
X6303396Y-9516484D01*
X6303396Y-9516484D02*
X6265301Y-9516484D01*
X6265301Y-9516484D02*
X6246253Y-9506960D01*
X6427205Y-9497436D02*
X6436729Y-9506960D01*
X6436729Y-9506960D02*
X6427205Y-9516484D01*
X6427205Y-9516484D02*
X6417682Y-9506960D01*
X6417682Y-9506960D02*
X6427205Y-9497436D01*
X6427205Y-9497436D02*
X6427205Y-9516484D01*
X6427205Y-9392674D02*
X6436729Y-9402198D01*
X6436729Y-9402198D02*
X6427205Y-9411722D01*
X6427205Y-9411722D02*
X6417682Y-9402198D01*
X6417682Y-9402198D02*
X6427205Y-9392674D01*
X6427205Y-9392674D02*
X6427205Y-9411722D01*
D12*
X4645000Y-9770000D02*
X4795000Y-9920000D01*
X4795000Y-9770000D02*
X4645000Y-9920000D01*
D11*
X5160539Y-9936484D02*
X5046253Y-9936484D01*
X5103396Y-9936484D02*
X5103396Y-9736484D01*
X5103396Y-9736484D02*
X5084348Y-9765055D01*
X5084348Y-9765055D02*
X5065301Y-9784103D01*
X5065301Y-9784103D02*
X5046253Y-9793627D01*
X5246253Y-9917436D02*
X5255777Y-9926960D01*
X5255777Y-9926960D02*
X5246253Y-9936484D01*
X5246253Y-9936484D02*
X5236729Y-9926960D01*
X5236729Y-9926960D02*
X5246253Y-9917436D01*
X5246253Y-9917436D02*
X5246253Y-9936484D01*
X5436729Y-9736484D02*
X5341491Y-9736484D01*
X5341491Y-9736484D02*
X5331967Y-9831722D01*
X5331967Y-9831722D02*
X5341491Y-9822198D01*
X5341491Y-9822198D02*
X5360539Y-9812674D01*
X5360539Y-9812674D02*
X5408158Y-9812674D01*
X5408158Y-9812674D02*
X5427205Y-9822198D01*
X5427205Y-9822198D02*
X5436729Y-9831722D01*
X5436729Y-9831722D02*
X5446253Y-9850770D01*
X5446253Y-9850770D02*
X5446253Y-9898389D01*
X5446253Y-9898389D02*
X5436729Y-9917436D01*
X5436729Y-9917436D02*
X5427205Y-9926960D01*
X5427205Y-9926960D02*
X5408158Y-9936484D01*
X5408158Y-9936484D02*
X5360539Y-9936484D01*
X5360539Y-9936484D02*
X5341491Y-9926960D01*
X5341491Y-9926960D02*
X5331967Y-9917436D01*
X5570063Y-9736484D02*
X5589110Y-9736484D01*
X5589110Y-9736484D02*
X5608158Y-9746008D01*
X5608158Y-9746008D02*
X5617682Y-9755531D01*
X5617682Y-9755531D02*
X5627205Y-9774579D01*
X5627205Y-9774579D02*
X5636729Y-9812674D01*
X5636729Y-9812674D02*
X5636729Y-9860293D01*
X5636729Y-9860293D02*
X5627205Y-9898389D01*
X5627205Y-9898389D02*
X5617682Y-9917436D01*
X5617682Y-9917436D02*
X5608158Y-9926960D01*
X5608158Y-9926960D02*
X5589110Y-9936484D01*
X5589110Y-9936484D02*
X5570063Y-9936484D01*
X5570063Y-9936484D02*
X5551015Y-9926960D01*
X5551015Y-9926960D02*
X5541491Y-9917436D01*
X5541491Y-9917436D02*
X5531967Y-9898389D01*
X5531967Y-9898389D02*
X5522444Y-9860293D01*
X5522444Y-9860293D02*
X5522444Y-9812674D01*
X5522444Y-9812674D02*
X5531967Y-9774579D01*
X5531967Y-9774579D02*
X5541491Y-9755531D01*
X5541491Y-9755531D02*
X5551015Y-9746008D01*
X5551015Y-9746008D02*
X5570063Y-9736484D01*
X5760539Y-9736484D02*
X5779586Y-9736484D01*
X5779586Y-9736484D02*
X5798634Y-9746008D01*
X5798634Y-9746008D02*
X5808158Y-9755531D01*
X5808158Y-9755531D02*
X5817682Y-9774579D01*
X5817682Y-9774579D02*
X5827205Y-9812674D01*
X5827205Y-9812674D02*
X5827205Y-9860293D01*
X5827205Y-9860293D02*
X5817682Y-9898389D01*
X5817682Y-9898389D02*
X5808158Y-9917436D01*
X5808158Y-9917436D02*
X5798634Y-9926960D01*
X5798634Y-9926960D02*
X5779586Y-9936484D01*
X5779586Y-9936484D02*
X5760539Y-9936484D01*
X5760539Y-9936484D02*
X5741491Y-9926960D01*
X5741491Y-9926960D02*
X5731967Y-9917436D01*
X5731967Y-9917436D02*
X5722443Y-9898389D01*
X5722443Y-9898389D02*
X5712920Y-9860293D01*
X5712920Y-9860293D02*
X5712920Y-9812674D01*
X5712920Y-9812674D02*
X5722443Y-9774579D01*
X5722443Y-9774579D02*
X5731967Y-9755531D01*
X5731967Y-9755531D02*
X5741491Y-9746008D01*
X5741491Y-9746008D02*
X5760539Y-9736484D01*
X5912920Y-9936484D02*
X5912920Y-9803150D01*
X5912920Y-9822198D02*
X5922443Y-9812674D01*
X5922443Y-9812674D02*
X5941491Y-9803150D01*
X5941491Y-9803150D02*
X5970063Y-9803150D01*
X5970063Y-9803150D02*
X5989110Y-9812674D01*
X5989110Y-9812674D02*
X5998634Y-9831722D01*
X5998634Y-9831722D02*
X5998634Y-9936484D01*
X5998634Y-9831722D02*
X6008158Y-9812674D01*
X6008158Y-9812674D02*
X6027205Y-9803150D01*
X6027205Y-9803150D02*
X6055777Y-9803150D01*
X6055777Y-9803150D02*
X6074824Y-9812674D01*
X6074824Y-9812674D02*
X6084348Y-9831722D01*
X6084348Y-9831722D02*
X6084348Y-9936484D01*
X6179586Y-9936484D02*
X6179586Y-9803150D01*
X6179586Y-9822198D02*
X6189110Y-9812674D01*
X6189110Y-9812674D02*
X6208158Y-9803150D01*
X6208158Y-9803150D02*
X6236729Y-9803150D01*
X6236729Y-9803150D02*
X6255777Y-9812674D01*
X6255777Y-9812674D02*
X6265301Y-9831722D01*
X6265301Y-9831722D02*
X6265301Y-9936484D01*
X6265301Y-9831722D02*
X6274824Y-9812674D01*
X6274824Y-9812674D02*
X6293872Y-9803150D01*
X6293872Y-9803150D02*
X6322443Y-9803150D01*
X6322443Y-9803150D02*
X6341491Y-9812674D01*
X6341491Y-9812674D02*
X6351015Y-9831722D01*
X6351015Y-9831722D02*
X6351015Y-9936484D01*
X6741491Y-9726960D02*
X6570063Y-9984103D01*
X6998634Y-9736484D02*
X7017682Y-9736484D01*
X7017682Y-9736484D02*
X7036729Y-9746008D01*
X7036729Y-9746008D02*
X7046253Y-9755531D01*
X7046253Y-9755531D02*
X7055777Y-9774579D01*
X7055777Y-9774579D02*
X7065301Y-9812674D01*
X7065301Y-9812674D02*
X7065301Y-9860293D01*
X7065301Y-9860293D02*
X7055777Y-9898389D01*
X7055777Y-9898389D02*
X7046253Y-9917436D01*
X7046253Y-9917436D02*
X7036729Y-9926960D01*
X7036729Y-9926960D02*
X7017682Y-9936484D01*
X7017682Y-9936484D02*
X6998634Y-9936484D01*
X6998634Y-9936484D02*
X6979586Y-9926960D01*
X6979586Y-9926960D02*
X6970063Y-9917436D01*
X6970063Y-9917436D02*
X6960539Y-9898389D01*
X6960539Y-9898389D02*
X6951015Y-9860293D01*
X6951015Y-9860293D02*
X6951015Y-9812674D01*
X6951015Y-9812674D02*
X6960539Y-9774579D01*
X6960539Y-9774579D02*
X6970063Y-9755531D01*
X6970063Y-9755531D02*
X6979586Y-9746008D01*
X6979586Y-9746008D02*
X6998634Y-9736484D01*
X7151015Y-9917436D02*
X7160539Y-9926960D01*
X7160539Y-9926960D02*
X7151015Y-9936484D01*
X7151015Y-9936484D02*
X7141491Y-9926960D01*
X7141491Y-9926960D02*
X7151015Y-9917436D01*
X7151015Y-9917436D02*
X7151015Y-9936484D01*
X7284348Y-9736484D02*
X7303396Y-9736484D01*
X7303396Y-9736484D02*
X7322444Y-9746008D01*
X7322444Y-9746008D02*
X7331967Y-9755531D01*
X7331967Y-9755531D02*
X7341491Y-9774579D01*
X7341491Y-9774579D02*
X7351015Y-9812674D01*
X7351015Y-9812674D02*
X7351015Y-9860293D01*
X7351015Y-9860293D02*
X7341491Y-9898389D01*
X7341491Y-9898389D02*
X7331967Y-9917436D01*
X7331967Y-9917436D02*
X7322444Y-9926960D01*
X7322444Y-9926960D02*
X7303396Y-9936484D01*
X7303396Y-9936484D02*
X7284348Y-9936484D01*
X7284348Y-9936484D02*
X7265301Y-9926960D01*
X7265301Y-9926960D02*
X7255777Y-9917436D01*
X7255777Y-9917436D02*
X7246253Y-9898389D01*
X7246253Y-9898389D02*
X7236729Y-9860293D01*
X7236729Y-9860293D02*
X7236729Y-9812674D01*
X7236729Y-9812674D02*
X7246253Y-9774579D01*
X7246253Y-9774579D02*
X7255777Y-9755531D01*
X7255777Y-9755531D02*
X7265301Y-9746008D01*
X7265301Y-9746008D02*
X7284348Y-9736484D01*
X7531967Y-9736484D02*
X7436729Y-9736484D01*
X7436729Y-9736484D02*
X7427206Y-9831722D01*
X7427206Y-9831722D02*
X7436729Y-9822198D01*
X7436729Y-9822198D02*
X7455777Y-9812674D01*
X7455777Y-9812674D02*
X7503396Y-9812674D01*
X7503396Y-9812674D02*
X7522444Y-9822198D01*
X7522444Y-9822198D02*
X7531967Y-9831722D01*
X7531967Y-9831722D02*
X7541491Y-9850770D01*
X7541491Y-9850770D02*
X7541491Y-9898389D01*
X7541491Y-9898389D02*
X7531967Y-9917436D01*
X7531967Y-9917436D02*
X7522444Y-9926960D01*
X7522444Y-9926960D02*
X7503396Y-9936484D01*
X7503396Y-9936484D02*
X7455777Y-9936484D01*
X7455777Y-9936484D02*
X7436729Y-9926960D01*
X7436729Y-9926960D02*
X7427206Y-9917436D01*
X7636729Y-9936484D02*
X7674825Y-9936484D01*
X7674825Y-9936484D02*
X7693872Y-9926960D01*
X7693872Y-9926960D02*
X7703396Y-9917436D01*
X7703396Y-9917436D02*
X7722444Y-9888865D01*
X7722444Y-9888865D02*
X7731967Y-9850770D01*
X7731967Y-9850770D02*
X7731967Y-9774579D01*
X7731967Y-9774579D02*
X7722444Y-9755531D01*
X7722444Y-9755531D02*
X7712920Y-9746008D01*
X7712920Y-9746008D02*
X7693872Y-9736484D01*
X7693872Y-9736484D02*
X7655777Y-9736484D01*
X7655777Y-9736484D02*
X7636729Y-9746008D01*
X7636729Y-9746008D02*
X7627206Y-9755531D01*
X7627206Y-9755531D02*
X7617682Y-9774579D01*
X7617682Y-9774579D02*
X7617682Y-9822198D01*
X7617682Y-9822198D02*
X7627206Y-9841246D01*
X7627206Y-9841246D02*
X7636729Y-9850770D01*
X7636729Y-9850770D02*
X7655777Y-9860293D01*
X7655777Y-9860293D02*
X7693872Y-9860293D01*
X7693872Y-9860293D02*
X7712920Y-9850770D01*
X7712920Y-9850770D02*
X7722444Y-9841246D01*
X7722444Y-9841246D02*
X7731967Y-9822198D01*
X7922444Y-9936484D02*
X7808158Y-9936484D01*
X7865301Y-9936484D02*
X7865301Y-9736484D01*
X7865301Y-9736484D02*
X7846253Y-9765055D01*
X7846253Y-9765055D02*
X7827206Y-9784103D01*
X7827206Y-9784103D02*
X7808158Y-9793627D01*
X7998634Y-9736484D02*
X7998634Y-9774579D01*
X8074825Y-9736484D02*
X8074825Y-9774579D01*
X8370063Y-10012674D02*
X8360539Y-10003150D01*
X8360539Y-10003150D02*
X8341491Y-9974579D01*
X8341491Y-9974579D02*
X8331968Y-9955531D01*
X8331968Y-9955531D02*
X8322444Y-9926960D01*
X8322444Y-9926960D02*
X8312920Y-9879341D01*
X8312920Y-9879341D02*
X8312920Y-9841246D01*
X8312920Y-9841246D02*
X8322444Y-9793627D01*
X8322444Y-9793627D02*
X8331968Y-9765055D01*
X8331968Y-9765055D02*
X8341491Y-9746008D01*
X8341491Y-9746008D02*
X8360539Y-9717436D01*
X8360539Y-9717436D02*
X8370063Y-9707912D01*
X8484349Y-9736484D02*
X8503396Y-9736484D01*
X8503396Y-9736484D02*
X8522444Y-9746008D01*
X8522444Y-9746008D02*
X8531968Y-9755531D01*
X8531968Y-9755531D02*
X8541491Y-9774579D01*
X8541491Y-9774579D02*
X8551015Y-9812674D01*
X8551015Y-9812674D02*
X8551015Y-9860293D01*
X8551015Y-9860293D02*
X8541491Y-9898389D01*
X8541491Y-9898389D02*
X8531968Y-9917436D01*
X8531968Y-9917436D02*
X8522444Y-9926960D01*
X8522444Y-9926960D02*
X8503396Y-9936484D01*
X8503396Y-9936484D02*
X8484349Y-9936484D01*
X8484349Y-9936484D02*
X8465301Y-9926960D01*
X8465301Y-9926960D02*
X8455777Y-9917436D01*
X8455777Y-9917436D02*
X8446253Y-9898389D01*
X8446253Y-9898389D02*
X8436730Y-9860293D01*
X8436730Y-9860293D02*
X8436730Y-9812674D01*
X8436730Y-9812674D02*
X8446253Y-9774579D01*
X8446253Y-9774579D02*
X8455777Y-9755531D01*
X8455777Y-9755531D02*
X8465301Y-9746008D01*
X8465301Y-9746008D02*
X8484349Y-9736484D01*
X8789111Y-9936484D02*
X8789111Y-9736484D01*
X8874825Y-9936484D02*
X8874825Y-9831722D01*
X8874825Y-9831722D02*
X8865301Y-9812674D01*
X8865301Y-9812674D02*
X8846253Y-9803150D01*
X8846253Y-9803150D02*
X8817682Y-9803150D01*
X8817682Y-9803150D02*
X8798634Y-9812674D01*
X8798634Y-9812674D02*
X8789111Y-9822198D01*
X8998634Y-9936484D02*
X8979587Y-9926960D01*
X8979587Y-9926960D02*
X8970063Y-9917436D01*
X8970063Y-9917436D02*
X8960539Y-9898389D01*
X8960539Y-9898389D02*
X8960539Y-9841246D01*
X8960539Y-9841246D02*
X8970063Y-9822198D01*
X8970063Y-9822198D02*
X8979587Y-9812674D01*
X8979587Y-9812674D02*
X8998634Y-9803150D01*
X8998634Y-9803150D02*
X9027206Y-9803150D01*
X9027206Y-9803150D02*
X9046253Y-9812674D01*
X9046253Y-9812674D02*
X9055777Y-9822198D01*
X9055777Y-9822198D02*
X9065301Y-9841246D01*
X9065301Y-9841246D02*
X9065301Y-9898389D01*
X9065301Y-9898389D02*
X9055777Y-9917436D01*
X9055777Y-9917436D02*
X9046253Y-9926960D01*
X9046253Y-9926960D02*
X9027206Y-9936484D01*
X9027206Y-9936484D02*
X8998634Y-9936484D01*
X9179587Y-9936484D02*
X9160539Y-9926960D01*
X9160539Y-9926960D02*
X9151015Y-9907912D01*
X9151015Y-9907912D02*
X9151015Y-9736484D01*
X9331968Y-9926960D02*
X9312920Y-9936484D01*
X9312920Y-9936484D02*
X9274825Y-9936484D01*
X9274825Y-9936484D02*
X9255777Y-9926960D01*
X9255777Y-9926960D02*
X9246253Y-9907912D01*
X9246253Y-9907912D02*
X9246253Y-9831722D01*
X9246253Y-9831722D02*
X9255777Y-9812674D01*
X9255777Y-9812674D02*
X9274825Y-9803150D01*
X9274825Y-9803150D02*
X9312920Y-9803150D01*
X9312920Y-9803150D02*
X9331968Y-9812674D01*
X9331968Y-9812674D02*
X9341492Y-9831722D01*
X9341492Y-9831722D02*
X9341492Y-9850770D01*
X9341492Y-9850770D02*
X9246253Y-9869817D01*
X9417682Y-9926960D02*
X9436730Y-9936484D01*
X9436730Y-9936484D02*
X9474825Y-9936484D01*
X9474825Y-9936484D02*
X9493873Y-9926960D01*
X9493873Y-9926960D02*
X9503396Y-9907912D01*
X9503396Y-9907912D02*
X9503396Y-9898389D01*
X9503396Y-9898389D02*
X9493873Y-9879341D01*
X9493873Y-9879341D02*
X9474825Y-9869817D01*
X9474825Y-9869817D02*
X9446253Y-9869817D01*
X9446253Y-9869817D02*
X9427206Y-9860293D01*
X9427206Y-9860293D02*
X9417682Y-9841246D01*
X9417682Y-9841246D02*
X9417682Y-9831722D01*
X9417682Y-9831722D02*
X9427206Y-9812674D01*
X9427206Y-9812674D02*
X9446253Y-9803150D01*
X9446253Y-9803150D02*
X9474825Y-9803150D01*
X9474825Y-9803150D02*
X9493873Y-9812674D01*
X9741492Y-9860293D02*
X9893873Y-9860293D01*
X9817682Y-9936484D02*
X9817682Y-9784103D01*
X10131968Y-9755531D02*
X10141492Y-9746008D01*
X10141492Y-9746008D02*
X10160539Y-9736484D01*
X10160539Y-9736484D02*
X10208158Y-9736484D01*
X10208158Y-9736484D02*
X10227206Y-9746008D01*
X10227206Y-9746008D02*
X10236730Y-9755531D01*
X10236730Y-9755531D02*
X10246254Y-9774579D01*
X10246254Y-9774579D02*
X10246254Y-9793627D01*
X10246254Y-9793627D02*
X10236730Y-9822198D01*
X10236730Y-9822198D02*
X10122444Y-9936484D01*
X10122444Y-9936484D02*
X10246254Y-9936484D01*
X10474825Y-9926960D02*
X10493873Y-9936484D01*
X10493873Y-9936484D02*
X10531968Y-9936484D01*
X10531968Y-9936484D02*
X10551016Y-9926960D01*
X10551016Y-9926960D02*
X10560539Y-9907912D01*
X10560539Y-9907912D02*
X10560539Y-9898389D01*
X10560539Y-9898389D02*
X10551016Y-9879341D01*
X10551016Y-9879341D02*
X10531968Y-9869817D01*
X10531968Y-9869817D02*
X10503396Y-9869817D01*
X10503396Y-9869817D02*
X10484349Y-9860293D01*
X10484349Y-9860293D02*
X10474825Y-9841246D01*
X10474825Y-9841246D02*
X10474825Y-9831722D01*
X10474825Y-9831722D02*
X10484349Y-9812674D01*
X10484349Y-9812674D02*
X10503396Y-9803150D01*
X10503396Y-9803150D02*
X10531968Y-9803150D01*
X10531968Y-9803150D02*
X10551016Y-9812674D01*
X10674825Y-9936484D02*
X10655777Y-9926960D01*
X10655777Y-9926960D02*
X10646254Y-9907912D01*
X10646254Y-9907912D02*
X10646254Y-9736484D01*
X10779587Y-9936484D02*
X10760539Y-9926960D01*
X10760539Y-9926960D02*
X10751016Y-9917436D01*
X10751016Y-9917436D02*
X10741492Y-9898389D01*
X10741492Y-9898389D02*
X10741492Y-9841246D01*
X10741492Y-9841246D02*
X10751016Y-9822198D01*
X10751016Y-9822198D02*
X10760539Y-9812674D01*
X10760539Y-9812674D02*
X10779587Y-9803150D01*
X10779587Y-9803150D02*
X10808158Y-9803150D01*
X10808158Y-9803150D02*
X10827206Y-9812674D01*
X10827206Y-9812674D02*
X10836730Y-9822198D01*
X10836730Y-9822198D02*
X10846254Y-9841246D01*
X10846254Y-9841246D02*
X10846254Y-9898389D01*
X10846254Y-9898389D02*
X10836730Y-9917436D01*
X10836730Y-9917436D02*
X10827206Y-9926960D01*
X10827206Y-9926960D02*
X10808158Y-9936484D01*
X10808158Y-9936484D02*
X10779587Y-9936484D01*
X10903397Y-9803150D02*
X10979587Y-9803150D01*
X10931968Y-9736484D02*
X10931968Y-9907912D01*
X10931968Y-9907912D02*
X10941492Y-9926960D01*
X10941492Y-9926960D02*
X10960539Y-9936484D01*
X10960539Y-9936484D02*
X10979587Y-9936484D01*
X11036730Y-9926960D02*
X11055777Y-9936484D01*
X11055777Y-9936484D02*
X11093873Y-9936484D01*
X11093873Y-9936484D02*
X11112920Y-9926960D01*
X11112920Y-9926960D02*
X11122444Y-9907912D01*
X11122444Y-9907912D02*
X11122444Y-9898389D01*
X11122444Y-9898389D02*
X11112920Y-9879341D01*
X11112920Y-9879341D02*
X11093873Y-9869817D01*
X11093873Y-9869817D02*
X11065301Y-9869817D01*
X11065301Y-9869817D02*
X11046254Y-9860293D01*
X11046254Y-9860293D02*
X11036730Y-9841246D01*
X11036730Y-9841246D02*
X11036730Y-9831722D01*
X11036730Y-9831722D02*
X11046254Y-9812674D01*
X11046254Y-9812674D02*
X11065301Y-9803150D01*
X11065301Y-9803150D02*
X11093873Y-9803150D01*
X11093873Y-9803150D02*
X11112920Y-9812674D01*
X11189111Y-10012674D02*
X11198635Y-10003150D01*
X11198635Y-10003150D02*
X11217682Y-9974579D01*
X11217682Y-9974579D02*
X11227206Y-9955531D01*
X11227206Y-9955531D02*
X11236730Y-9926960D01*
X11236730Y-9926960D02*
X11246254Y-9879341D01*
X11246254Y-9879341D02*
X11246254Y-9841246D01*
X11246254Y-9841246D02*
X11236730Y-9793627D01*
X11236730Y-9793627D02*
X11227206Y-9765055D01*
X11227206Y-9765055D02*
X11217682Y-9746008D01*
X11217682Y-9746008D02*
X11198635Y-9717436D01*
X11198635Y-9717436D02*
X11189111Y-9707912D01*
X11551016Y-10012674D02*
X11541492Y-10003150D01*
X11541492Y-10003150D02*
X11522444Y-9974579D01*
X11522444Y-9974579D02*
X11512920Y-9955531D01*
X11512920Y-9955531D02*
X11503396Y-9926960D01*
X11503396Y-9926960D02*
X11493873Y-9879341D01*
X11493873Y-9879341D02*
X11493873Y-9841246D01*
X11493873Y-9841246D02*
X11503396Y-9793627D01*
X11503396Y-9793627D02*
X11512920Y-9765055D01*
X11512920Y-9765055D02*
X11522444Y-9746008D01*
X11522444Y-9746008D02*
X11541492Y-9717436D01*
X11541492Y-9717436D02*
X11551016Y-9707912D01*
X11627206Y-9803150D02*
X11627206Y-9936484D01*
X11627206Y-9822198D02*
X11636730Y-9812674D01*
X11636730Y-9812674D02*
X11655777Y-9803150D01*
X11655777Y-9803150D02*
X11684349Y-9803150D01*
X11684349Y-9803150D02*
X11703396Y-9812674D01*
X11703396Y-9812674D02*
X11712920Y-9831722D01*
X11712920Y-9831722D02*
X11712920Y-9936484D01*
X11836730Y-9936484D02*
X11817682Y-9926960D01*
X11817682Y-9926960D02*
X11808158Y-9917436D01*
X11808158Y-9917436D02*
X11798635Y-9898389D01*
X11798635Y-9898389D02*
X11798635Y-9841246D01*
X11798635Y-9841246D02*
X11808158Y-9822198D01*
X11808158Y-9822198D02*
X11817682Y-9812674D01*
X11817682Y-9812674D02*
X11836730Y-9803150D01*
X11836730Y-9803150D02*
X11865301Y-9803150D01*
X11865301Y-9803150D02*
X11884349Y-9812674D01*
X11884349Y-9812674D02*
X11893873Y-9822198D01*
X11893873Y-9822198D02*
X11903396Y-9841246D01*
X11903396Y-9841246D02*
X11903396Y-9898389D01*
X11903396Y-9898389D02*
X11893873Y-9917436D01*
X11893873Y-9917436D02*
X11884349Y-9926960D01*
X11884349Y-9926960D02*
X11865301Y-9936484D01*
X11865301Y-9936484D02*
X11836730Y-9936484D01*
X11960539Y-9803150D02*
X12036730Y-9803150D01*
X11989111Y-9736484D02*
X11989111Y-9907912D01*
X11989111Y-9907912D02*
X11998635Y-9926960D01*
X11998635Y-9926960D02*
X12017682Y-9936484D01*
X12017682Y-9936484D02*
X12036730Y-9936484D01*
X12255777Y-9803150D02*
X12255777Y-10003150D01*
X12255777Y-9812674D02*
X12274825Y-9803150D01*
X12274825Y-9803150D02*
X12312920Y-9803150D01*
X12312920Y-9803150D02*
X12331968Y-9812674D01*
X12331968Y-9812674D02*
X12341492Y-9822198D01*
X12341492Y-9822198D02*
X12351016Y-9841246D01*
X12351016Y-9841246D02*
X12351016Y-9898389D01*
X12351016Y-9898389D02*
X12341492Y-9917436D01*
X12341492Y-9917436D02*
X12331968Y-9926960D01*
X12331968Y-9926960D02*
X12312920Y-9936484D01*
X12312920Y-9936484D02*
X12274825Y-9936484D01*
X12274825Y-9936484D02*
X12255777Y-9926960D01*
X12465301Y-9936484D02*
X12446254Y-9926960D01*
X12446254Y-9926960D02*
X12436730Y-9907912D01*
X12436730Y-9907912D02*
X12436730Y-9736484D01*
X12627206Y-9936484D02*
X12627206Y-9831722D01*
X12627206Y-9831722D02*
X12617682Y-9812674D01*
X12617682Y-9812674D02*
X12598635Y-9803150D01*
X12598635Y-9803150D02*
X12560539Y-9803150D01*
X12560539Y-9803150D02*
X12541492Y-9812674D01*
X12627206Y-9926960D02*
X12608158Y-9936484D01*
X12608158Y-9936484D02*
X12560539Y-9936484D01*
X12560539Y-9936484D02*
X12541492Y-9926960D01*
X12541492Y-9926960D02*
X12531968Y-9907912D01*
X12531968Y-9907912D02*
X12531968Y-9888865D01*
X12531968Y-9888865D02*
X12541492Y-9869817D01*
X12541492Y-9869817D02*
X12560539Y-9860293D01*
X12560539Y-9860293D02*
X12608158Y-9860293D01*
X12608158Y-9860293D02*
X12627206Y-9850770D01*
X12693873Y-9803150D02*
X12770063Y-9803150D01*
X12722444Y-9736484D02*
X12722444Y-9907912D01*
X12722444Y-9907912D02*
X12731968Y-9926960D01*
X12731968Y-9926960D02*
X12751016Y-9936484D01*
X12751016Y-9936484D02*
X12770063Y-9936484D01*
X12912920Y-9926960D02*
X12893873Y-9936484D01*
X12893873Y-9936484D02*
X12855777Y-9936484D01*
X12855777Y-9936484D02*
X12836730Y-9926960D01*
X12836730Y-9926960D02*
X12827206Y-9907912D01*
X12827206Y-9907912D02*
X12827206Y-9831722D01*
X12827206Y-9831722D02*
X12836730Y-9812674D01*
X12836730Y-9812674D02*
X12855777Y-9803150D01*
X12855777Y-9803150D02*
X12893873Y-9803150D01*
X12893873Y-9803150D02*
X12912920Y-9812674D01*
X12912920Y-9812674D02*
X12922444Y-9831722D01*
X12922444Y-9831722D02*
X12922444Y-9850770D01*
X12922444Y-9850770D02*
X12827206Y-9869817D01*
X13093873Y-9936484D02*
X13093873Y-9736484D01*
X13093873Y-9926960D02*
X13074825Y-9936484D01*
X13074825Y-9936484D02*
X13036730Y-9936484D01*
X13036730Y-9936484D02*
X13017682Y-9926960D01*
X13017682Y-9926960D02*
X13008158Y-9917436D01*
X13008158Y-9917436D02*
X12998635Y-9898389D01*
X12998635Y-9898389D02*
X12998635Y-9841246D01*
X12998635Y-9841246D02*
X13008158Y-9822198D01*
X13008158Y-9822198D02*
X13017682Y-9812674D01*
X13017682Y-9812674D02*
X13036730Y-9803150D01*
X13036730Y-9803150D02*
X13074825Y-9803150D01*
X13074825Y-9803150D02*
X13093873Y-9812674D01*
X13170063Y-10012674D02*
X13179587Y-10003150D01*
X13179587Y-10003150D02*
X13198635Y-9974579D01*
X13198635Y-9974579D02*
X13208158Y-9955531D01*
X13208158Y-9955531D02*
X13217682Y-9926960D01*
X13217682Y-9926960D02*
X13227206Y-9879341D01*
X13227206Y-9879341D02*
X13227206Y-9841246D01*
X13227206Y-9841246D02*
X13217682Y-9793627D01*
X13217682Y-9793627D02*
X13208158Y-9765055D01*
X13208158Y-9765055D02*
X13198635Y-9746008D01*
X13198635Y-9746008D02*
X13179587Y-9717436D01*
X13179587Y-9717436D02*
X13170063Y-9707912D01*
D13*
X4795000Y-10115000D02*
G75*
G02*
X4625000Y-10115000I-85000J0D01*
G01*
X4625000Y-10115000D02*
G75*
G02*
X4795000Y-10115000I85000J0D01*
G01*
D11*
X5160539Y-10206484D02*
X5046253Y-10206484D01*
X5103396Y-10206484D02*
X5103396Y-10006484D01*
X5103396Y-10006484D02*
X5084348Y-10035055D01*
X5084348Y-10035055D02*
X5065301Y-10054103D01*
X5065301Y-10054103D02*
X5046253Y-10063627D01*
X5246253Y-10187436D02*
X5255777Y-10196960D01*
X5255777Y-10196960D02*
X5246253Y-10206484D01*
X5246253Y-10206484D02*
X5236729Y-10196960D01*
X5236729Y-10196960D02*
X5246253Y-10187436D01*
X5246253Y-10187436D02*
X5246253Y-10206484D01*
X5322444Y-10006484D02*
X5455777Y-10006484D01*
X5455777Y-10006484D02*
X5370063Y-10206484D01*
X5570063Y-10006484D02*
X5589110Y-10006484D01*
X5589110Y-10006484D02*
X5608158Y-10016008D01*
X5608158Y-10016008D02*
X5617682Y-10025531D01*
X5617682Y-10025531D02*
X5627205Y-10044579D01*
X5627205Y-10044579D02*
X5636729Y-10082674D01*
X5636729Y-10082674D02*
X5636729Y-10130293D01*
X5636729Y-10130293D02*
X5627205Y-10168389D01*
X5627205Y-10168389D02*
X5617682Y-10187436D01*
X5617682Y-10187436D02*
X5608158Y-10196960D01*
X5608158Y-10196960D02*
X5589110Y-10206484D01*
X5589110Y-10206484D02*
X5570063Y-10206484D01*
X5570063Y-10206484D02*
X5551015Y-10196960D01*
X5551015Y-10196960D02*
X5541491Y-10187436D01*
X5541491Y-10187436D02*
X5531967Y-10168389D01*
X5531967Y-10168389D02*
X5522444Y-10130293D01*
X5522444Y-10130293D02*
X5522444Y-10082674D01*
X5522444Y-10082674D02*
X5531967Y-10044579D01*
X5531967Y-10044579D02*
X5541491Y-10025531D01*
X5541491Y-10025531D02*
X5551015Y-10016008D01*
X5551015Y-10016008D02*
X5570063Y-10006484D01*
X5760539Y-10006484D02*
X5779586Y-10006484D01*
X5779586Y-10006484D02*
X5798634Y-10016008D01*
X5798634Y-10016008D02*
X5808158Y-10025531D01*
X5808158Y-10025531D02*
X5817682Y-10044579D01*
X5817682Y-10044579D02*
X5827205Y-10082674D01*
X5827205Y-10082674D02*
X5827205Y-10130293D01*
X5827205Y-10130293D02*
X5817682Y-10168389D01*
X5817682Y-10168389D02*
X5808158Y-10187436D01*
X5808158Y-10187436D02*
X5798634Y-10196960D01*
X5798634Y-10196960D02*
X5779586Y-10206484D01*
X5779586Y-10206484D02*
X5760539Y-10206484D01*
X5760539Y-10206484D02*
X5741491Y-10196960D01*
X5741491Y-10196960D02*
X5731967Y-10187436D01*
X5731967Y-10187436D02*
X5722443Y-10168389D01*
X5722443Y-10168389D02*
X5712920Y-10130293D01*
X5712920Y-10130293D02*
X5712920Y-10082674D01*
X5712920Y-10082674D02*
X5722443Y-10044579D01*
X5722443Y-10044579D02*
X5731967Y-10025531D01*
X5731967Y-10025531D02*
X5741491Y-10016008D01*
X5741491Y-10016008D02*
X5760539Y-10006484D01*
X5912920Y-10206484D02*
X5912920Y-10073150D01*
X5912920Y-10092198D02*
X5922443Y-10082674D01*
X5922443Y-10082674D02*
X5941491Y-10073150D01*
X5941491Y-10073150D02*
X5970063Y-10073150D01*
X5970063Y-10073150D02*
X5989110Y-10082674D01*
X5989110Y-10082674D02*
X5998634Y-10101722D01*
X5998634Y-10101722D02*
X5998634Y-10206484D01*
X5998634Y-10101722D02*
X6008158Y-10082674D01*
X6008158Y-10082674D02*
X6027205Y-10073150D01*
X6027205Y-10073150D02*
X6055777Y-10073150D01*
X6055777Y-10073150D02*
X6074824Y-10082674D01*
X6074824Y-10082674D02*
X6084348Y-10101722D01*
X6084348Y-10101722D02*
X6084348Y-10206484D01*
X6179586Y-10206484D02*
X6179586Y-10073150D01*
X6179586Y-10092198D02*
X6189110Y-10082674D01*
X6189110Y-10082674D02*
X6208158Y-10073150D01*
X6208158Y-10073150D02*
X6236729Y-10073150D01*
X6236729Y-10073150D02*
X6255777Y-10082674D01*
X6255777Y-10082674D02*
X6265301Y-10101722D01*
X6265301Y-10101722D02*
X6265301Y-10206484D01*
X6265301Y-10101722D02*
X6274824Y-10082674D01*
X6274824Y-10082674D02*
X6293872Y-10073150D01*
X6293872Y-10073150D02*
X6322443Y-10073150D01*
X6322443Y-10073150D02*
X6341491Y-10082674D01*
X6341491Y-10082674D02*
X6351015Y-10101722D01*
X6351015Y-10101722D02*
X6351015Y-10206484D01*
X6741491Y-9996960D02*
X6570063Y-10254103D01*
X6998634Y-10006484D02*
X7017682Y-10006484D01*
X7017682Y-10006484D02*
X7036729Y-10016008D01*
X7036729Y-10016008D02*
X7046253Y-10025531D01*
X7046253Y-10025531D02*
X7055777Y-10044579D01*
X7055777Y-10044579D02*
X7065301Y-10082674D01*
X7065301Y-10082674D02*
X7065301Y-10130293D01*
X7065301Y-10130293D02*
X7055777Y-10168389D01*
X7055777Y-10168389D02*
X7046253Y-10187436D01*
X7046253Y-10187436D02*
X7036729Y-10196960D01*
X7036729Y-10196960D02*
X7017682Y-10206484D01*
X7017682Y-10206484D02*
X6998634Y-10206484D01*
X6998634Y-10206484D02*
X6979586Y-10196960D01*
X6979586Y-10196960D02*
X6970063Y-10187436D01*
X6970063Y-10187436D02*
X6960539Y-10168389D01*
X6960539Y-10168389D02*
X6951015Y-10130293D01*
X6951015Y-10130293D02*
X6951015Y-10082674D01*
X6951015Y-10082674D02*
X6960539Y-10044579D01*
X6960539Y-10044579D02*
X6970063Y-10025531D01*
X6970063Y-10025531D02*
X6979586Y-10016008D01*
X6979586Y-10016008D02*
X6998634Y-10006484D01*
X7151015Y-10187436D02*
X7160539Y-10196960D01*
X7160539Y-10196960D02*
X7151015Y-10206484D01*
X7151015Y-10206484D02*
X7141491Y-10196960D01*
X7141491Y-10196960D02*
X7151015Y-10187436D01*
X7151015Y-10187436D02*
X7151015Y-10206484D01*
X7284348Y-10006484D02*
X7303396Y-10006484D01*
X7303396Y-10006484D02*
X7322444Y-10016008D01*
X7322444Y-10016008D02*
X7331967Y-10025531D01*
X7331967Y-10025531D02*
X7341491Y-10044579D01*
X7341491Y-10044579D02*
X7351015Y-10082674D01*
X7351015Y-10082674D02*
X7351015Y-10130293D01*
X7351015Y-10130293D02*
X7341491Y-10168389D01*
X7341491Y-10168389D02*
X7331967Y-10187436D01*
X7331967Y-10187436D02*
X7322444Y-10196960D01*
X7322444Y-10196960D02*
X7303396Y-10206484D01*
X7303396Y-10206484D02*
X7284348Y-10206484D01*
X7284348Y-10206484D02*
X7265301Y-10196960D01*
X7265301Y-10196960D02*
X7255777Y-10187436D01*
X7255777Y-10187436D02*
X7246253Y-10168389D01*
X7246253Y-10168389D02*
X7236729Y-10130293D01*
X7236729Y-10130293D02*
X7236729Y-10082674D01*
X7236729Y-10082674D02*
X7246253Y-10044579D01*
X7246253Y-10044579D02*
X7255777Y-10025531D01*
X7255777Y-10025531D02*
X7265301Y-10016008D01*
X7265301Y-10016008D02*
X7284348Y-10006484D01*
X7522444Y-10006484D02*
X7484348Y-10006484D01*
X7484348Y-10006484D02*
X7465301Y-10016008D01*
X7465301Y-10016008D02*
X7455777Y-10025531D01*
X7455777Y-10025531D02*
X7436729Y-10054103D01*
X7436729Y-10054103D02*
X7427206Y-10092198D01*
X7427206Y-10092198D02*
X7427206Y-10168389D01*
X7427206Y-10168389D02*
X7436729Y-10187436D01*
X7436729Y-10187436D02*
X7446253Y-10196960D01*
X7446253Y-10196960D02*
X7465301Y-10206484D01*
X7465301Y-10206484D02*
X7503396Y-10206484D01*
X7503396Y-10206484D02*
X7522444Y-10196960D01*
X7522444Y-10196960D02*
X7531967Y-10187436D01*
X7531967Y-10187436D02*
X7541491Y-10168389D01*
X7541491Y-10168389D02*
X7541491Y-10120770D01*
X7541491Y-10120770D02*
X7531967Y-10101722D01*
X7531967Y-10101722D02*
X7522444Y-10092198D01*
X7522444Y-10092198D02*
X7503396Y-10082674D01*
X7503396Y-10082674D02*
X7465301Y-10082674D01*
X7465301Y-10082674D02*
X7446253Y-10092198D01*
X7446253Y-10092198D02*
X7436729Y-10101722D01*
X7436729Y-10101722D02*
X7427206Y-10120770D01*
X7712920Y-10006484D02*
X7674825Y-10006484D01*
X7674825Y-10006484D02*
X7655777Y-10016008D01*
X7655777Y-10016008D02*
X7646253Y-10025531D01*
X7646253Y-10025531D02*
X7627206Y-10054103D01*
X7627206Y-10054103D02*
X7617682Y-10092198D01*
X7617682Y-10092198D02*
X7617682Y-10168389D01*
X7617682Y-10168389D02*
X7627206Y-10187436D01*
X7627206Y-10187436D02*
X7636729Y-10196960D01*
X7636729Y-10196960D02*
X7655777Y-10206484D01*
X7655777Y-10206484D02*
X7693872Y-10206484D01*
X7693872Y-10206484D02*
X7712920Y-10196960D01*
X7712920Y-10196960D02*
X7722444Y-10187436D01*
X7722444Y-10187436D02*
X7731967Y-10168389D01*
X7731967Y-10168389D02*
X7731967Y-10120770D01*
X7731967Y-10120770D02*
X7722444Y-10101722D01*
X7722444Y-10101722D02*
X7712920Y-10092198D01*
X7712920Y-10092198D02*
X7693872Y-10082674D01*
X7693872Y-10082674D02*
X7655777Y-10082674D01*
X7655777Y-10082674D02*
X7636729Y-10092198D01*
X7636729Y-10092198D02*
X7627206Y-10101722D01*
X7627206Y-10101722D02*
X7617682Y-10120770D01*
X7827206Y-10206484D02*
X7865301Y-10206484D01*
X7865301Y-10206484D02*
X7884348Y-10196960D01*
X7884348Y-10196960D02*
X7893872Y-10187436D01*
X7893872Y-10187436D02*
X7912920Y-10158865D01*
X7912920Y-10158865D02*
X7922444Y-10120770D01*
X7922444Y-10120770D02*
X7922444Y-10044579D01*
X7922444Y-10044579D02*
X7912920Y-10025531D01*
X7912920Y-10025531D02*
X7903396Y-10016008D01*
X7903396Y-10016008D02*
X7884348Y-10006484D01*
X7884348Y-10006484D02*
X7846253Y-10006484D01*
X7846253Y-10006484D02*
X7827206Y-10016008D01*
X7827206Y-10016008D02*
X7817682Y-10025531D01*
X7817682Y-10025531D02*
X7808158Y-10044579D01*
X7808158Y-10044579D02*
X7808158Y-10092198D01*
X7808158Y-10092198D02*
X7817682Y-10111246D01*
X7817682Y-10111246D02*
X7827206Y-10120770D01*
X7827206Y-10120770D02*
X7846253Y-10130293D01*
X7846253Y-10130293D02*
X7884348Y-10130293D01*
X7884348Y-10130293D02*
X7903396Y-10120770D01*
X7903396Y-10120770D02*
X7912920Y-10111246D01*
X7912920Y-10111246D02*
X7922444Y-10092198D01*
X7998634Y-10006484D02*
X7998634Y-10044579D01*
X8074825Y-10006484D02*
X8074825Y-10044579D01*
X8370063Y-10282674D02*
X8360539Y-10273150D01*
X8360539Y-10273150D02*
X8341491Y-10244579D01*
X8341491Y-10244579D02*
X8331968Y-10225531D01*
X8331968Y-10225531D02*
X8322444Y-10196960D01*
X8322444Y-10196960D02*
X8312920Y-10149341D01*
X8312920Y-10149341D02*
X8312920Y-10111246D01*
X8312920Y-10111246D02*
X8322444Y-10063627D01*
X8322444Y-10063627D02*
X8331968Y-10035055D01*
X8331968Y-10035055D02*
X8341491Y-10016008D01*
X8341491Y-10016008D02*
X8360539Y-9987436D01*
X8360539Y-9987436D02*
X8370063Y-9977912D01*
X8551015Y-10206484D02*
X8436730Y-10206484D01*
X8493872Y-10206484D02*
X8493872Y-10006484D01*
X8493872Y-10006484D02*
X8474825Y-10035055D01*
X8474825Y-10035055D02*
X8455777Y-10054103D01*
X8455777Y-10054103D02*
X8436730Y-10063627D01*
X8665301Y-10092198D02*
X8646253Y-10082674D01*
X8646253Y-10082674D02*
X8636730Y-10073150D01*
X8636730Y-10073150D02*
X8627206Y-10054103D01*
X8627206Y-10054103D02*
X8627206Y-10044579D01*
X8627206Y-10044579D02*
X8636730Y-10025531D01*
X8636730Y-10025531D02*
X8646253Y-10016008D01*
X8646253Y-10016008D02*
X8665301Y-10006484D01*
X8665301Y-10006484D02*
X8703396Y-10006484D01*
X8703396Y-10006484D02*
X8722444Y-10016008D01*
X8722444Y-10016008D02*
X8731968Y-10025531D01*
X8731968Y-10025531D02*
X8741491Y-10044579D01*
X8741491Y-10044579D02*
X8741491Y-10054103D01*
X8741491Y-10054103D02*
X8731968Y-10073150D01*
X8731968Y-10073150D02*
X8722444Y-10082674D01*
X8722444Y-10082674D02*
X8703396Y-10092198D01*
X8703396Y-10092198D02*
X8665301Y-10092198D01*
X8665301Y-10092198D02*
X8646253Y-10101722D01*
X8646253Y-10101722D02*
X8636730Y-10111246D01*
X8636730Y-10111246D02*
X8627206Y-10130293D01*
X8627206Y-10130293D02*
X8627206Y-10168389D01*
X8627206Y-10168389D02*
X8636730Y-10187436D01*
X8636730Y-10187436D02*
X8646253Y-10196960D01*
X8646253Y-10196960D02*
X8665301Y-10206484D01*
X8665301Y-10206484D02*
X8703396Y-10206484D01*
X8703396Y-10206484D02*
X8722444Y-10196960D01*
X8722444Y-10196960D02*
X8731968Y-10187436D01*
X8731968Y-10187436D02*
X8741491Y-10168389D01*
X8741491Y-10168389D02*
X8741491Y-10130293D01*
X8741491Y-10130293D02*
X8731968Y-10111246D01*
X8731968Y-10111246D02*
X8722444Y-10101722D01*
X8722444Y-10101722D02*
X8703396Y-10092198D01*
X8979587Y-10206484D02*
X8979587Y-10006484D01*
X9065301Y-10206484D02*
X9065301Y-10101722D01*
X9065301Y-10101722D02*
X9055777Y-10082674D01*
X9055777Y-10082674D02*
X9036730Y-10073150D01*
X9036730Y-10073150D02*
X9008158Y-10073150D01*
X9008158Y-10073150D02*
X8989111Y-10082674D01*
X8989111Y-10082674D02*
X8979587Y-10092198D01*
X9189111Y-10206484D02*
X9170063Y-10196960D01*
X9170063Y-10196960D02*
X9160539Y-10187436D01*
X9160539Y-10187436D02*
X9151015Y-10168389D01*
X9151015Y-10168389D02*
X9151015Y-10111246D01*
X9151015Y-10111246D02*
X9160539Y-10092198D01*
X9160539Y-10092198D02*
X9170063Y-10082674D01*
X9170063Y-10082674D02*
X9189111Y-10073150D01*
X9189111Y-10073150D02*
X9217682Y-10073150D01*
X9217682Y-10073150D02*
X9236730Y-10082674D01*
X9236730Y-10082674D02*
X9246253Y-10092198D01*
X9246253Y-10092198D02*
X9255777Y-10111246D01*
X9255777Y-10111246D02*
X9255777Y-10168389D01*
X9255777Y-10168389D02*
X9246253Y-10187436D01*
X9246253Y-10187436D02*
X9236730Y-10196960D01*
X9236730Y-10196960D02*
X9217682Y-10206484D01*
X9217682Y-10206484D02*
X9189111Y-10206484D01*
X9370063Y-10206484D02*
X9351015Y-10196960D01*
X9351015Y-10196960D02*
X9341492Y-10177912D01*
X9341492Y-10177912D02*
X9341492Y-10006484D01*
X9522444Y-10196960D02*
X9503396Y-10206484D01*
X9503396Y-10206484D02*
X9465301Y-10206484D01*
X9465301Y-10206484D02*
X9446253Y-10196960D01*
X9446253Y-10196960D02*
X9436730Y-10177912D01*
X9436730Y-10177912D02*
X9436730Y-10101722D01*
X9436730Y-10101722D02*
X9446253Y-10082674D01*
X9446253Y-10082674D02*
X9465301Y-10073150D01*
X9465301Y-10073150D02*
X9503396Y-10073150D01*
X9503396Y-10073150D02*
X9522444Y-10082674D01*
X9522444Y-10082674D02*
X9531968Y-10101722D01*
X9531968Y-10101722D02*
X9531968Y-10120770D01*
X9531968Y-10120770D02*
X9436730Y-10139817D01*
X9608158Y-10196960D02*
X9627206Y-10206484D01*
X9627206Y-10206484D02*
X9665301Y-10206484D01*
X9665301Y-10206484D02*
X9684349Y-10196960D01*
X9684349Y-10196960D02*
X9693873Y-10177912D01*
X9693873Y-10177912D02*
X9693873Y-10168389D01*
X9693873Y-10168389D02*
X9684349Y-10149341D01*
X9684349Y-10149341D02*
X9665301Y-10139817D01*
X9665301Y-10139817D02*
X9636730Y-10139817D01*
X9636730Y-10139817D02*
X9617682Y-10130293D01*
X9617682Y-10130293D02*
X9608158Y-10111246D01*
X9608158Y-10111246D02*
X9608158Y-10101722D01*
X9608158Y-10101722D02*
X9617682Y-10082674D01*
X9617682Y-10082674D02*
X9636730Y-10073150D01*
X9636730Y-10073150D02*
X9665301Y-10073150D01*
X9665301Y-10073150D02*
X9684349Y-10082674D01*
X9760539Y-10282674D02*
X9770063Y-10273150D01*
X9770063Y-10273150D02*
X9789111Y-10244579D01*
X9789111Y-10244579D02*
X9798634Y-10225531D01*
X9798634Y-10225531D02*
X9808158Y-10196960D01*
X9808158Y-10196960D02*
X9817682Y-10149341D01*
X9817682Y-10149341D02*
X9817682Y-10111246D01*
X9817682Y-10111246D02*
X9808158Y-10063627D01*
X9808158Y-10063627D02*
X9798634Y-10035055D01*
X9798634Y-10035055D02*
X9789111Y-10016008D01*
X9789111Y-10016008D02*
X9770063Y-9987436D01*
X9770063Y-9987436D02*
X9760539Y-9977912D01*
X10122444Y-10282674D02*
X10112920Y-10273150D01*
X10112920Y-10273150D02*
X10093873Y-10244579D01*
X10093873Y-10244579D02*
X10084349Y-10225531D01*
X10084349Y-10225531D02*
X10074825Y-10196960D01*
X10074825Y-10196960D02*
X10065301Y-10149341D01*
X10065301Y-10149341D02*
X10065301Y-10111246D01*
X10065301Y-10111246D02*
X10074825Y-10063627D01*
X10074825Y-10063627D02*
X10084349Y-10035055D01*
X10084349Y-10035055D02*
X10093873Y-10016008D01*
X10093873Y-10016008D02*
X10112920Y-9987436D01*
X10112920Y-9987436D02*
X10122444Y-9977912D01*
X10198634Y-10073150D02*
X10198634Y-10206484D01*
X10198634Y-10092198D02*
X10208158Y-10082674D01*
X10208158Y-10082674D02*
X10227206Y-10073150D01*
X10227206Y-10073150D02*
X10255777Y-10073150D01*
X10255777Y-10073150D02*
X10274825Y-10082674D01*
X10274825Y-10082674D02*
X10284349Y-10101722D01*
X10284349Y-10101722D02*
X10284349Y-10206484D01*
X10408158Y-10206484D02*
X10389111Y-10196960D01*
X10389111Y-10196960D02*
X10379587Y-10187436D01*
X10379587Y-10187436D02*
X10370063Y-10168389D01*
X10370063Y-10168389D02*
X10370063Y-10111246D01*
X10370063Y-10111246D02*
X10379587Y-10092198D01*
X10379587Y-10092198D02*
X10389111Y-10082674D01*
X10389111Y-10082674D02*
X10408158Y-10073150D01*
X10408158Y-10073150D02*
X10436730Y-10073150D01*
X10436730Y-10073150D02*
X10455777Y-10082674D01*
X10455777Y-10082674D02*
X10465301Y-10092198D01*
X10465301Y-10092198D02*
X10474825Y-10111246D01*
X10474825Y-10111246D02*
X10474825Y-10168389D01*
X10474825Y-10168389D02*
X10465301Y-10187436D01*
X10465301Y-10187436D02*
X10455777Y-10196960D01*
X10455777Y-10196960D02*
X10436730Y-10206484D01*
X10436730Y-10206484D02*
X10408158Y-10206484D01*
X10531968Y-10073150D02*
X10608158Y-10073150D01*
X10560539Y-10006484D02*
X10560539Y-10177912D01*
X10560539Y-10177912D02*
X10570063Y-10196960D01*
X10570063Y-10196960D02*
X10589111Y-10206484D01*
X10589111Y-10206484D02*
X10608158Y-10206484D01*
X10827206Y-10073150D02*
X10827206Y-10273150D01*
X10827206Y-10082674D02*
X10846254Y-10073150D01*
X10846254Y-10073150D02*
X10884349Y-10073150D01*
X10884349Y-10073150D02*
X10903396Y-10082674D01*
X10903396Y-10082674D02*
X10912920Y-10092198D01*
X10912920Y-10092198D02*
X10922444Y-10111246D01*
X10922444Y-10111246D02*
X10922444Y-10168389D01*
X10922444Y-10168389D02*
X10912920Y-10187436D01*
X10912920Y-10187436D02*
X10903396Y-10196960D01*
X10903396Y-10196960D02*
X10884349Y-10206484D01*
X10884349Y-10206484D02*
X10846254Y-10206484D01*
X10846254Y-10206484D02*
X10827206Y-10196960D01*
X11036730Y-10206484D02*
X11017682Y-10196960D01*
X11017682Y-10196960D02*
X11008158Y-10177912D01*
X11008158Y-10177912D02*
X11008158Y-10006484D01*
X11198634Y-10206484D02*
X11198634Y-10101722D01*
X11198634Y-10101722D02*
X11189111Y-10082674D01*
X11189111Y-10082674D02*
X11170063Y-10073150D01*
X11170063Y-10073150D02*
X11131968Y-10073150D01*
X11131968Y-10073150D02*
X11112920Y-10082674D01*
X11198634Y-10196960D02*
X11179587Y-10206484D01*
X11179587Y-10206484D02*
X11131968Y-10206484D01*
X11131968Y-10206484D02*
X11112920Y-10196960D01*
X11112920Y-10196960D02*
X11103396Y-10177912D01*
X11103396Y-10177912D02*
X11103396Y-10158865D01*
X11103396Y-10158865D02*
X11112920Y-10139817D01*
X11112920Y-10139817D02*
X11131968Y-10130293D01*
X11131968Y-10130293D02*
X11179587Y-10130293D01*
X11179587Y-10130293D02*
X11198634Y-10120770D01*
X11265301Y-10073150D02*
X11341492Y-10073150D01*
X11293873Y-10006484D02*
X11293873Y-10177912D01*
X11293873Y-10177912D02*
X11303396Y-10196960D01*
X11303396Y-10196960D02*
X11322444Y-10206484D01*
X11322444Y-10206484D02*
X11341492Y-10206484D01*
X11484349Y-10196960D02*
X11465301Y-10206484D01*
X11465301Y-10206484D02*
X11427206Y-10206484D01*
X11427206Y-10206484D02*
X11408158Y-10196960D01*
X11408158Y-10196960D02*
X11398634Y-10177912D01*
X11398634Y-10177912D02*
X11398634Y-10101722D01*
X11398634Y-10101722D02*
X11408158Y-10082674D01*
X11408158Y-10082674D02*
X11427206Y-10073150D01*
X11427206Y-10073150D02*
X11465301Y-10073150D01*
X11465301Y-10073150D02*
X11484349Y-10082674D01*
X11484349Y-10082674D02*
X11493873Y-10101722D01*
X11493873Y-10101722D02*
X11493873Y-10120770D01*
X11493873Y-10120770D02*
X11398634Y-10139817D01*
X11665301Y-10206484D02*
X11665301Y-10006484D01*
X11665301Y-10196960D02*
X11646254Y-10206484D01*
X11646254Y-10206484D02*
X11608158Y-10206484D01*
X11608158Y-10206484D02*
X11589111Y-10196960D01*
X11589111Y-10196960D02*
X11579587Y-10187436D01*
X11579587Y-10187436D02*
X11570063Y-10168389D01*
X11570063Y-10168389D02*
X11570063Y-10111246D01*
X11570063Y-10111246D02*
X11579587Y-10092198D01*
X11579587Y-10092198D02*
X11589111Y-10082674D01*
X11589111Y-10082674D02*
X11608158Y-10073150D01*
X11608158Y-10073150D02*
X11646254Y-10073150D01*
X11646254Y-10073150D02*
X11665301Y-10082674D01*
X11741492Y-10282674D02*
X11751015Y-10273150D01*
X11751015Y-10273150D02*
X11770063Y-10244579D01*
X11770063Y-10244579D02*
X11779587Y-10225531D01*
X11779587Y-10225531D02*
X11789111Y-10196960D01*
X11789111Y-10196960D02*
X11798634Y-10149341D01*
X11798634Y-10149341D02*
X11798634Y-10111246D01*
X11798634Y-10111246D02*
X11789111Y-10063627D01*
X11789111Y-10063627D02*
X11779587Y-10035055D01*
X11779587Y-10035055D02*
X11770063Y-10016008D01*
X11770063Y-10016008D02*
X11751015Y-9987436D01*
X11751015Y-9987436D02*
X11741492Y-9977912D01*
X4695000Y-10305000D02*
X4695000Y-10505000D01*
X4595000Y-10405000D02*
X4795000Y-10405000D01*
X5036729Y-10296484D02*
X5160539Y-10296484D01*
X5160539Y-10296484D02*
X5093872Y-10372674D01*
X5093872Y-10372674D02*
X5122444Y-10372674D01*
X5122444Y-10372674D02*
X5141491Y-10382198D01*
X5141491Y-10382198D02*
X5151015Y-10391722D01*
X5151015Y-10391722D02*
X5160539Y-10410770D01*
X5160539Y-10410770D02*
X5160539Y-10458389D01*
X5160539Y-10458389D02*
X5151015Y-10477436D01*
X5151015Y-10477436D02*
X5141491Y-10486960D01*
X5141491Y-10486960D02*
X5122444Y-10496484D01*
X5122444Y-10496484D02*
X5065301Y-10496484D01*
X5065301Y-10496484D02*
X5046253Y-10486960D01*
X5046253Y-10486960D02*
X5036729Y-10477436D01*
X5246253Y-10477436D02*
X5255777Y-10486960D01*
X5255777Y-10486960D02*
X5246253Y-10496484D01*
X5246253Y-10496484D02*
X5236729Y-10486960D01*
X5236729Y-10486960D02*
X5246253Y-10477436D01*
X5246253Y-10477436D02*
X5246253Y-10496484D01*
X5379586Y-10296484D02*
X5398634Y-10296484D01*
X5398634Y-10296484D02*
X5417682Y-10306008D01*
X5417682Y-10306008D02*
X5427205Y-10315531D01*
X5427205Y-10315531D02*
X5436729Y-10334579D01*
X5436729Y-10334579D02*
X5446253Y-10372674D01*
X5446253Y-10372674D02*
X5446253Y-10420293D01*
X5446253Y-10420293D02*
X5436729Y-10458389D01*
X5436729Y-10458389D02*
X5427205Y-10477436D01*
X5427205Y-10477436D02*
X5417682Y-10486960D01*
X5417682Y-10486960D02*
X5398634Y-10496484D01*
X5398634Y-10496484D02*
X5379586Y-10496484D01*
X5379586Y-10496484D02*
X5360539Y-10486960D01*
X5360539Y-10486960D02*
X5351015Y-10477436D01*
X5351015Y-10477436D02*
X5341491Y-10458389D01*
X5341491Y-10458389D02*
X5331967Y-10420293D01*
X5331967Y-10420293D02*
X5331967Y-10372674D01*
X5331967Y-10372674D02*
X5341491Y-10334579D01*
X5341491Y-10334579D02*
X5351015Y-10315531D01*
X5351015Y-10315531D02*
X5360539Y-10306008D01*
X5360539Y-10306008D02*
X5379586Y-10296484D01*
X5570063Y-10296484D02*
X5589110Y-10296484D01*
X5589110Y-10296484D02*
X5608158Y-10306008D01*
X5608158Y-10306008D02*
X5617682Y-10315531D01*
X5617682Y-10315531D02*
X5627205Y-10334579D01*
X5627205Y-10334579D02*
X5636729Y-10372674D01*
X5636729Y-10372674D02*
X5636729Y-10420293D01*
X5636729Y-10420293D02*
X5627205Y-10458389D01*
X5627205Y-10458389D02*
X5617682Y-10477436D01*
X5617682Y-10477436D02*
X5608158Y-10486960D01*
X5608158Y-10486960D02*
X5589110Y-10496484D01*
X5589110Y-10496484D02*
X5570063Y-10496484D01*
X5570063Y-10496484D02*
X5551015Y-10486960D01*
X5551015Y-10486960D02*
X5541491Y-10477436D01*
X5541491Y-10477436D02*
X5531967Y-10458389D01*
X5531967Y-10458389D02*
X5522444Y-10420293D01*
X5522444Y-10420293D02*
X5522444Y-10372674D01*
X5522444Y-10372674D02*
X5531967Y-10334579D01*
X5531967Y-10334579D02*
X5541491Y-10315531D01*
X5541491Y-10315531D02*
X5551015Y-10306008D01*
X5551015Y-10306008D02*
X5570063Y-10296484D01*
X5760539Y-10296484D02*
X5779586Y-10296484D01*
X5779586Y-10296484D02*
X5798634Y-10306008D01*
X5798634Y-10306008D02*
X5808158Y-10315531D01*
X5808158Y-10315531D02*
X5817682Y-10334579D01*
X5817682Y-10334579D02*
X5827205Y-10372674D01*
X5827205Y-10372674D02*
X5827205Y-10420293D01*
X5827205Y-10420293D02*
X5817682Y-10458389D01*
X5817682Y-10458389D02*
X5808158Y-10477436D01*
X5808158Y-10477436D02*
X5798634Y-10486960D01*
X5798634Y-10486960D02*
X5779586Y-10496484D01*
X5779586Y-10496484D02*
X5760539Y-10496484D01*
X5760539Y-10496484D02*
X5741491Y-10486960D01*
X5741491Y-10486960D02*
X5731967Y-10477436D01*
X5731967Y-10477436D02*
X5722443Y-10458389D01*
X5722443Y-10458389D02*
X5712920Y-10420293D01*
X5712920Y-10420293D02*
X5712920Y-10372674D01*
X5712920Y-10372674D02*
X5722443Y-10334579D01*
X5722443Y-10334579D02*
X5731967Y-10315531D01*
X5731967Y-10315531D02*
X5741491Y-10306008D01*
X5741491Y-10306008D02*
X5760539Y-10296484D01*
X5912920Y-10496484D02*
X5912920Y-10363150D01*
X5912920Y-10382198D02*
X5922443Y-10372674D01*
X5922443Y-10372674D02*
X5941491Y-10363150D01*
X5941491Y-10363150D02*
X5970063Y-10363150D01*
X5970063Y-10363150D02*
X5989110Y-10372674D01*
X5989110Y-10372674D02*
X5998634Y-10391722D01*
X5998634Y-10391722D02*
X5998634Y-10496484D01*
X5998634Y-10391722D02*
X6008158Y-10372674D01*
X6008158Y-10372674D02*
X6027205Y-10363150D01*
X6027205Y-10363150D02*
X6055777Y-10363150D01*
X6055777Y-10363150D02*
X6074824Y-10372674D01*
X6074824Y-10372674D02*
X6084348Y-10391722D01*
X6084348Y-10391722D02*
X6084348Y-10496484D01*
X6179586Y-10496484D02*
X6179586Y-10363150D01*
X6179586Y-10382198D02*
X6189110Y-10372674D01*
X6189110Y-10372674D02*
X6208158Y-10363150D01*
X6208158Y-10363150D02*
X6236729Y-10363150D01*
X6236729Y-10363150D02*
X6255777Y-10372674D01*
X6255777Y-10372674D02*
X6265301Y-10391722D01*
X6265301Y-10391722D02*
X6265301Y-10496484D01*
X6265301Y-10391722D02*
X6274824Y-10372674D01*
X6274824Y-10372674D02*
X6293872Y-10363150D01*
X6293872Y-10363150D02*
X6322443Y-10363150D01*
X6322443Y-10363150D02*
X6341491Y-10372674D01*
X6341491Y-10372674D02*
X6351015Y-10391722D01*
X6351015Y-10391722D02*
X6351015Y-10496484D01*
X6741491Y-10286960D02*
X6570063Y-10544103D01*
X6998634Y-10296484D02*
X7017682Y-10296484D01*
X7017682Y-10296484D02*
X7036729Y-10306008D01*
X7036729Y-10306008D02*
X7046253Y-10315531D01*
X7046253Y-10315531D02*
X7055777Y-10334579D01*
X7055777Y-10334579D02*
X7065301Y-10372674D01*
X7065301Y-10372674D02*
X7065301Y-10420293D01*
X7065301Y-10420293D02*
X7055777Y-10458389D01*
X7055777Y-10458389D02*
X7046253Y-10477436D01*
X7046253Y-10477436D02*
X7036729Y-10486960D01*
X7036729Y-10486960D02*
X7017682Y-10496484D01*
X7017682Y-10496484D02*
X6998634Y-10496484D01*
X6998634Y-10496484D02*
X6979586Y-10486960D01*
X6979586Y-10486960D02*
X6970063Y-10477436D01*
X6970063Y-10477436D02*
X6960539Y-10458389D01*
X6960539Y-10458389D02*
X6951015Y-10420293D01*
X6951015Y-10420293D02*
X6951015Y-10372674D01*
X6951015Y-10372674D02*
X6960539Y-10334579D01*
X6960539Y-10334579D02*
X6970063Y-10315531D01*
X6970063Y-10315531D02*
X6979586Y-10306008D01*
X6979586Y-10306008D02*
X6998634Y-10296484D01*
X7151015Y-10477436D02*
X7160539Y-10486960D01*
X7160539Y-10486960D02*
X7151015Y-10496484D01*
X7151015Y-10496484D02*
X7141491Y-10486960D01*
X7141491Y-10486960D02*
X7151015Y-10477436D01*
X7151015Y-10477436D02*
X7151015Y-10496484D01*
X7351015Y-10496484D02*
X7236729Y-10496484D01*
X7293872Y-10496484D02*
X7293872Y-10296484D01*
X7293872Y-10296484D02*
X7274825Y-10325055D01*
X7274825Y-10325055D02*
X7255777Y-10344103D01*
X7255777Y-10344103D02*
X7236729Y-10353627D01*
X7541491Y-10496484D02*
X7427206Y-10496484D01*
X7484348Y-10496484D02*
X7484348Y-10296484D01*
X7484348Y-10296484D02*
X7465301Y-10325055D01*
X7465301Y-10325055D02*
X7446253Y-10344103D01*
X7446253Y-10344103D02*
X7427206Y-10353627D01*
X7655777Y-10382198D02*
X7636729Y-10372674D01*
X7636729Y-10372674D02*
X7627206Y-10363150D01*
X7627206Y-10363150D02*
X7617682Y-10344103D01*
X7617682Y-10344103D02*
X7617682Y-10334579D01*
X7617682Y-10334579D02*
X7627206Y-10315531D01*
X7627206Y-10315531D02*
X7636729Y-10306008D01*
X7636729Y-10306008D02*
X7655777Y-10296484D01*
X7655777Y-10296484D02*
X7693872Y-10296484D01*
X7693872Y-10296484D02*
X7712920Y-10306008D01*
X7712920Y-10306008D02*
X7722444Y-10315531D01*
X7722444Y-10315531D02*
X7731967Y-10334579D01*
X7731967Y-10334579D02*
X7731967Y-10344103D01*
X7731967Y-10344103D02*
X7722444Y-10363150D01*
X7722444Y-10363150D02*
X7712920Y-10372674D01*
X7712920Y-10372674D02*
X7693872Y-10382198D01*
X7693872Y-10382198D02*
X7655777Y-10382198D01*
X7655777Y-10382198D02*
X7636729Y-10391722D01*
X7636729Y-10391722D02*
X7627206Y-10401246D01*
X7627206Y-10401246D02*
X7617682Y-10420293D01*
X7617682Y-10420293D02*
X7617682Y-10458389D01*
X7617682Y-10458389D02*
X7627206Y-10477436D01*
X7627206Y-10477436D02*
X7636729Y-10486960D01*
X7636729Y-10486960D02*
X7655777Y-10496484D01*
X7655777Y-10496484D02*
X7693872Y-10496484D01*
X7693872Y-10496484D02*
X7712920Y-10486960D01*
X7712920Y-10486960D02*
X7722444Y-10477436D01*
X7722444Y-10477436D02*
X7731967Y-10458389D01*
X7731967Y-10458389D02*
X7731967Y-10420293D01*
X7731967Y-10420293D02*
X7722444Y-10401246D01*
X7722444Y-10401246D02*
X7712920Y-10391722D01*
X7712920Y-10391722D02*
X7693872Y-10382198D01*
X7922444Y-10496484D02*
X7808158Y-10496484D01*
X7865301Y-10496484D02*
X7865301Y-10296484D01*
X7865301Y-10296484D02*
X7846253Y-10325055D01*
X7846253Y-10325055D02*
X7827206Y-10344103D01*
X7827206Y-10344103D02*
X7808158Y-10353627D01*
X7998634Y-10296484D02*
X7998634Y-10334579D01*
X8074825Y-10296484D02*
X8074825Y-10334579D01*
X8370063Y-10572674D02*
X8360539Y-10563150D01*
X8360539Y-10563150D02*
X8341491Y-10534579D01*
X8341491Y-10534579D02*
X8331968Y-10515531D01*
X8331968Y-10515531D02*
X8322444Y-10486960D01*
X8322444Y-10486960D02*
X8312920Y-10439341D01*
X8312920Y-10439341D02*
X8312920Y-10401246D01*
X8312920Y-10401246D02*
X8322444Y-10353627D01*
X8322444Y-10353627D02*
X8331968Y-10325055D01*
X8331968Y-10325055D02*
X8341491Y-10306008D01*
X8341491Y-10306008D02*
X8360539Y-10277436D01*
X8360539Y-10277436D02*
X8370063Y-10267912D01*
X8551015Y-10496484D02*
X8436730Y-10496484D01*
X8493872Y-10496484D02*
X8493872Y-10296484D01*
X8493872Y-10296484D02*
X8474825Y-10325055D01*
X8474825Y-10325055D02*
X8455777Y-10344103D01*
X8455777Y-10344103D02*
X8436730Y-10353627D01*
X8665301Y-10382198D02*
X8646253Y-10372674D01*
X8646253Y-10372674D02*
X8636730Y-10363150D01*
X8636730Y-10363150D02*
X8627206Y-10344103D01*
X8627206Y-10344103D02*
X8627206Y-10334579D01*
X8627206Y-10334579D02*
X8636730Y-10315531D01*
X8636730Y-10315531D02*
X8646253Y-10306008D01*
X8646253Y-10306008D02*
X8665301Y-10296484D01*
X8665301Y-10296484D02*
X8703396Y-10296484D01*
X8703396Y-10296484D02*
X8722444Y-10306008D01*
X8722444Y-10306008D02*
X8731968Y-10315531D01*
X8731968Y-10315531D02*
X8741491Y-10334579D01*
X8741491Y-10334579D02*
X8741491Y-10344103D01*
X8741491Y-10344103D02*
X8731968Y-10363150D01*
X8731968Y-10363150D02*
X8722444Y-10372674D01*
X8722444Y-10372674D02*
X8703396Y-10382198D01*
X8703396Y-10382198D02*
X8665301Y-10382198D01*
X8665301Y-10382198D02*
X8646253Y-10391722D01*
X8646253Y-10391722D02*
X8636730Y-10401246D01*
X8636730Y-10401246D02*
X8627206Y-10420293D01*
X8627206Y-10420293D02*
X8627206Y-10458389D01*
X8627206Y-10458389D02*
X8636730Y-10477436D01*
X8636730Y-10477436D02*
X8646253Y-10486960D01*
X8646253Y-10486960D02*
X8665301Y-10496484D01*
X8665301Y-10496484D02*
X8703396Y-10496484D01*
X8703396Y-10496484D02*
X8722444Y-10486960D01*
X8722444Y-10486960D02*
X8731968Y-10477436D01*
X8731968Y-10477436D02*
X8741491Y-10458389D01*
X8741491Y-10458389D02*
X8741491Y-10420293D01*
X8741491Y-10420293D02*
X8731968Y-10401246D01*
X8731968Y-10401246D02*
X8722444Y-10391722D01*
X8722444Y-10391722D02*
X8703396Y-10382198D01*
X8979587Y-10496484D02*
X8979587Y-10296484D01*
X9065301Y-10496484D02*
X9065301Y-10391722D01*
X9065301Y-10391722D02*
X9055777Y-10372674D01*
X9055777Y-10372674D02*
X9036730Y-10363150D01*
X9036730Y-10363150D02*
X9008158Y-10363150D01*
X9008158Y-10363150D02*
X8989111Y-10372674D01*
X8989111Y-10372674D02*
X8979587Y-10382198D01*
X9189111Y-10496484D02*
X9170063Y-10486960D01*
X9170063Y-10486960D02*
X9160539Y-10477436D01*
X9160539Y-10477436D02*
X9151015Y-10458389D01*
X9151015Y-10458389D02*
X9151015Y-10401246D01*
X9151015Y-10401246D02*
X9160539Y-10382198D01*
X9160539Y-10382198D02*
X9170063Y-10372674D01*
X9170063Y-10372674D02*
X9189111Y-10363150D01*
X9189111Y-10363150D02*
X9217682Y-10363150D01*
X9217682Y-10363150D02*
X9236730Y-10372674D01*
X9236730Y-10372674D02*
X9246253Y-10382198D01*
X9246253Y-10382198D02*
X9255777Y-10401246D01*
X9255777Y-10401246D02*
X9255777Y-10458389D01*
X9255777Y-10458389D02*
X9246253Y-10477436D01*
X9246253Y-10477436D02*
X9236730Y-10486960D01*
X9236730Y-10486960D02*
X9217682Y-10496484D01*
X9217682Y-10496484D02*
X9189111Y-10496484D01*
X9370063Y-10496484D02*
X9351015Y-10486960D01*
X9351015Y-10486960D02*
X9341492Y-10467912D01*
X9341492Y-10467912D02*
X9341492Y-10296484D01*
X9522444Y-10486960D02*
X9503396Y-10496484D01*
X9503396Y-10496484D02*
X9465301Y-10496484D01*
X9465301Y-10496484D02*
X9446253Y-10486960D01*
X9446253Y-10486960D02*
X9436730Y-10467912D01*
X9436730Y-10467912D02*
X9436730Y-10391722D01*
X9436730Y-10391722D02*
X9446253Y-10372674D01*
X9446253Y-10372674D02*
X9465301Y-10363150D01*
X9465301Y-10363150D02*
X9503396Y-10363150D01*
X9503396Y-10363150D02*
X9522444Y-10372674D01*
X9522444Y-10372674D02*
X9531968Y-10391722D01*
X9531968Y-10391722D02*
X9531968Y-10410770D01*
X9531968Y-10410770D02*
X9436730Y-10429817D01*
X9608158Y-10486960D02*
X9627206Y-10496484D01*
X9627206Y-10496484D02*
X9665301Y-10496484D01*
X9665301Y-10496484D02*
X9684349Y-10486960D01*
X9684349Y-10486960D02*
X9693873Y-10467912D01*
X9693873Y-10467912D02*
X9693873Y-10458389D01*
X9693873Y-10458389D02*
X9684349Y-10439341D01*
X9684349Y-10439341D02*
X9665301Y-10429817D01*
X9665301Y-10429817D02*
X9636730Y-10429817D01*
X9636730Y-10429817D02*
X9617682Y-10420293D01*
X9617682Y-10420293D02*
X9608158Y-10401246D01*
X9608158Y-10401246D02*
X9608158Y-10391722D01*
X9608158Y-10391722D02*
X9617682Y-10372674D01*
X9617682Y-10372674D02*
X9636730Y-10363150D01*
X9636730Y-10363150D02*
X9665301Y-10363150D01*
X9665301Y-10363150D02*
X9684349Y-10372674D01*
X9760539Y-10572674D02*
X9770063Y-10563150D01*
X9770063Y-10563150D02*
X9789111Y-10534579D01*
X9789111Y-10534579D02*
X9798634Y-10515531D01*
X9798634Y-10515531D02*
X9808158Y-10486960D01*
X9808158Y-10486960D02*
X9817682Y-10439341D01*
X9817682Y-10439341D02*
X9817682Y-10401246D01*
X9817682Y-10401246D02*
X9808158Y-10353627D01*
X9808158Y-10353627D02*
X9798634Y-10325055D01*
X9798634Y-10325055D02*
X9789111Y-10306008D01*
X9789111Y-10306008D02*
X9770063Y-10277436D01*
X9770063Y-10277436D02*
X9760539Y-10267912D01*
X10122444Y-10572674D02*
X10112920Y-10563150D01*
X10112920Y-10563150D02*
X10093873Y-10534579D01*
X10093873Y-10534579D02*
X10084349Y-10515531D01*
X10084349Y-10515531D02*
X10074825Y-10486960D01*
X10074825Y-10486960D02*
X10065301Y-10439341D01*
X10065301Y-10439341D02*
X10065301Y-10401246D01*
X10065301Y-10401246D02*
X10074825Y-10353627D01*
X10074825Y-10353627D02*
X10084349Y-10325055D01*
X10084349Y-10325055D02*
X10093873Y-10306008D01*
X10093873Y-10306008D02*
X10112920Y-10277436D01*
X10112920Y-10277436D02*
X10122444Y-10267912D01*
X10198634Y-10363150D02*
X10198634Y-10496484D01*
X10198634Y-10382198D02*
X10208158Y-10372674D01*
X10208158Y-10372674D02*
X10227206Y-10363150D01*
X10227206Y-10363150D02*
X10255777Y-10363150D01*
X10255777Y-10363150D02*
X10274825Y-10372674D01*
X10274825Y-10372674D02*
X10284349Y-10391722D01*
X10284349Y-10391722D02*
X10284349Y-10496484D01*
X10408158Y-10496484D02*
X10389111Y-10486960D01*
X10389111Y-10486960D02*
X10379587Y-10477436D01*
X10379587Y-10477436D02*
X10370063Y-10458389D01*
X10370063Y-10458389D02*
X10370063Y-10401246D01*
X10370063Y-10401246D02*
X10379587Y-10382198D01*
X10379587Y-10382198D02*
X10389111Y-10372674D01*
X10389111Y-10372674D02*
X10408158Y-10363150D01*
X10408158Y-10363150D02*
X10436730Y-10363150D01*
X10436730Y-10363150D02*
X10455777Y-10372674D01*
X10455777Y-10372674D02*
X10465301Y-10382198D01*
X10465301Y-10382198D02*
X10474825Y-10401246D01*
X10474825Y-10401246D02*
X10474825Y-10458389D01*
X10474825Y-10458389D02*
X10465301Y-10477436D01*
X10465301Y-10477436D02*
X10455777Y-10486960D01*
X10455777Y-10486960D02*
X10436730Y-10496484D01*
X10436730Y-10496484D02*
X10408158Y-10496484D01*
X10531968Y-10363150D02*
X10608158Y-10363150D01*
X10560539Y-10296484D02*
X10560539Y-10467912D01*
X10560539Y-10467912D02*
X10570063Y-10486960D01*
X10570063Y-10486960D02*
X10589111Y-10496484D01*
X10589111Y-10496484D02*
X10608158Y-10496484D01*
X10827206Y-10363150D02*
X10827206Y-10563150D01*
X10827206Y-10372674D02*
X10846254Y-10363150D01*
X10846254Y-10363150D02*
X10884349Y-10363150D01*
X10884349Y-10363150D02*
X10903396Y-10372674D01*
X10903396Y-10372674D02*
X10912920Y-10382198D01*
X10912920Y-10382198D02*
X10922444Y-10401246D01*
X10922444Y-10401246D02*
X10922444Y-10458389D01*
X10922444Y-10458389D02*
X10912920Y-10477436D01*
X10912920Y-10477436D02*
X10903396Y-10486960D01*
X10903396Y-10486960D02*
X10884349Y-10496484D01*
X10884349Y-10496484D02*
X10846254Y-10496484D01*
X10846254Y-10496484D02*
X10827206Y-10486960D01*
X11036730Y-10496484D02*
X11017682Y-10486960D01*
X11017682Y-10486960D02*
X11008158Y-10467912D01*
X11008158Y-10467912D02*
X11008158Y-10296484D01*
X11198634Y-10496484D02*
X11198634Y-10391722D01*
X11198634Y-10391722D02*
X11189111Y-10372674D01*
X11189111Y-10372674D02*
X11170063Y-10363150D01*
X11170063Y-10363150D02*
X11131968Y-10363150D01*
X11131968Y-10363150D02*
X11112920Y-10372674D01*
X11198634Y-10486960D02*
X11179587Y-10496484D01*
X11179587Y-10496484D02*
X11131968Y-10496484D01*
X11131968Y-10496484D02*
X11112920Y-10486960D01*
X11112920Y-10486960D02*
X11103396Y-10467912D01*
X11103396Y-10467912D02*
X11103396Y-10448865D01*
X11103396Y-10448865D02*
X11112920Y-10429817D01*
X11112920Y-10429817D02*
X11131968Y-10420293D01*
X11131968Y-10420293D02*
X11179587Y-10420293D01*
X11179587Y-10420293D02*
X11198634Y-10410770D01*
X11265301Y-10363150D02*
X11341492Y-10363150D01*
X11293873Y-10296484D02*
X11293873Y-10467912D01*
X11293873Y-10467912D02*
X11303396Y-10486960D01*
X11303396Y-10486960D02*
X11322444Y-10496484D01*
X11322444Y-10496484D02*
X11341492Y-10496484D01*
X11484349Y-10486960D02*
X11465301Y-10496484D01*
X11465301Y-10496484D02*
X11427206Y-10496484D01*
X11427206Y-10496484D02*
X11408158Y-10486960D01*
X11408158Y-10486960D02*
X11398634Y-10467912D01*
X11398634Y-10467912D02*
X11398634Y-10391722D01*
X11398634Y-10391722D02*
X11408158Y-10372674D01*
X11408158Y-10372674D02*
X11427206Y-10363150D01*
X11427206Y-10363150D02*
X11465301Y-10363150D01*
X11465301Y-10363150D02*
X11484349Y-10372674D01*
X11484349Y-10372674D02*
X11493873Y-10391722D01*
X11493873Y-10391722D02*
X11493873Y-10410770D01*
X11493873Y-10410770D02*
X11398634Y-10429817D01*
X11665301Y-10496484D02*
X11665301Y-10296484D01*
X11665301Y-10486960D02*
X11646254Y-10496484D01*
X11646254Y-10496484D02*
X11608158Y-10496484D01*
X11608158Y-10496484D02*
X11589111Y-10486960D01*
X11589111Y-10486960D02*
X11579587Y-10477436D01*
X11579587Y-10477436D02*
X11570063Y-10458389D01*
X11570063Y-10458389D02*
X11570063Y-10401246D01*
X11570063Y-10401246D02*
X11579587Y-10382198D01*
X11579587Y-10382198D02*
X11589111Y-10372674D01*
X11589111Y-10372674D02*
X11608158Y-10363150D01*
X11608158Y-10363150D02*
X11646254Y-10363150D01*
X11646254Y-10363150D02*
X11665301Y-10372674D01*
X11741492Y-10572674D02*
X11751015Y-10563150D01*
X11751015Y-10563150D02*
X11770063Y-10534579D01*
X11770063Y-10534579D02*
X11779587Y-10515531D01*
X11779587Y-10515531D02*
X11789111Y-10486960D01*
X11789111Y-10486960D02*
X11798634Y-10439341D01*
X11798634Y-10439341D02*
X11798634Y-10401246D01*
X11798634Y-10401246D02*
X11789111Y-10353627D01*
X11789111Y-10353627D02*
X11779587Y-10325055D01*
X11779587Y-10325055D02*
X11770063Y-10306008D01*
X11770063Y-10306008D02*
X11751015Y-10277436D01*
X11751015Y-10277436D02*
X11741492Y-10267912D01*
X4765711Y-10795711D02*
X4765711Y-10654289D01*
X4624289Y-10654289D01*
X4624289Y-10795711D01*
X4765711Y-10795711D01*
X5036729Y-10616484D02*
X5160539Y-10616484D01*
X5160539Y-10616484D02*
X5093872Y-10692674D01*
X5093872Y-10692674D02*
X5122444Y-10692674D01*
X5122444Y-10692674D02*
X5141491Y-10702198D01*
X5141491Y-10702198D02*
X5151015Y-10711722D01*
X5151015Y-10711722D02*
X5160539Y-10730770D01*
X5160539Y-10730770D02*
X5160539Y-10778389D01*
X5160539Y-10778389D02*
X5151015Y-10797436D01*
X5151015Y-10797436D02*
X5141491Y-10806960D01*
X5141491Y-10806960D02*
X5122444Y-10816484D01*
X5122444Y-10816484D02*
X5065301Y-10816484D01*
X5065301Y-10816484D02*
X5046253Y-10806960D01*
X5046253Y-10806960D02*
X5036729Y-10797436D01*
X5246253Y-10797436D02*
X5255777Y-10806960D01*
X5255777Y-10806960D02*
X5246253Y-10816484D01*
X5246253Y-10816484D02*
X5236729Y-10806960D01*
X5236729Y-10806960D02*
X5246253Y-10797436D01*
X5246253Y-10797436D02*
X5246253Y-10816484D01*
X5427205Y-10683150D02*
X5427205Y-10816484D01*
X5379586Y-10606960D02*
X5331967Y-10749817D01*
X5331967Y-10749817D02*
X5455777Y-10749817D01*
X5570063Y-10616484D02*
X5589110Y-10616484D01*
X5589110Y-10616484D02*
X5608158Y-10626008D01*
X5608158Y-10626008D02*
X5617682Y-10635531D01*
X5617682Y-10635531D02*
X5627205Y-10654579D01*
X5627205Y-10654579D02*
X5636729Y-10692674D01*
X5636729Y-10692674D02*
X5636729Y-10740293D01*
X5636729Y-10740293D02*
X5627205Y-10778389D01*
X5627205Y-10778389D02*
X5617682Y-10797436D01*
X5617682Y-10797436D02*
X5608158Y-10806960D01*
X5608158Y-10806960D02*
X5589110Y-10816484D01*
X5589110Y-10816484D02*
X5570063Y-10816484D01*
X5570063Y-10816484D02*
X5551015Y-10806960D01*
X5551015Y-10806960D02*
X5541491Y-10797436D01*
X5541491Y-10797436D02*
X5531967Y-10778389D01*
X5531967Y-10778389D02*
X5522444Y-10740293D01*
X5522444Y-10740293D02*
X5522444Y-10692674D01*
X5522444Y-10692674D02*
X5531967Y-10654579D01*
X5531967Y-10654579D02*
X5541491Y-10635531D01*
X5541491Y-10635531D02*
X5551015Y-10626008D01*
X5551015Y-10626008D02*
X5570063Y-10616484D01*
X5760539Y-10616484D02*
X5779586Y-10616484D01*
X5779586Y-10616484D02*
X5798634Y-10626008D01*
X5798634Y-10626008D02*
X5808158Y-10635531D01*
X5808158Y-10635531D02*
X5817682Y-10654579D01*
X5817682Y-10654579D02*
X5827205Y-10692674D01*
X5827205Y-10692674D02*
X5827205Y-10740293D01*
X5827205Y-10740293D02*
X5817682Y-10778389D01*
X5817682Y-10778389D02*
X5808158Y-10797436D01*
X5808158Y-10797436D02*
X5798634Y-10806960D01*
X5798634Y-10806960D02*
X5779586Y-10816484D01*
X5779586Y-10816484D02*
X5760539Y-10816484D01*
X5760539Y-10816484D02*
X5741491Y-10806960D01*
X5741491Y-10806960D02*
X5731967Y-10797436D01*
X5731967Y-10797436D02*
X5722443Y-10778389D01*
X5722443Y-10778389D02*
X5712920Y-10740293D01*
X5712920Y-10740293D02*
X5712920Y-10692674D01*
X5712920Y-10692674D02*
X5722443Y-10654579D01*
X5722443Y-10654579D02*
X5731967Y-10635531D01*
X5731967Y-10635531D02*
X5741491Y-10626008D01*
X5741491Y-10626008D02*
X5760539Y-10616484D01*
X5912920Y-10816484D02*
X5912920Y-10683150D01*
X5912920Y-10702198D02*
X5922443Y-10692674D01*
X5922443Y-10692674D02*
X5941491Y-10683150D01*
X5941491Y-10683150D02*
X5970063Y-10683150D01*
X5970063Y-10683150D02*
X5989110Y-10692674D01*
X5989110Y-10692674D02*
X5998634Y-10711722D01*
X5998634Y-10711722D02*
X5998634Y-10816484D01*
X5998634Y-10711722D02*
X6008158Y-10692674D01*
X6008158Y-10692674D02*
X6027205Y-10683150D01*
X6027205Y-10683150D02*
X6055777Y-10683150D01*
X6055777Y-10683150D02*
X6074824Y-10692674D01*
X6074824Y-10692674D02*
X6084348Y-10711722D01*
X6084348Y-10711722D02*
X6084348Y-10816484D01*
X6179586Y-10816484D02*
X6179586Y-10683150D01*
X6179586Y-10702198D02*
X6189110Y-10692674D01*
X6189110Y-10692674D02*
X6208158Y-10683150D01*
X6208158Y-10683150D02*
X6236729Y-10683150D01*
X6236729Y-10683150D02*
X6255777Y-10692674D01*
X6255777Y-10692674D02*
X6265301Y-10711722D01*
X6265301Y-10711722D02*
X6265301Y-10816484D01*
X6265301Y-10711722D02*
X6274824Y-10692674D01*
X6274824Y-10692674D02*
X6293872Y-10683150D01*
X6293872Y-10683150D02*
X6322443Y-10683150D01*
X6322443Y-10683150D02*
X6341491Y-10692674D01*
X6341491Y-10692674D02*
X6351015Y-10711722D01*
X6351015Y-10711722D02*
X6351015Y-10816484D01*
X6741491Y-10606960D02*
X6570063Y-10864103D01*
X6998634Y-10616484D02*
X7017682Y-10616484D01*
X7017682Y-10616484D02*
X7036729Y-10626008D01*
X7036729Y-10626008D02*
X7046253Y-10635531D01*
X7046253Y-10635531D02*
X7055777Y-10654579D01*
X7055777Y-10654579D02*
X7065301Y-10692674D01*
X7065301Y-10692674D02*
X7065301Y-10740293D01*
X7065301Y-10740293D02*
X7055777Y-10778389D01*
X7055777Y-10778389D02*
X7046253Y-10797436D01*
X7046253Y-10797436D02*
X7036729Y-10806960D01*
X7036729Y-10806960D02*
X7017682Y-10816484D01*
X7017682Y-10816484D02*
X6998634Y-10816484D01*
X6998634Y-10816484D02*
X6979586Y-10806960D01*
X6979586Y-10806960D02*
X6970063Y-10797436D01*
X6970063Y-10797436D02*
X6960539Y-10778389D01*
X6960539Y-10778389D02*
X6951015Y-10740293D01*
X6951015Y-10740293D02*
X6951015Y-10692674D01*
X6951015Y-10692674D02*
X6960539Y-10654579D01*
X6960539Y-10654579D02*
X6970063Y-10635531D01*
X6970063Y-10635531D02*
X6979586Y-10626008D01*
X6979586Y-10626008D02*
X6998634Y-10616484D01*
X7151015Y-10797436D02*
X7160539Y-10806960D01*
X7160539Y-10806960D02*
X7151015Y-10816484D01*
X7151015Y-10816484D02*
X7141491Y-10806960D01*
X7141491Y-10806960D02*
X7151015Y-10797436D01*
X7151015Y-10797436D02*
X7151015Y-10816484D01*
X7351015Y-10816484D02*
X7236729Y-10816484D01*
X7293872Y-10816484D02*
X7293872Y-10616484D01*
X7293872Y-10616484D02*
X7274825Y-10645055D01*
X7274825Y-10645055D02*
X7255777Y-10664103D01*
X7255777Y-10664103D02*
X7236729Y-10673627D01*
X7417682Y-10616484D02*
X7541491Y-10616484D01*
X7541491Y-10616484D02*
X7474825Y-10692674D01*
X7474825Y-10692674D02*
X7503396Y-10692674D01*
X7503396Y-10692674D02*
X7522444Y-10702198D01*
X7522444Y-10702198D02*
X7531967Y-10711722D01*
X7531967Y-10711722D02*
X7541491Y-10730770D01*
X7541491Y-10730770D02*
X7541491Y-10778389D01*
X7541491Y-10778389D02*
X7531967Y-10797436D01*
X7531967Y-10797436D02*
X7522444Y-10806960D01*
X7522444Y-10806960D02*
X7503396Y-10816484D01*
X7503396Y-10816484D02*
X7446253Y-10816484D01*
X7446253Y-10816484D02*
X7427206Y-10806960D01*
X7427206Y-10806960D02*
X7417682Y-10797436D01*
X7608158Y-10616484D02*
X7731967Y-10616484D01*
X7731967Y-10616484D02*
X7665301Y-10692674D01*
X7665301Y-10692674D02*
X7693872Y-10692674D01*
X7693872Y-10692674D02*
X7712920Y-10702198D01*
X7712920Y-10702198D02*
X7722444Y-10711722D01*
X7722444Y-10711722D02*
X7731967Y-10730770D01*
X7731967Y-10730770D02*
X7731967Y-10778389D01*
X7731967Y-10778389D02*
X7722444Y-10797436D01*
X7722444Y-10797436D02*
X7712920Y-10806960D01*
X7712920Y-10806960D02*
X7693872Y-10816484D01*
X7693872Y-10816484D02*
X7636729Y-10816484D01*
X7636729Y-10816484D02*
X7617682Y-10806960D01*
X7617682Y-10806960D02*
X7608158Y-10797436D01*
X7827206Y-10816484D02*
X7865301Y-10816484D01*
X7865301Y-10816484D02*
X7884348Y-10806960D01*
X7884348Y-10806960D02*
X7893872Y-10797436D01*
X7893872Y-10797436D02*
X7912920Y-10768865D01*
X7912920Y-10768865D02*
X7922444Y-10730770D01*
X7922444Y-10730770D02*
X7922444Y-10654579D01*
X7922444Y-10654579D02*
X7912920Y-10635531D01*
X7912920Y-10635531D02*
X7903396Y-10626008D01*
X7903396Y-10626008D02*
X7884348Y-10616484D01*
X7884348Y-10616484D02*
X7846253Y-10616484D01*
X7846253Y-10616484D02*
X7827206Y-10626008D01*
X7827206Y-10626008D02*
X7817682Y-10635531D01*
X7817682Y-10635531D02*
X7808158Y-10654579D01*
X7808158Y-10654579D02*
X7808158Y-10702198D01*
X7808158Y-10702198D02*
X7817682Y-10721246D01*
X7817682Y-10721246D02*
X7827206Y-10730770D01*
X7827206Y-10730770D02*
X7846253Y-10740293D01*
X7846253Y-10740293D02*
X7884348Y-10740293D01*
X7884348Y-10740293D02*
X7903396Y-10730770D01*
X7903396Y-10730770D02*
X7912920Y-10721246D01*
X7912920Y-10721246D02*
X7922444Y-10702198D01*
X7998634Y-10616484D02*
X7998634Y-10654579D01*
X8074825Y-10616484D02*
X8074825Y-10654579D01*
X8370063Y-10892674D02*
X8360539Y-10883150D01*
X8360539Y-10883150D02*
X8341491Y-10854579D01*
X8341491Y-10854579D02*
X8331968Y-10835531D01*
X8331968Y-10835531D02*
X8322444Y-10806960D01*
X8322444Y-10806960D02*
X8312920Y-10759341D01*
X8312920Y-10759341D02*
X8312920Y-10721246D01*
X8312920Y-10721246D02*
X8322444Y-10673627D01*
X8322444Y-10673627D02*
X8331968Y-10645055D01*
X8331968Y-10645055D02*
X8341491Y-10626008D01*
X8341491Y-10626008D02*
X8360539Y-10597436D01*
X8360539Y-10597436D02*
X8370063Y-10587912D01*
X8455777Y-10816484D02*
X8493872Y-10816484D01*
X8493872Y-10816484D02*
X8512920Y-10806960D01*
X8512920Y-10806960D02*
X8522444Y-10797436D01*
X8522444Y-10797436D02*
X8541491Y-10768865D01*
X8541491Y-10768865D02*
X8551015Y-10730770D01*
X8551015Y-10730770D02*
X8551015Y-10654579D01*
X8551015Y-10654579D02*
X8541491Y-10635531D01*
X8541491Y-10635531D02*
X8531968Y-10626008D01*
X8531968Y-10626008D02*
X8512920Y-10616484D01*
X8512920Y-10616484D02*
X8474825Y-10616484D01*
X8474825Y-10616484D02*
X8455777Y-10626008D01*
X8455777Y-10626008D02*
X8446253Y-10635531D01*
X8446253Y-10635531D02*
X8436730Y-10654579D01*
X8436730Y-10654579D02*
X8436730Y-10702198D01*
X8436730Y-10702198D02*
X8446253Y-10721246D01*
X8446253Y-10721246D02*
X8455777Y-10730770D01*
X8455777Y-10730770D02*
X8474825Y-10740293D01*
X8474825Y-10740293D02*
X8512920Y-10740293D01*
X8512920Y-10740293D02*
X8531968Y-10730770D01*
X8531968Y-10730770D02*
X8541491Y-10721246D01*
X8541491Y-10721246D02*
X8551015Y-10702198D01*
X8789111Y-10816484D02*
X8789111Y-10616484D01*
X8874825Y-10816484D02*
X8874825Y-10711722D01*
X8874825Y-10711722D02*
X8865301Y-10692674D01*
X8865301Y-10692674D02*
X8846253Y-10683150D01*
X8846253Y-10683150D02*
X8817682Y-10683150D01*
X8817682Y-10683150D02*
X8798634Y-10692674D01*
X8798634Y-10692674D02*
X8789111Y-10702198D01*
X8998634Y-10816484D02*
X8979587Y-10806960D01*
X8979587Y-10806960D02*
X8970063Y-10797436D01*
X8970063Y-10797436D02*
X8960539Y-10778389D01*
X8960539Y-10778389D02*
X8960539Y-10721246D01*
X8960539Y-10721246D02*
X8970063Y-10702198D01*
X8970063Y-10702198D02*
X8979587Y-10692674D01*
X8979587Y-10692674D02*
X8998634Y-10683150D01*
X8998634Y-10683150D02*
X9027206Y-10683150D01*
X9027206Y-10683150D02*
X9046253Y-10692674D01*
X9046253Y-10692674D02*
X9055777Y-10702198D01*
X9055777Y-10702198D02*
X9065301Y-10721246D01*
X9065301Y-10721246D02*
X9065301Y-10778389D01*
X9065301Y-10778389D02*
X9055777Y-10797436D01*
X9055777Y-10797436D02*
X9046253Y-10806960D01*
X9046253Y-10806960D02*
X9027206Y-10816484D01*
X9027206Y-10816484D02*
X8998634Y-10816484D01*
X9179587Y-10816484D02*
X9160539Y-10806960D01*
X9160539Y-10806960D02*
X9151015Y-10787912D01*
X9151015Y-10787912D02*
X9151015Y-10616484D01*
X9331968Y-10806960D02*
X9312920Y-10816484D01*
X9312920Y-10816484D02*
X9274825Y-10816484D01*
X9274825Y-10816484D02*
X9255777Y-10806960D01*
X9255777Y-10806960D02*
X9246253Y-10787912D01*
X9246253Y-10787912D02*
X9246253Y-10711722D01*
X9246253Y-10711722D02*
X9255777Y-10692674D01*
X9255777Y-10692674D02*
X9274825Y-10683150D01*
X9274825Y-10683150D02*
X9312920Y-10683150D01*
X9312920Y-10683150D02*
X9331968Y-10692674D01*
X9331968Y-10692674D02*
X9341492Y-10711722D01*
X9341492Y-10711722D02*
X9341492Y-10730770D01*
X9341492Y-10730770D02*
X9246253Y-10749817D01*
X9417682Y-10806960D02*
X9436730Y-10816484D01*
X9436730Y-10816484D02*
X9474825Y-10816484D01*
X9474825Y-10816484D02*
X9493873Y-10806960D01*
X9493873Y-10806960D02*
X9503396Y-10787912D01*
X9503396Y-10787912D02*
X9503396Y-10778389D01*
X9503396Y-10778389D02*
X9493873Y-10759341D01*
X9493873Y-10759341D02*
X9474825Y-10749817D01*
X9474825Y-10749817D02*
X9446253Y-10749817D01*
X9446253Y-10749817D02*
X9427206Y-10740293D01*
X9427206Y-10740293D02*
X9417682Y-10721246D01*
X9417682Y-10721246D02*
X9417682Y-10711722D01*
X9417682Y-10711722D02*
X9427206Y-10692674D01*
X9427206Y-10692674D02*
X9446253Y-10683150D01*
X9446253Y-10683150D02*
X9474825Y-10683150D01*
X9474825Y-10683150D02*
X9493873Y-10692674D01*
X9570063Y-10892674D02*
X9579587Y-10883150D01*
X9579587Y-10883150D02*
X9598634Y-10854579D01*
X9598634Y-10854579D02*
X9608158Y-10835531D01*
X9608158Y-10835531D02*
X9617682Y-10806960D01*
X9617682Y-10806960D02*
X9627206Y-10759341D01*
X9627206Y-10759341D02*
X9627206Y-10721246D01*
X9627206Y-10721246D02*
X9617682Y-10673627D01*
X9617682Y-10673627D02*
X9608158Y-10645055D01*
X9608158Y-10645055D02*
X9598634Y-10626008D01*
X9598634Y-10626008D02*
X9579587Y-10597436D01*
X9579587Y-10597436D02*
X9570063Y-10587912D01*
X9931968Y-10892674D02*
X9922444Y-10883150D01*
X9922444Y-10883150D02*
X9903396Y-10854579D01*
X9903396Y-10854579D02*
X9893873Y-10835531D01*
X9893873Y-10835531D02*
X9884349Y-10806960D01*
X9884349Y-10806960D02*
X9874825Y-10759341D01*
X9874825Y-10759341D02*
X9874825Y-10721246D01*
X9874825Y-10721246D02*
X9884349Y-10673627D01*
X9884349Y-10673627D02*
X9893873Y-10645055D01*
X9893873Y-10645055D02*
X9903396Y-10626008D01*
X9903396Y-10626008D02*
X9922444Y-10597436D01*
X9922444Y-10597436D02*
X9931968Y-10587912D01*
X10008158Y-10683150D02*
X10008158Y-10816484D01*
X10008158Y-10702198D02*
X10017682Y-10692674D01*
X10017682Y-10692674D02*
X10036730Y-10683150D01*
X10036730Y-10683150D02*
X10065301Y-10683150D01*
X10065301Y-10683150D02*
X10084349Y-10692674D01*
X10084349Y-10692674D02*
X10093873Y-10711722D01*
X10093873Y-10711722D02*
X10093873Y-10816484D01*
X10217682Y-10816484D02*
X10198634Y-10806960D01*
X10198634Y-10806960D02*
X10189111Y-10797436D01*
X10189111Y-10797436D02*
X10179587Y-10778389D01*
X10179587Y-10778389D02*
X10179587Y-10721246D01*
X10179587Y-10721246D02*
X10189111Y-10702198D01*
X10189111Y-10702198D02*
X10198634Y-10692674D01*
X10198634Y-10692674D02*
X10217682Y-10683150D01*
X10217682Y-10683150D02*
X10246254Y-10683150D01*
X10246254Y-10683150D02*
X10265301Y-10692674D01*
X10265301Y-10692674D02*
X10274825Y-10702198D01*
X10274825Y-10702198D02*
X10284349Y-10721246D01*
X10284349Y-10721246D02*
X10284349Y-10778389D01*
X10284349Y-10778389D02*
X10274825Y-10797436D01*
X10274825Y-10797436D02*
X10265301Y-10806960D01*
X10265301Y-10806960D02*
X10246254Y-10816484D01*
X10246254Y-10816484D02*
X10217682Y-10816484D01*
X10341492Y-10683150D02*
X10417682Y-10683150D01*
X10370063Y-10616484D02*
X10370063Y-10787912D01*
X10370063Y-10787912D02*
X10379587Y-10806960D01*
X10379587Y-10806960D02*
X10398634Y-10816484D01*
X10398634Y-10816484D02*
X10417682Y-10816484D01*
X10636730Y-10683150D02*
X10636730Y-10883150D01*
X10636730Y-10692674D02*
X10655777Y-10683150D01*
X10655777Y-10683150D02*
X10693873Y-10683150D01*
X10693873Y-10683150D02*
X10712920Y-10692674D01*
X10712920Y-10692674D02*
X10722444Y-10702198D01*
X10722444Y-10702198D02*
X10731968Y-10721246D01*
X10731968Y-10721246D02*
X10731968Y-10778389D01*
X10731968Y-10778389D02*
X10722444Y-10797436D01*
X10722444Y-10797436D02*
X10712920Y-10806960D01*
X10712920Y-10806960D02*
X10693873Y-10816484D01*
X10693873Y-10816484D02*
X10655777Y-10816484D01*
X10655777Y-10816484D02*
X10636730Y-10806960D01*
X10846254Y-10816484D02*
X10827206Y-10806960D01*
X10827206Y-10806960D02*
X10817682Y-10787912D01*
X10817682Y-10787912D02*
X10817682Y-10616484D01*
X11008158Y-10816484D02*
X11008158Y-10711722D01*
X11008158Y-10711722D02*
X10998635Y-10692674D01*
X10998635Y-10692674D02*
X10979587Y-10683150D01*
X10979587Y-10683150D02*
X10941492Y-10683150D01*
X10941492Y-10683150D02*
X10922444Y-10692674D01*
X11008158Y-10806960D02*
X10989111Y-10816484D01*
X10989111Y-10816484D02*
X10941492Y-10816484D01*
X10941492Y-10816484D02*
X10922444Y-10806960D01*
X10922444Y-10806960D02*
X10912920Y-10787912D01*
X10912920Y-10787912D02*
X10912920Y-10768865D01*
X10912920Y-10768865D02*
X10922444Y-10749817D01*
X10922444Y-10749817D02*
X10941492Y-10740293D01*
X10941492Y-10740293D02*
X10989111Y-10740293D01*
X10989111Y-10740293D02*
X11008158Y-10730770D01*
X11074825Y-10683150D02*
X11151015Y-10683150D01*
X11103396Y-10616484D02*
X11103396Y-10787912D01*
X11103396Y-10787912D02*
X11112920Y-10806960D01*
X11112920Y-10806960D02*
X11131968Y-10816484D01*
X11131968Y-10816484D02*
X11151015Y-10816484D01*
X11293873Y-10806960D02*
X11274825Y-10816484D01*
X11274825Y-10816484D02*
X11236730Y-10816484D01*
X11236730Y-10816484D02*
X11217682Y-10806960D01*
X11217682Y-10806960D02*
X11208158Y-10787912D01*
X11208158Y-10787912D02*
X11208158Y-10711722D01*
X11208158Y-10711722D02*
X11217682Y-10692674D01*
X11217682Y-10692674D02*
X11236730Y-10683150D01*
X11236730Y-10683150D02*
X11274825Y-10683150D01*
X11274825Y-10683150D02*
X11293873Y-10692674D01*
X11293873Y-10692674D02*
X11303396Y-10711722D01*
X11303396Y-10711722D02*
X11303396Y-10730770D01*
X11303396Y-10730770D02*
X11208158Y-10749817D01*
X11474825Y-10816484D02*
X11474825Y-10616484D01*
X11474825Y-10806960D02*
X11455777Y-10816484D01*
X11455777Y-10816484D02*
X11417682Y-10816484D01*
X11417682Y-10816484D02*
X11398634Y-10806960D01*
X11398634Y-10806960D02*
X11389111Y-10797436D01*
X11389111Y-10797436D02*
X11379587Y-10778389D01*
X11379587Y-10778389D02*
X11379587Y-10721246D01*
X11379587Y-10721246D02*
X11389111Y-10702198D01*
X11389111Y-10702198D02*
X11398634Y-10692674D01*
X11398634Y-10692674D02*
X11417682Y-10683150D01*
X11417682Y-10683150D02*
X11455777Y-10683150D01*
X11455777Y-10683150D02*
X11474825Y-10692674D01*
X11551015Y-10892674D02*
X11560539Y-10883150D01*
X11560539Y-10883150D02*
X11579587Y-10854579D01*
X11579587Y-10854579D02*
X11589111Y-10835531D01*
X11589111Y-10835531D02*
X11598634Y-10806960D01*
X11598634Y-10806960D02*
X11608158Y-10759341D01*
X11608158Y-10759341D02*
X11608158Y-10721246D01*
X11608158Y-10721246D02*
X11598634Y-10673627D01*
X11598634Y-10673627D02*
X11589111Y-10645055D01*
X11589111Y-10645055D02*
X11579587Y-10626008D01*
X11579587Y-10626008D02*
X11560539Y-10597436D01*
X11560539Y-10597436D02*
X11551015Y-10587912D01*
M02*
