M48
; DRILL file {KiCad 8.0.8} date 2025-06-09T15:06:13+0530
; FORMAT={-:-/ absolute / metric / decimal}
; #@! TF.CreationDate,2025-06-09T15:06:13+05:30
; #@! TF.GenerationSoftware,Kicad,Pcbnew,8.0.8
; #@! TF.FileFunction,NonPlated,1,2,NPTH
FMAT,2
METRIC
; #@! TA.AperFunction,NonPlated,NPTH,ComponentDrill
T1C1.500
; #@! TA.AperFunction,NonPlated,NPTH,ComponentDrill
T2C1.700
; #@! TA.AperFunction,NonPlated,NPTH,ComponentDrill
T3C3.000
; #@! TA.AperFunction,NonPlated,NPTH,ComponentDrill
T4C3.400
%
G90
G05
T2
X74.5Y-49.0
X74.5Y-66.0
X74.5Y-83.0
X85.5Y-49.0
X85.5Y-66.0
X85.5Y-83.0
X92.5Y-49.0
X92.5Y-66.0
X92.5Y-83.0
X103.5Y-49.0
X103.5Y-66.0
X103.5Y-83.0
X110.5Y-49.0
X110.5Y-66.0
X110.5Y-83.0
X121.5Y-49.0
X121.5Y-66.0
X121.5Y-83.0
T3
X80.0Y-43.1
X80.0Y-60.1
X80.0Y-77.1
X85.0Y-45.2
X85.0Y-62.2
X85.0Y-79.2
X98.0Y-43.1
X98.0Y-60.1
X98.0Y-77.1
X103.0Y-45.2
X103.0Y-62.2
X103.0Y-79.2
X116.0Y-43.1
X116.0Y-60.1
X116.0Y-77.1
X121.0Y-45.2
X121.0Y-62.2
X121.0Y-79.2
T4
X80.0Y-49.0
X80.0Y-66.0
X80.0Y-83.0
X98.0Y-49.0
X98.0Y-66.0
X98.0Y-83.0
X116.0Y-49.0
X116.0Y-66.0
X116.0Y-83.0
T1
G00X58.35Y-78.4
M15
G01X59.65Y-78.4
M16
G05
G00X58.35Y-89.6
M15
G01X59.65Y-89.6
M16
G05
M30
