M48
; DRILL file {KiCad 8.0.8} date 2025-06-09T15:06:20+0530
; FORMAT={-:-/ absolute / metric / decimal}
; #@! TF.CreationDate,2025-06-09T15:06:20+05:30
; #@! TF.GenerationSoftware,Kicad,Pcbnew,8.0.8
; #@! TF.FileFunction,MixedPlating,1,2
FMAT,2
METRIC
; #@! TA.AperFunction,Plated,PTH,ViaDrill
T1C0.400
; #@! TA.AperFunction,Plated,PTH,ComponentDrill
T2C1.000
; #@! TA.AperFunction,Plated,PTH,ComponentDrill
T3C1.016
; #@! TA.AperFunction,Plated,PTH,ComponentDrill
T4C2.200
; #@! TA.AperFunction,NonPlated,NPTH,ComponentDrill
T5C1.500
; #@! TA.AperFunction,NonPlated,NPTH,ComponentDrill
T6C1.700
; #@! TA.AperFunction,NonPlated,NPTH,ComponentDrill
T7C3.000
; #@! TA.AperFunction,NonPlated,NPTH,ComponentDrill
T8C3.400
%
G90
G05
T1
X60.45Y-75.4
X74.2Y-52.4
X74.6Y-69.6
X76.5Y-43.0
X76.5Y-60.0
X76.5Y-77.0
X94.5Y-43.0
X94.5Y-60.0
X94.5Y-77.0
X112.5Y-43.0
X112.5Y-60.0
X112.5Y-77.0
T2
X51.38Y-43.38
X51.38Y-45.92
X51.38Y-48.46
X51.38Y-51.0
X51.38Y-53.54
X51.38Y-56.08
X51.38Y-58.62
X51.5Y-81.5
X51.5Y-84.0
X51.5Y-86.5
X66.0Y-81.5
X66.0Y-86.5
X66.62Y-43.38
X66.62Y-45.92
X66.62Y-48.46
X66.62Y-51.0
X66.62Y-53.54
X66.62Y-56.08
X66.62Y-58.62
T3
X57.73Y-42.428
X57.73Y-44.968
X60.27Y-42.428
X60.27Y-44.968
T4
X59.0Y-69.6
X89.0Y-57.6
X89.0Y-74.4
X107.0Y-57.4
X107.0Y-74.4
T6
X74.5Y-49.0
X74.5Y-66.0
X74.5Y-83.0
X85.5Y-49.0
X85.5Y-66.0
X85.5Y-83.0
X92.5Y-49.0
X92.5Y-66.0
X92.5Y-83.0
X103.5Y-49.0
X103.5Y-66.0
X103.5Y-83.0
X110.5Y-49.0
X110.5Y-66.0
X110.5Y-83.0
X121.5Y-49.0
X121.5Y-66.0
X121.5Y-83.0
T7
X80.0Y-43.1
X80.0Y-60.1
X80.0Y-77.1
X85.0Y-45.2
X85.0Y-62.2
X85.0Y-79.2
X98.0Y-43.1
X98.0Y-60.1
X98.0Y-77.1
X103.0Y-45.2
X103.0Y-62.2
X103.0Y-79.2
X116.0Y-43.1
X116.0Y-60.1
X116.0Y-77.1
X121.0Y-45.2
X121.0Y-62.2
X121.0Y-79.2
T8
X80.0Y-49.0
X80.0Y-66.0
X80.0Y-83.0
X98.0Y-49.0
X98.0Y-66.0
X98.0Y-83.0
X116.0Y-49.0
X116.0Y-66.0
X116.0Y-83.0
T5
G00X58.35Y-78.4
M15
G01X59.65Y-78.4
M16
G05
G00X58.35Y-89.6
M15
G01X59.65Y-89.6
M16
G05
M30
