%TF.GenerationSoftware,KiCad,Pcbnew,8.0.8*%
%TF.CreationDate,2025-06-09T15:06:14+05:30*%
%TF.ProjectId,bytepad,62797465-7061-4642-9e6b-696361645f70,8.2*%
%TF.SameCoordinates,Original*%
%TF.FileFunction,Drillmap*%
%TF.FilePolarity,Positive*%
%FSLAX45Y45*%
G04 Gerber Fmt 4.5, Leading zero omitted, Abs format (unit mm)*
G04 Created by KiCad (PCBNEW 8.0.8) date 2025-06-09 15:06:14*
%MOMM*%
%LPD*%
G01*
G04 APERTURE LIST*
%ADD10C,0.100000*%
%ADD11C,0.200000*%
%ADD12C,0.101600*%
%ADD13C,0.220000*%
G04 APERTURE END LIST*
D10*
X4900000Y-9200000D02*
X12600000Y-9200000D01*
X12700000Y-9100000D02*
X12700000Y-4000000D01*
X12700000Y-9100000D02*
G75*
G02*
X12600000Y-9200000I-100000J0D01*
G01*
X4800000Y-4000000D02*
X4800000Y-9100000D01*
X4800000Y-4000000D02*
G75*
G02*
X4900000Y-3900000I100000J0D01*
G01*
X12600000Y-3900000D02*
X4900000Y-3900000D01*
X12600000Y-3900000D02*
G75*
G02*
X12700000Y-4000000I0J-100000D01*
G01*
X4900000Y-9200000D02*
G75*
G02*
X4800000Y-9100000I0J100000D01*
G01*
D11*
D10*
X6025000Y-7520000D02*
X6065000Y-7560000D01*
X6065000Y-7520000D02*
X6025000Y-7560000D01*
X7400000Y-5220000D02*
X7440000Y-5260000D01*
X7440000Y-5220000D02*
X7400000Y-5260000D01*
X7440000Y-6940000D02*
X7480000Y-6980000D01*
X7480000Y-6940000D02*
X7440000Y-6980000D01*
X7630000Y-4280000D02*
X7670000Y-4320000D01*
X7670000Y-4280000D02*
X7630000Y-4320000D01*
X7630000Y-5980000D02*
X7670000Y-6020000D01*
X7670000Y-5980000D02*
X7630000Y-6020000D01*
X7630000Y-7680000D02*
X7670000Y-7720000D01*
X7670000Y-7680000D02*
X7630000Y-7720000D01*
X9430000Y-4280000D02*
X9470000Y-4320000D01*
X9470000Y-4280000D02*
X9430000Y-4320000D01*
X9430000Y-5980000D02*
X9470000Y-6020000D01*
X9470000Y-5980000D02*
X9430000Y-6020000D01*
X9430000Y-7680000D02*
X9470000Y-7720000D01*
X9470000Y-7680000D02*
X9430000Y-7720000D01*
X11230000Y-4280000D02*
X11270000Y-4320000D01*
X11270000Y-4280000D02*
X11230000Y-4320000D01*
X11230000Y-5980000D02*
X11270000Y-6020000D01*
X11270000Y-5980000D02*
X11230000Y-6020000D01*
X11230000Y-7680000D02*
X11270000Y-7720000D01*
X11270000Y-7680000D02*
X11230000Y-7720000D01*
X5188000Y-4338000D02*
G75*
G02*
X5088000Y-4338000I-50000J0D01*
G01*
X5088000Y-4338000D02*
G75*
G02*
X5188000Y-4338000I50000J0D01*
G01*
X5188000Y-4592000D02*
G75*
G02*
X5088000Y-4592000I-50000J0D01*
G01*
X5088000Y-4592000D02*
G75*
G02*
X5188000Y-4592000I50000J0D01*
G01*
X5188000Y-4846000D02*
G75*
G02*
X5088000Y-4846000I-50000J0D01*
G01*
X5088000Y-4846000D02*
G75*
G02*
X5188000Y-4846000I50000J0D01*
G01*
X5188000Y-5100000D02*
G75*
G02*
X5088000Y-5100000I-50000J0D01*
G01*
X5088000Y-5100000D02*
G75*
G02*
X5188000Y-5100000I50000J0D01*
G01*
X5188000Y-5354000D02*
G75*
G02*
X5088000Y-5354000I-50000J0D01*
G01*
X5088000Y-5354000D02*
G75*
G02*
X5188000Y-5354000I50000J0D01*
G01*
X5188000Y-5608000D02*
G75*
G02*
X5088000Y-5608000I-50000J0D01*
G01*
X5088000Y-5608000D02*
G75*
G02*
X5188000Y-5608000I50000J0D01*
G01*
X5188000Y-5862000D02*
G75*
G02*
X5088000Y-5862000I-50000J0D01*
G01*
X5088000Y-5862000D02*
G75*
G02*
X5188000Y-5862000I50000J0D01*
G01*
X5200000Y-8150000D02*
G75*
G02*
X5100000Y-8150000I-50000J0D01*
G01*
X5100000Y-8150000D02*
G75*
G02*
X5200000Y-8150000I50000J0D01*
G01*
X5200000Y-8400000D02*
G75*
G02*
X5100000Y-8400000I-50000J0D01*
G01*
X5100000Y-8400000D02*
G75*
G02*
X5200000Y-8400000I50000J0D01*
G01*
X5200000Y-8650000D02*
G75*
G02*
X5100000Y-8650000I-50000J0D01*
G01*
X5100000Y-8650000D02*
G75*
G02*
X5200000Y-8650000I50000J0D01*
G01*
X6650000Y-8150000D02*
G75*
G02*
X6550000Y-8150000I-50000J0D01*
G01*
X6550000Y-8150000D02*
G75*
G02*
X6650000Y-8150000I50000J0D01*
G01*
X6650000Y-8650000D02*
G75*
G02*
X6550000Y-8650000I-50000J0D01*
G01*
X6550000Y-8650000D02*
G75*
G02*
X6650000Y-8650000I50000J0D01*
G01*
X6712000Y-4338000D02*
G75*
G02*
X6612000Y-4338000I-50000J0D01*
G01*
X6612000Y-4338000D02*
G75*
G02*
X6712000Y-4338000I50000J0D01*
G01*
X6712000Y-4592000D02*
G75*
G02*
X6612000Y-4592000I-50000J0D01*
G01*
X6612000Y-4592000D02*
G75*
G02*
X6712000Y-4592000I50000J0D01*
G01*
X6712000Y-4846000D02*
G75*
G02*
X6612000Y-4846000I-50000J0D01*
G01*
X6612000Y-4846000D02*
G75*
G02*
X6712000Y-4846000I50000J0D01*
G01*
X6712000Y-5100000D02*
G75*
G02*
X6612000Y-5100000I-50000J0D01*
G01*
X6612000Y-5100000D02*
G75*
G02*
X6712000Y-5100000I50000J0D01*
G01*
X6712000Y-5354000D02*
G75*
G02*
X6612000Y-5354000I-50000J0D01*
G01*
X6612000Y-5354000D02*
G75*
G02*
X6712000Y-5354000I50000J0D01*
G01*
X6712000Y-5608000D02*
G75*
G02*
X6612000Y-5608000I-50000J0D01*
G01*
X6612000Y-5608000D02*
G75*
G02*
X6712000Y-5608000I50000J0D01*
G01*
X6712000Y-5862000D02*
G75*
G02*
X6612000Y-5862000I-50000J0D01*
G01*
X6612000Y-5862000D02*
G75*
G02*
X6712000Y-5862000I50000J0D01*
G01*
D12*
X5773000Y-4192000D02*
X5773000Y-4293600D01*
X5722200Y-4242800D02*
X5823800Y-4242800D01*
X5773000Y-4446000D02*
X5773000Y-4547600D01*
X5722200Y-4496800D02*
X5823800Y-4496800D01*
X6027000Y-4192000D02*
X6027000Y-4293600D01*
X5976200Y-4242800D02*
X6077800Y-4242800D01*
X6027000Y-4446000D02*
X6027000Y-4547600D01*
X5976200Y-4496800D02*
X6077800Y-4496800D01*
D13*
X5977782Y-7037782D02*
X5977782Y-6882217D01*
X5822217Y-6882217D01*
X5822217Y-7037782D01*
X5977782Y-7037782D01*
X8977783Y-5837782D02*
X8977783Y-5682217D01*
X8822218Y-5682217D01*
X8822218Y-5837782D01*
X8977783Y-5837782D01*
X8977783Y-7517782D02*
X8977783Y-7362217D01*
X8822218Y-7362217D01*
X8822218Y-7517782D01*
X8977783Y-7517782D01*
X10777783Y-5817782D02*
X10777783Y-5662217D01*
X10622218Y-5662217D01*
X10622218Y-5817782D01*
X10777783Y-5817782D01*
X10777783Y-7517782D02*
X10777783Y-7362217D01*
X10622218Y-7362217D01*
X10622218Y-7517782D01*
X10777783Y-7517782D01*
D11*
X5055777Y-9516484D02*
X5055777Y-9316484D01*
X5055777Y-9316484D02*
X5103396Y-9316484D01*
X5103396Y-9316484D02*
X5131967Y-9326008D01*
X5131967Y-9326008D02*
X5151015Y-9345055D01*
X5151015Y-9345055D02*
X5160539Y-9364103D01*
X5160539Y-9364103D02*
X5170063Y-9402198D01*
X5170063Y-9402198D02*
X5170063Y-9430770D01*
X5170063Y-9430770D02*
X5160539Y-9468865D01*
X5160539Y-9468865D02*
X5151015Y-9487912D01*
X5151015Y-9487912D02*
X5131967Y-9506960D01*
X5131967Y-9506960D02*
X5103396Y-9516484D01*
X5103396Y-9516484D02*
X5055777Y-9516484D01*
X5255777Y-9516484D02*
X5255777Y-9383150D01*
X5255777Y-9421246D02*
X5265301Y-9402198D01*
X5265301Y-9402198D02*
X5274824Y-9392674D01*
X5274824Y-9392674D02*
X5293872Y-9383150D01*
X5293872Y-9383150D02*
X5312920Y-9383150D01*
X5379586Y-9516484D02*
X5379586Y-9383150D01*
X5379586Y-9316484D02*
X5370063Y-9326008D01*
X5370063Y-9326008D02*
X5379586Y-9335531D01*
X5379586Y-9335531D02*
X5389110Y-9326008D01*
X5389110Y-9326008D02*
X5379586Y-9316484D01*
X5379586Y-9316484D02*
X5379586Y-9335531D01*
X5503396Y-9516484D02*
X5484348Y-9506960D01*
X5484348Y-9506960D02*
X5474824Y-9487912D01*
X5474824Y-9487912D02*
X5474824Y-9316484D01*
X5608158Y-9516484D02*
X5589110Y-9506960D01*
X5589110Y-9506960D02*
X5579586Y-9487912D01*
X5579586Y-9487912D02*
X5579586Y-9316484D01*
X5836729Y-9516484D02*
X5836729Y-9316484D01*
X5836729Y-9316484D02*
X5903396Y-9459341D01*
X5903396Y-9459341D02*
X5970062Y-9316484D01*
X5970062Y-9316484D02*
X5970062Y-9516484D01*
X6151015Y-9516484D02*
X6151015Y-9411722D01*
X6151015Y-9411722D02*
X6141491Y-9392674D01*
X6141491Y-9392674D02*
X6122443Y-9383150D01*
X6122443Y-9383150D02*
X6084348Y-9383150D01*
X6084348Y-9383150D02*
X6065301Y-9392674D01*
X6151015Y-9506960D02*
X6131967Y-9516484D01*
X6131967Y-9516484D02*
X6084348Y-9516484D01*
X6084348Y-9516484D02*
X6065301Y-9506960D01*
X6065301Y-9506960D02*
X6055777Y-9487912D01*
X6055777Y-9487912D02*
X6055777Y-9468865D01*
X6055777Y-9468865D02*
X6065301Y-9449817D01*
X6065301Y-9449817D02*
X6084348Y-9440293D01*
X6084348Y-9440293D02*
X6131967Y-9440293D01*
X6131967Y-9440293D02*
X6151015Y-9430770D01*
X6246253Y-9383150D02*
X6246253Y-9583150D01*
X6246253Y-9392674D02*
X6265301Y-9383150D01*
X6265301Y-9383150D02*
X6303396Y-9383150D01*
X6303396Y-9383150D02*
X6322443Y-9392674D01*
X6322443Y-9392674D02*
X6331967Y-9402198D01*
X6331967Y-9402198D02*
X6341491Y-9421246D01*
X6341491Y-9421246D02*
X6341491Y-9478389D01*
X6341491Y-9478389D02*
X6331967Y-9497436D01*
X6331967Y-9497436D02*
X6322443Y-9506960D01*
X6322443Y-9506960D02*
X6303396Y-9516484D01*
X6303396Y-9516484D02*
X6265301Y-9516484D01*
X6265301Y-9516484D02*
X6246253Y-9506960D01*
X6427205Y-9497436D02*
X6436729Y-9506960D01*
X6436729Y-9506960D02*
X6427205Y-9516484D01*
X6427205Y-9516484D02*
X6417682Y-9506960D01*
X6417682Y-9506960D02*
X6427205Y-9497436D01*
X6427205Y-9497436D02*
X6427205Y-9516484D01*
X6427205Y-9392674D02*
X6436729Y-9402198D01*
X6436729Y-9402198D02*
X6427205Y-9411722D01*
X6427205Y-9411722D02*
X6417682Y-9402198D01*
X6417682Y-9402198D02*
X6427205Y-9392674D01*
X6427205Y-9392674D02*
X6427205Y-9411722D01*
D10*
X4755000Y-9825000D02*
X4795000Y-9865000D01*
X4795000Y-9825000D02*
X4755000Y-9865000D01*
D11*
X5093872Y-9736484D02*
X5112920Y-9736484D01*
X5112920Y-9736484D02*
X5131967Y-9746008D01*
X5131967Y-9746008D02*
X5141491Y-9755531D01*
X5141491Y-9755531D02*
X5151015Y-9774579D01*
X5151015Y-9774579D02*
X5160539Y-9812674D01*
X5160539Y-9812674D02*
X5160539Y-9860293D01*
X5160539Y-9860293D02*
X5151015Y-9898389D01*
X5151015Y-9898389D02*
X5141491Y-9917436D01*
X5141491Y-9917436D02*
X5131967Y-9926960D01*
X5131967Y-9926960D02*
X5112920Y-9936484D01*
X5112920Y-9936484D02*
X5093872Y-9936484D01*
X5093872Y-9936484D02*
X5074824Y-9926960D01*
X5074824Y-9926960D02*
X5065301Y-9917436D01*
X5065301Y-9917436D02*
X5055777Y-9898389D01*
X5055777Y-9898389D02*
X5046253Y-9860293D01*
X5046253Y-9860293D02*
X5046253Y-9812674D01*
X5046253Y-9812674D02*
X5055777Y-9774579D01*
X5055777Y-9774579D02*
X5065301Y-9755531D01*
X5065301Y-9755531D02*
X5074824Y-9746008D01*
X5074824Y-9746008D02*
X5093872Y-9736484D01*
X5246253Y-9917436D02*
X5255777Y-9926960D01*
X5255777Y-9926960D02*
X5246253Y-9936484D01*
X5246253Y-9936484D02*
X5236729Y-9926960D01*
X5236729Y-9926960D02*
X5246253Y-9917436D01*
X5246253Y-9917436D02*
X5246253Y-9936484D01*
X5427205Y-9803150D02*
X5427205Y-9936484D01*
X5379586Y-9726960D02*
X5331967Y-9869817D01*
X5331967Y-9869817D02*
X5455777Y-9869817D01*
X5570063Y-9736484D02*
X5589110Y-9736484D01*
X5589110Y-9736484D02*
X5608158Y-9746008D01*
X5608158Y-9746008D02*
X5617682Y-9755531D01*
X5617682Y-9755531D02*
X5627205Y-9774579D01*
X5627205Y-9774579D02*
X5636729Y-9812674D01*
X5636729Y-9812674D02*
X5636729Y-9860293D01*
X5636729Y-9860293D02*
X5627205Y-9898389D01*
X5627205Y-9898389D02*
X5617682Y-9917436D01*
X5617682Y-9917436D02*
X5608158Y-9926960D01*
X5608158Y-9926960D02*
X5589110Y-9936484D01*
X5589110Y-9936484D02*
X5570063Y-9936484D01*
X5570063Y-9936484D02*
X5551015Y-9926960D01*
X5551015Y-9926960D02*
X5541491Y-9917436D01*
X5541491Y-9917436D02*
X5531967Y-9898389D01*
X5531967Y-9898389D02*
X5522444Y-9860293D01*
X5522444Y-9860293D02*
X5522444Y-9812674D01*
X5522444Y-9812674D02*
X5531967Y-9774579D01*
X5531967Y-9774579D02*
X5541491Y-9755531D01*
X5541491Y-9755531D02*
X5551015Y-9746008D01*
X5551015Y-9746008D02*
X5570063Y-9736484D01*
X5760539Y-9736484D02*
X5779586Y-9736484D01*
X5779586Y-9736484D02*
X5798634Y-9746008D01*
X5798634Y-9746008D02*
X5808158Y-9755531D01*
X5808158Y-9755531D02*
X5817682Y-9774579D01*
X5817682Y-9774579D02*
X5827205Y-9812674D01*
X5827205Y-9812674D02*
X5827205Y-9860293D01*
X5827205Y-9860293D02*
X5817682Y-9898389D01*
X5817682Y-9898389D02*
X5808158Y-9917436D01*
X5808158Y-9917436D02*
X5798634Y-9926960D01*
X5798634Y-9926960D02*
X5779586Y-9936484D01*
X5779586Y-9936484D02*
X5760539Y-9936484D01*
X5760539Y-9936484D02*
X5741491Y-9926960D01*
X5741491Y-9926960D02*
X5731967Y-9917436D01*
X5731967Y-9917436D02*
X5722443Y-9898389D01*
X5722443Y-9898389D02*
X5712920Y-9860293D01*
X5712920Y-9860293D02*
X5712920Y-9812674D01*
X5712920Y-9812674D02*
X5722443Y-9774579D01*
X5722443Y-9774579D02*
X5731967Y-9755531D01*
X5731967Y-9755531D02*
X5741491Y-9746008D01*
X5741491Y-9746008D02*
X5760539Y-9736484D01*
X5912920Y-9936484D02*
X5912920Y-9803150D01*
X5912920Y-9822198D02*
X5922443Y-9812674D01*
X5922443Y-9812674D02*
X5941491Y-9803150D01*
X5941491Y-9803150D02*
X5970063Y-9803150D01*
X5970063Y-9803150D02*
X5989110Y-9812674D01*
X5989110Y-9812674D02*
X5998634Y-9831722D01*
X5998634Y-9831722D02*
X5998634Y-9936484D01*
X5998634Y-9831722D02*
X6008158Y-9812674D01*
X6008158Y-9812674D02*
X6027205Y-9803150D01*
X6027205Y-9803150D02*
X6055777Y-9803150D01*
X6055777Y-9803150D02*
X6074824Y-9812674D01*
X6074824Y-9812674D02*
X6084348Y-9831722D01*
X6084348Y-9831722D02*
X6084348Y-9936484D01*
X6179586Y-9936484D02*
X6179586Y-9803150D01*
X6179586Y-9822198D02*
X6189110Y-9812674D01*
X6189110Y-9812674D02*
X6208158Y-9803150D01*
X6208158Y-9803150D02*
X6236729Y-9803150D01*
X6236729Y-9803150D02*
X6255777Y-9812674D01*
X6255777Y-9812674D02*
X6265301Y-9831722D01*
X6265301Y-9831722D02*
X6265301Y-9936484D01*
X6265301Y-9831722D02*
X6274824Y-9812674D01*
X6274824Y-9812674D02*
X6293872Y-9803150D01*
X6293872Y-9803150D02*
X6322443Y-9803150D01*
X6322443Y-9803150D02*
X6341491Y-9812674D01*
X6341491Y-9812674D02*
X6351015Y-9831722D01*
X6351015Y-9831722D02*
X6351015Y-9936484D01*
X6741491Y-9726960D02*
X6570063Y-9984103D01*
X6998634Y-9736484D02*
X7017682Y-9736484D01*
X7017682Y-9736484D02*
X7036729Y-9746008D01*
X7036729Y-9746008D02*
X7046253Y-9755531D01*
X7046253Y-9755531D02*
X7055777Y-9774579D01*
X7055777Y-9774579D02*
X7065301Y-9812674D01*
X7065301Y-9812674D02*
X7065301Y-9860293D01*
X7065301Y-9860293D02*
X7055777Y-9898389D01*
X7055777Y-9898389D02*
X7046253Y-9917436D01*
X7046253Y-9917436D02*
X7036729Y-9926960D01*
X7036729Y-9926960D02*
X7017682Y-9936484D01*
X7017682Y-9936484D02*
X6998634Y-9936484D01*
X6998634Y-9936484D02*
X6979586Y-9926960D01*
X6979586Y-9926960D02*
X6970063Y-9917436D01*
X6970063Y-9917436D02*
X6960539Y-9898389D01*
X6960539Y-9898389D02*
X6951015Y-9860293D01*
X6951015Y-9860293D02*
X6951015Y-9812674D01*
X6951015Y-9812674D02*
X6960539Y-9774579D01*
X6960539Y-9774579D02*
X6970063Y-9755531D01*
X6970063Y-9755531D02*
X6979586Y-9746008D01*
X6979586Y-9746008D02*
X6998634Y-9736484D01*
X7151015Y-9917436D02*
X7160539Y-9926960D01*
X7160539Y-9926960D02*
X7151015Y-9936484D01*
X7151015Y-9936484D02*
X7141491Y-9926960D01*
X7141491Y-9926960D02*
X7151015Y-9917436D01*
X7151015Y-9917436D02*
X7151015Y-9936484D01*
X7284348Y-9736484D02*
X7303396Y-9736484D01*
X7303396Y-9736484D02*
X7322444Y-9746008D01*
X7322444Y-9746008D02*
X7331967Y-9755531D01*
X7331967Y-9755531D02*
X7341491Y-9774579D01*
X7341491Y-9774579D02*
X7351015Y-9812674D01*
X7351015Y-9812674D02*
X7351015Y-9860293D01*
X7351015Y-9860293D02*
X7341491Y-9898389D01*
X7341491Y-9898389D02*
X7331967Y-9917436D01*
X7331967Y-9917436D02*
X7322444Y-9926960D01*
X7322444Y-9926960D02*
X7303396Y-9936484D01*
X7303396Y-9936484D02*
X7284348Y-9936484D01*
X7284348Y-9936484D02*
X7265301Y-9926960D01*
X7265301Y-9926960D02*
X7255777Y-9917436D01*
X7255777Y-9917436D02*
X7246253Y-9898389D01*
X7246253Y-9898389D02*
X7236729Y-9860293D01*
X7236729Y-9860293D02*
X7236729Y-9812674D01*
X7236729Y-9812674D02*
X7246253Y-9774579D01*
X7246253Y-9774579D02*
X7255777Y-9755531D01*
X7255777Y-9755531D02*
X7265301Y-9746008D01*
X7265301Y-9746008D02*
X7284348Y-9736484D01*
X7541491Y-9936484D02*
X7427206Y-9936484D01*
X7484348Y-9936484D02*
X7484348Y-9736484D01*
X7484348Y-9736484D02*
X7465301Y-9765055D01*
X7465301Y-9765055D02*
X7446253Y-9784103D01*
X7446253Y-9784103D02*
X7427206Y-9793627D01*
X7722444Y-9736484D02*
X7627206Y-9736484D01*
X7627206Y-9736484D02*
X7617682Y-9831722D01*
X7617682Y-9831722D02*
X7627206Y-9822198D01*
X7627206Y-9822198D02*
X7646253Y-9812674D01*
X7646253Y-9812674D02*
X7693872Y-9812674D01*
X7693872Y-9812674D02*
X7712920Y-9822198D01*
X7712920Y-9822198D02*
X7722444Y-9831722D01*
X7722444Y-9831722D02*
X7731967Y-9850770D01*
X7731967Y-9850770D02*
X7731967Y-9898389D01*
X7731967Y-9898389D02*
X7722444Y-9917436D01*
X7722444Y-9917436D02*
X7712920Y-9926960D01*
X7712920Y-9926960D02*
X7693872Y-9936484D01*
X7693872Y-9936484D02*
X7646253Y-9936484D01*
X7646253Y-9936484D02*
X7627206Y-9926960D01*
X7627206Y-9926960D02*
X7617682Y-9917436D01*
X7798634Y-9736484D02*
X7931967Y-9736484D01*
X7931967Y-9736484D02*
X7846253Y-9936484D01*
X7998634Y-9736484D02*
X7998634Y-9774579D01*
X8074825Y-9736484D02*
X8074825Y-9774579D01*
X8370063Y-10012674D02*
X8360539Y-10003150D01*
X8360539Y-10003150D02*
X8341491Y-9974579D01*
X8341491Y-9974579D02*
X8331968Y-9955531D01*
X8331968Y-9955531D02*
X8322444Y-9926960D01*
X8322444Y-9926960D02*
X8312920Y-9879341D01*
X8312920Y-9879341D02*
X8312920Y-9841246D01*
X8312920Y-9841246D02*
X8322444Y-9793627D01*
X8322444Y-9793627D02*
X8331968Y-9765055D01*
X8331968Y-9765055D02*
X8341491Y-9746008D01*
X8341491Y-9746008D02*
X8360539Y-9717436D01*
X8360539Y-9717436D02*
X8370063Y-9707912D01*
X8551015Y-9936484D02*
X8436730Y-9936484D01*
X8493872Y-9936484D02*
X8493872Y-9736484D01*
X8493872Y-9736484D02*
X8474825Y-9765055D01*
X8474825Y-9765055D02*
X8455777Y-9784103D01*
X8455777Y-9784103D02*
X8436730Y-9793627D01*
X8627206Y-9755531D02*
X8636730Y-9746008D01*
X8636730Y-9746008D02*
X8655777Y-9736484D01*
X8655777Y-9736484D02*
X8703396Y-9736484D01*
X8703396Y-9736484D02*
X8722444Y-9746008D01*
X8722444Y-9746008D02*
X8731968Y-9755531D01*
X8731968Y-9755531D02*
X8741491Y-9774579D01*
X8741491Y-9774579D02*
X8741491Y-9793627D01*
X8741491Y-9793627D02*
X8731968Y-9822198D01*
X8731968Y-9822198D02*
X8617682Y-9936484D01*
X8617682Y-9936484D02*
X8741491Y-9936484D01*
X8979587Y-9936484D02*
X8979587Y-9736484D01*
X9065301Y-9936484D02*
X9065301Y-9831722D01*
X9065301Y-9831722D02*
X9055777Y-9812674D01*
X9055777Y-9812674D02*
X9036730Y-9803150D01*
X9036730Y-9803150D02*
X9008158Y-9803150D01*
X9008158Y-9803150D02*
X8989111Y-9812674D01*
X8989111Y-9812674D02*
X8979587Y-9822198D01*
X9189111Y-9936484D02*
X9170063Y-9926960D01*
X9170063Y-9926960D02*
X9160539Y-9917436D01*
X9160539Y-9917436D02*
X9151015Y-9898389D01*
X9151015Y-9898389D02*
X9151015Y-9841246D01*
X9151015Y-9841246D02*
X9160539Y-9822198D01*
X9160539Y-9822198D02*
X9170063Y-9812674D01*
X9170063Y-9812674D02*
X9189111Y-9803150D01*
X9189111Y-9803150D02*
X9217682Y-9803150D01*
X9217682Y-9803150D02*
X9236730Y-9812674D01*
X9236730Y-9812674D02*
X9246253Y-9822198D01*
X9246253Y-9822198D02*
X9255777Y-9841246D01*
X9255777Y-9841246D02*
X9255777Y-9898389D01*
X9255777Y-9898389D02*
X9246253Y-9917436D01*
X9246253Y-9917436D02*
X9236730Y-9926960D01*
X9236730Y-9926960D02*
X9217682Y-9936484D01*
X9217682Y-9936484D02*
X9189111Y-9936484D01*
X9370063Y-9936484D02*
X9351015Y-9926960D01*
X9351015Y-9926960D02*
X9341492Y-9907912D01*
X9341492Y-9907912D02*
X9341492Y-9736484D01*
X9522444Y-9926960D02*
X9503396Y-9936484D01*
X9503396Y-9936484D02*
X9465301Y-9936484D01*
X9465301Y-9936484D02*
X9446253Y-9926960D01*
X9446253Y-9926960D02*
X9436730Y-9907912D01*
X9436730Y-9907912D02*
X9436730Y-9831722D01*
X9436730Y-9831722D02*
X9446253Y-9812674D01*
X9446253Y-9812674D02*
X9465301Y-9803150D01*
X9465301Y-9803150D02*
X9503396Y-9803150D01*
X9503396Y-9803150D02*
X9522444Y-9812674D01*
X9522444Y-9812674D02*
X9531968Y-9831722D01*
X9531968Y-9831722D02*
X9531968Y-9850770D01*
X9531968Y-9850770D02*
X9436730Y-9869817D01*
X9608158Y-9926960D02*
X9627206Y-9936484D01*
X9627206Y-9936484D02*
X9665301Y-9936484D01*
X9665301Y-9936484D02*
X9684349Y-9926960D01*
X9684349Y-9926960D02*
X9693873Y-9907912D01*
X9693873Y-9907912D02*
X9693873Y-9898389D01*
X9693873Y-9898389D02*
X9684349Y-9879341D01*
X9684349Y-9879341D02*
X9665301Y-9869817D01*
X9665301Y-9869817D02*
X9636730Y-9869817D01*
X9636730Y-9869817D02*
X9617682Y-9860293D01*
X9617682Y-9860293D02*
X9608158Y-9841246D01*
X9608158Y-9841246D02*
X9608158Y-9831722D01*
X9608158Y-9831722D02*
X9617682Y-9812674D01*
X9617682Y-9812674D02*
X9636730Y-9803150D01*
X9636730Y-9803150D02*
X9665301Y-9803150D01*
X9665301Y-9803150D02*
X9684349Y-9812674D01*
X9760539Y-10012674D02*
X9770063Y-10003150D01*
X9770063Y-10003150D02*
X9789111Y-9974579D01*
X9789111Y-9974579D02*
X9798634Y-9955531D01*
X9798634Y-9955531D02*
X9808158Y-9926960D01*
X9808158Y-9926960D02*
X9817682Y-9879341D01*
X9817682Y-9879341D02*
X9817682Y-9841246D01*
X9817682Y-9841246D02*
X9808158Y-9793627D01*
X9808158Y-9793627D02*
X9798634Y-9765055D01*
X9798634Y-9765055D02*
X9789111Y-9746008D01*
X9789111Y-9746008D02*
X9770063Y-9717436D01*
X9770063Y-9717436D02*
X9760539Y-9707912D01*
D10*
X4795000Y-10109000D02*
G75*
G02*
X4695000Y-10109000I-50000J0D01*
G01*
X4695000Y-10109000D02*
G75*
G02*
X4795000Y-10109000I50000J0D01*
G01*
D11*
X5160539Y-10200484D02*
X5046253Y-10200484D01*
X5103396Y-10200484D02*
X5103396Y-10000484D01*
X5103396Y-10000484D02*
X5084348Y-10029055D01*
X5084348Y-10029055D02*
X5065301Y-10048103D01*
X5065301Y-10048103D02*
X5046253Y-10057627D01*
X5246253Y-10181436D02*
X5255777Y-10190960D01*
X5255777Y-10190960D02*
X5246253Y-10200484D01*
X5246253Y-10200484D02*
X5236729Y-10190960D01*
X5236729Y-10190960D02*
X5246253Y-10181436D01*
X5246253Y-10181436D02*
X5246253Y-10200484D01*
X5379586Y-10000484D02*
X5398634Y-10000484D01*
X5398634Y-10000484D02*
X5417682Y-10010008D01*
X5417682Y-10010008D02*
X5427205Y-10019531D01*
X5427205Y-10019531D02*
X5436729Y-10038579D01*
X5436729Y-10038579D02*
X5446253Y-10076674D01*
X5446253Y-10076674D02*
X5446253Y-10124293D01*
X5446253Y-10124293D02*
X5436729Y-10162389D01*
X5436729Y-10162389D02*
X5427205Y-10181436D01*
X5427205Y-10181436D02*
X5417682Y-10190960D01*
X5417682Y-10190960D02*
X5398634Y-10200484D01*
X5398634Y-10200484D02*
X5379586Y-10200484D01*
X5379586Y-10200484D02*
X5360539Y-10190960D01*
X5360539Y-10190960D02*
X5351015Y-10181436D01*
X5351015Y-10181436D02*
X5341491Y-10162389D01*
X5341491Y-10162389D02*
X5331967Y-10124293D01*
X5331967Y-10124293D02*
X5331967Y-10076674D01*
X5331967Y-10076674D02*
X5341491Y-10038579D01*
X5341491Y-10038579D02*
X5351015Y-10019531D01*
X5351015Y-10019531D02*
X5360539Y-10010008D01*
X5360539Y-10010008D02*
X5379586Y-10000484D01*
X5570063Y-10000484D02*
X5589110Y-10000484D01*
X5589110Y-10000484D02*
X5608158Y-10010008D01*
X5608158Y-10010008D02*
X5617682Y-10019531D01*
X5617682Y-10019531D02*
X5627205Y-10038579D01*
X5627205Y-10038579D02*
X5636729Y-10076674D01*
X5636729Y-10076674D02*
X5636729Y-10124293D01*
X5636729Y-10124293D02*
X5627205Y-10162389D01*
X5627205Y-10162389D02*
X5617682Y-10181436D01*
X5617682Y-10181436D02*
X5608158Y-10190960D01*
X5608158Y-10190960D02*
X5589110Y-10200484D01*
X5589110Y-10200484D02*
X5570063Y-10200484D01*
X5570063Y-10200484D02*
X5551015Y-10190960D01*
X5551015Y-10190960D02*
X5541491Y-10181436D01*
X5541491Y-10181436D02*
X5531967Y-10162389D01*
X5531967Y-10162389D02*
X5522444Y-10124293D01*
X5522444Y-10124293D02*
X5522444Y-10076674D01*
X5522444Y-10076674D02*
X5531967Y-10038579D01*
X5531967Y-10038579D02*
X5541491Y-10019531D01*
X5541491Y-10019531D02*
X5551015Y-10010008D01*
X5551015Y-10010008D02*
X5570063Y-10000484D01*
X5760539Y-10000484D02*
X5779586Y-10000484D01*
X5779586Y-10000484D02*
X5798634Y-10010008D01*
X5798634Y-10010008D02*
X5808158Y-10019531D01*
X5808158Y-10019531D02*
X5817682Y-10038579D01*
X5817682Y-10038579D02*
X5827205Y-10076674D01*
X5827205Y-10076674D02*
X5827205Y-10124293D01*
X5827205Y-10124293D02*
X5817682Y-10162389D01*
X5817682Y-10162389D02*
X5808158Y-10181436D01*
X5808158Y-10181436D02*
X5798634Y-10190960D01*
X5798634Y-10190960D02*
X5779586Y-10200484D01*
X5779586Y-10200484D02*
X5760539Y-10200484D01*
X5760539Y-10200484D02*
X5741491Y-10190960D01*
X5741491Y-10190960D02*
X5731967Y-10181436D01*
X5731967Y-10181436D02*
X5722443Y-10162389D01*
X5722443Y-10162389D02*
X5712920Y-10124293D01*
X5712920Y-10124293D02*
X5712920Y-10076674D01*
X5712920Y-10076674D02*
X5722443Y-10038579D01*
X5722443Y-10038579D02*
X5731967Y-10019531D01*
X5731967Y-10019531D02*
X5741491Y-10010008D01*
X5741491Y-10010008D02*
X5760539Y-10000484D01*
X5912920Y-10200484D02*
X5912920Y-10067150D01*
X5912920Y-10086198D02*
X5922443Y-10076674D01*
X5922443Y-10076674D02*
X5941491Y-10067150D01*
X5941491Y-10067150D02*
X5970063Y-10067150D01*
X5970063Y-10067150D02*
X5989110Y-10076674D01*
X5989110Y-10076674D02*
X5998634Y-10095722D01*
X5998634Y-10095722D02*
X5998634Y-10200484D01*
X5998634Y-10095722D02*
X6008158Y-10076674D01*
X6008158Y-10076674D02*
X6027205Y-10067150D01*
X6027205Y-10067150D02*
X6055777Y-10067150D01*
X6055777Y-10067150D02*
X6074824Y-10076674D01*
X6074824Y-10076674D02*
X6084348Y-10095722D01*
X6084348Y-10095722D02*
X6084348Y-10200484D01*
X6179586Y-10200484D02*
X6179586Y-10067150D01*
X6179586Y-10086198D02*
X6189110Y-10076674D01*
X6189110Y-10076674D02*
X6208158Y-10067150D01*
X6208158Y-10067150D02*
X6236729Y-10067150D01*
X6236729Y-10067150D02*
X6255777Y-10076674D01*
X6255777Y-10076674D02*
X6265301Y-10095722D01*
X6265301Y-10095722D02*
X6265301Y-10200484D01*
X6265301Y-10095722D02*
X6274824Y-10076674D01*
X6274824Y-10076674D02*
X6293872Y-10067150D01*
X6293872Y-10067150D02*
X6322443Y-10067150D01*
X6322443Y-10067150D02*
X6341491Y-10076674D01*
X6341491Y-10076674D02*
X6351015Y-10095722D01*
X6351015Y-10095722D02*
X6351015Y-10200484D01*
X6741491Y-9990960D02*
X6570063Y-10248103D01*
X6998634Y-10000484D02*
X7017682Y-10000484D01*
X7017682Y-10000484D02*
X7036729Y-10010008D01*
X7036729Y-10010008D02*
X7046253Y-10019531D01*
X7046253Y-10019531D02*
X7055777Y-10038579D01*
X7055777Y-10038579D02*
X7065301Y-10076674D01*
X7065301Y-10076674D02*
X7065301Y-10124293D01*
X7065301Y-10124293D02*
X7055777Y-10162389D01*
X7055777Y-10162389D02*
X7046253Y-10181436D01*
X7046253Y-10181436D02*
X7036729Y-10190960D01*
X7036729Y-10190960D02*
X7017682Y-10200484D01*
X7017682Y-10200484D02*
X6998634Y-10200484D01*
X6998634Y-10200484D02*
X6979586Y-10190960D01*
X6979586Y-10190960D02*
X6970063Y-10181436D01*
X6970063Y-10181436D02*
X6960539Y-10162389D01*
X6960539Y-10162389D02*
X6951015Y-10124293D01*
X6951015Y-10124293D02*
X6951015Y-10076674D01*
X6951015Y-10076674D02*
X6960539Y-10038579D01*
X6960539Y-10038579D02*
X6970063Y-10019531D01*
X6970063Y-10019531D02*
X6979586Y-10010008D01*
X6979586Y-10010008D02*
X6998634Y-10000484D01*
X7151015Y-10181436D02*
X7160539Y-10190960D01*
X7160539Y-10190960D02*
X7151015Y-10200484D01*
X7151015Y-10200484D02*
X7141491Y-10190960D01*
X7141491Y-10190960D02*
X7151015Y-10181436D01*
X7151015Y-10181436D02*
X7151015Y-10200484D01*
X7284348Y-10000484D02*
X7303396Y-10000484D01*
X7303396Y-10000484D02*
X7322444Y-10010008D01*
X7322444Y-10010008D02*
X7331967Y-10019531D01*
X7331967Y-10019531D02*
X7341491Y-10038579D01*
X7341491Y-10038579D02*
X7351015Y-10076674D01*
X7351015Y-10076674D02*
X7351015Y-10124293D01*
X7351015Y-10124293D02*
X7341491Y-10162389D01*
X7341491Y-10162389D02*
X7331967Y-10181436D01*
X7331967Y-10181436D02*
X7322444Y-10190960D01*
X7322444Y-10190960D02*
X7303396Y-10200484D01*
X7303396Y-10200484D02*
X7284348Y-10200484D01*
X7284348Y-10200484D02*
X7265301Y-10190960D01*
X7265301Y-10190960D02*
X7255777Y-10181436D01*
X7255777Y-10181436D02*
X7246253Y-10162389D01*
X7246253Y-10162389D02*
X7236729Y-10124293D01*
X7236729Y-10124293D02*
X7236729Y-10076674D01*
X7236729Y-10076674D02*
X7246253Y-10038579D01*
X7246253Y-10038579D02*
X7255777Y-10019531D01*
X7255777Y-10019531D02*
X7265301Y-10010008D01*
X7265301Y-10010008D02*
X7284348Y-10000484D01*
X7417682Y-10000484D02*
X7541491Y-10000484D01*
X7541491Y-10000484D02*
X7474825Y-10076674D01*
X7474825Y-10076674D02*
X7503396Y-10076674D01*
X7503396Y-10076674D02*
X7522444Y-10086198D01*
X7522444Y-10086198D02*
X7531967Y-10095722D01*
X7531967Y-10095722D02*
X7541491Y-10114770D01*
X7541491Y-10114770D02*
X7541491Y-10162389D01*
X7541491Y-10162389D02*
X7531967Y-10181436D01*
X7531967Y-10181436D02*
X7522444Y-10190960D01*
X7522444Y-10190960D02*
X7503396Y-10200484D01*
X7503396Y-10200484D02*
X7446253Y-10200484D01*
X7446253Y-10200484D02*
X7427206Y-10190960D01*
X7427206Y-10190960D02*
X7417682Y-10181436D01*
X7636729Y-10200484D02*
X7674825Y-10200484D01*
X7674825Y-10200484D02*
X7693872Y-10190960D01*
X7693872Y-10190960D02*
X7703396Y-10181436D01*
X7703396Y-10181436D02*
X7722444Y-10152865D01*
X7722444Y-10152865D02*
X7731967Y-10114770D01*
X7731967Y-10114770D02*
X7731967Y-10038579D01*
X7731967Y-10038579D02*
X7722444Y-10019531D01*
X7722444Y-10019531D02*
X7712920Y-10010008D01*
X7712920Y-10010008D02*
X7693872Y-10000484D01*
X7693872Y-10000484D02*
X7655777Y-10000484D01*
X7655777Y-10000484D02*
X7636729Y-10010008D01*
X7636729Y-10010008D02*
X7627206Y-10019531D01*
X7627206Y-10019531D02*
X7617682Y-10038579D01*
X7617682Y-10038579D02*
X7617682Y-10086198D01*
X7617682Y-10086198D02*
X7627206Y-10105246D01*
X7627206Y-10105246D02*
X7636729Y-10114770D01*
X7636729Y-10114770D02*
X7655777Y-10124293D01*
X7655777Y-10124293D02*
X7693872Y-10124293D01*
X7693872Y-10124293D02*
X7712920Y-10114770D01*
X7712920Y-10114770D02*
X7722444Y-10105246D01*
X7722444Y-10105246D02*
X7731967Y-10086198D01*
X7903396Y-10067150D02*
X7903396Y-10200484D01*
X7855777Y-9990960D02*
X7808158Y-10133817D01*
X7808158Y-10133817D02*
X7931967Y-10133817D01*
X7998634Y-10000484D02*
X7998634Y-10038579D01*
X8074825Y-10000484D02*
X8074825Y-10038579D01*
X8370063Y-10276674D02*
X8360539Y-10267150D01*
X8360539Y-10267150D02*
X8341491Y-10238579D01*
X8341491Y-10238579D02*
X8331968Y-10219531D01*
X8331968Y-10219531D02*
X8322444Y-10190960D01*
X8322444Y-10190960D02*
X8312920Y-10143341D01*
X8312920Y-10143341D02*
X8312920Y-10105246D01*
X8312920Y-10105246D02*
X8322444Y-10057627D01*
X8322444Y-10057627D02*
X8331968Y-10029055D01*
X8331968Y-10029055D02*
X8341491Y-10010008D01*
X8341491Y-10010008D02*
X8360539Y-9981436D01*
X8360539Y-9981436D02*
X8370063Y-9971912D01*
X8551015Y-10200484D02*
X8436730Y-10200484D01*
X8493872Y-10200484D02*
X8493872Y-10000484D01*
X8493872Y-10000484D02*
X8474825Y-10029055D01*
X8474825Y-10029055D02*
X8455777Y-10048103D01*
X8455777Y-10048103D02*
X8436730Y-10057627D01*
X8646253Y-10200484D02*
X8684349Y-10200484D01*
X8684349Y-10200484D02*
X8703396Y-10190960D01*
X8703396Y-10190960D02*
X8712920Y-10181436D01*
X8712920Y-10181436D02*
X8731968Y-10152865D01*
X8731968Y-10152865D02*
X8741491Y-10114770D01*
X8741491Y-10114770D02*
X8741491Y-10038579D01*
X8741491Y-10038579D02*
X8731968Y-10019531D01*
X8731968Y-10019531D02*
X8722444Y-10010008D01*
X8722444Y-10010008D02*
X8703396Y-10000484D01*
X8703396Y-10000484D02*
X8665301Y-10000484D01*
X8665301Y-10000484D02*
X8646253Y-10010008D01*
X8646253Y-10010008D02*
X8636730Y-10019531D01*
X8636730Y-10019531D02*
X8627206Y-10038579D01*
X8627206Y-10038579D02*
X8627206Y-10086198D01*
X8627206Y-10086198D02*
X8636730Y-10105246D01*
X8636730Y-10105246D02*
X8646253Y-10114770D01*
X8646253Y-10114770D02*
X8665301Y-10124293D01*
X8665301Y-10124293D02*
X8703396Y-10124293D01*
X8703396Y-10124293D02*
X8722444Y-10114770D01*
X8722444Y-10114770D02*
X8731968Y-10105246D01*
X8731968Y-10105246D02*
X8741491Y-10086198D01*
X8979587Y-10200484D02*
X8979587Y-10000484D01*
X9065301Y-10200484D02*
X9065301Y-10095722D01*
X9065301Y-10095722D02*
X9055777Y-10076674D01*
X9055777Y-10076674D02*
X9036730Y-10067150D01*
X9036730Y-10067150D02*
X9008158Y-10067150D01*
X9008158Y-10067150D02*
X8989111Y-10076674D01*
X8989111Y-10076674D02*
X8979587Y-10086198D01*
X9189111Y-10200484D02*
X9170063Y-10190960D01*
X9170063Y-10190960D02*
X9160539Y-10181436D01*
X9160539Y-10181436D02*
X9151015Y-10162389D01*
X9151015Y-10162389D02*
X9151015Y-10105246D01*
X9151015Y-10105246D02*
X9160539Y-10086198D01*
X9160539Y-10086198D02*
X9170063Y-10076674D01*
X9170063Y-10076674D02*
X9189111Y-10067150D01*
X9189111Y-10067150D02*
X9217682Y-10067150D01*
X9217682Y-10067150D02*
X9236730Y-10076674D01*
X9236730Y-10076674D02*
X9246253Y-10086198D01*
X9246253Y-10086198D02*
X9255777Y-10105246D01*
X9255777Y-10105246D02*
X9255777Y-10162389D01*
X9255777Y-10162389D02*
X9246253Y-10181436D01*
X9246253Y-10181436D02*
X9236730Y-10190960D01*
X9236730Y-10190960D02*
X9217682Y-10200484D01*
X9217682Y-10200484D02*
X9189111Y-10200484D01*
X9370063Y-10200484D02*
X9351015Y-10190960D01*
X9351015Y-10190960D02*
X9341492Y-10171912D01*
X9341492Y-10171912D02*
X9341492Y-10000484D01*
X9522444Y-10190960D02*
X9503396Y-10200484D01*
X9503396Y-10200484D02*
X9465301Y-10200484D01*
X9465301Y-10200484D02*
X9446253Y-10190960D01*
X9446253Y-10190960D02*
X9436730Y-10171912D01*
X9436730Y-10171912D02*
X9436730Y-10095722D01*
X9436730Y-10095722D02*
X9446253Y-10076674D01*
X9446253Y-10076674D02*
X9465301Y-10067150D01*
X9465301Y-10067150D02*
X9503396Y-10067150D01*
X9503396Y-10067150D02*
X9522444Y-10076674D01*
X9522444Y-10076674D02*
X9531968Y-10095722D01*
X9531968Y-10095722D02*
X9531968Y-10114770D01*
X9531968Y-10114770D02*
X9436730Y-10133817D01*
X9608158Y-10190960D02*
X9627206Y-10200484D01*
X9627206Y-10200484D02*
X9665301Y-10200484D01*
X9665301Y-10200484D02*
X9684349Y-10190960D01*
X9684349Y-10190960D02*
X9693873Y-10171912D01*
X9693873Y-10171912D02*
X9693873Y-10162389D01*
X9693873Y-10162389D02*
X9684349Y-10143341D01*
X9684349Y-10143341D02*
X9665301Y-10133817D01*
X9665301Y-10133817D02*
X9636730Y-10133817D01*
X9636730Y-10133817D02*
X9617682Y-10124293D01*
X9617682Y-10124293D02*
X9608158Y-10105246D01*
X9608158Y-10105246D02*
X9608158Y-10095722D01*
X9608158Y-10095722D02*
X9617682Y-10076674D01*
X9617682Y-10076674D02*
X9636730Y-10067150D01*
X9636730Y-10067150D02*
X9665301Y-10067150D01*
X9665301Y-10067150D02*
X9684349Y-10076674D01*
X9760539Y-10276674D02*
X9770063Y-10267150D01*
X9770063Y-10267150D02*
X9789111Y-10238579D01*
X9789111Y-10238579D02*
X9798634Y-10219531D01*
X9798634Y-10219531D02*
X9808158Y-10190960D01*
X9808158Y-10190960D02*
X9817682Y-10143341D01*
X9817682Y-10143341D02*
X9817682Y-10105246D01*
X9817682Y-10105246D02*
X9808158Y-10057627D01*
X9808158Y-10057627D02*
X9798634Y-10029055D01*
X9798634Y-10029055D02*
X9789111Y-10010008D01*
X9789111Y-10010008D02*
X9770063Y-9981436D01*
X9770063Y-9981436D02*
X9760539Y-9971912D01*
D12*
X4744200Y-10322200D02*
X4744200Y-10423800D01*
X4693400Y-10373000D02*
X4795000Y-10373000D01*
D11*
X5160539Y-10464484D02*
X5046253Y-10464484D01*
X5103396Y-10464484D02*
X5103396Y-10264484D01*
X5103396Y-10264484D02*
X5084348Y-10293055D01*
X5084348Y-10293055D02*
X5065301Y-10312103D01*
X5065301Y-10312103D02*
X5046253Y-10321627D01*
X5246253Y-10445436D02*
X5255777Y-10454960D01*
X5255777Y-10454960D02*
X5246253Y-10464484D01*
X5246253Y-10464484D02*
X5236729Y-10454960D01*
X5236729Y-10454960D02*
X5246253Y-10445436D01*
X5246253Y-10445436D02*
X5246253Y-10464484D01*
X5379586Y-10264484D02*
X5398634Y-10264484D01*
X5398634Y-10264484D02*
X5417682Y-10274008D01*
X5417682Y-10274008D02*
X5427205Y-10283531D01*
X5427205Y-10283531D02*
X5436729Y-10302579D01*
X5436729Y-10302579D02*
X5446253Y-10340674D01*
X5446253Y-10340674D02*
X5446253Y-10388293D01*
X5446253Y-10388293D02*
X5436729Y-10426389D01*
X5436729Y-10426389D02*
X5427205Y-10445436D01*
X5427205Y-10445436D02*
X5417682Y-10454960D01*
X5417682Y-10454960D02*
X5398634Y-10464484D01*
X5398634Y-10464484D02*
X5379586Y-10464484D01*
X5379586Y-10464484D02*
X5360539Y-10454960D01*
X5360539Y-10454960D02*
X5351015Y-10445436D01*
X5351015Y-10445436D02*
X5341491Y-10426389D01*
X5341491Y-10426389D02*
X5331967Y-10388293D01*
X5331967Y-10388293D02*
X5331967Y-10340674D01*
X5331967Y-10340674D02*
X5341491Y-10302579D01*
X5341491Y-10302579D02*
X5351015Y-10283531D01*
X5351015Y-10283531D02*
X5360539Y-10274008D01*
X5360539Y-10274008D02*
X5379586Y-10264484D01*
X5636729Y-10464484D02*
X5522444Y-10464484D01*
X5579586Y-10464484D02*
X5579586Y-10264484D01*
X5579586Y-10264484D02*
X5560539Y-10293055D01*
X5560539Y-10293055D02*
X5541491Y-10312103D01*
X5541491Y-10312103D02*
X5522444Y-10321627D01*
X5808158Y-10264484D02*
X5770062Y-10264484D01*
X5770062Y-10264484D02*
X5751015Y-10274008D01*
X5751015Y-10274008D02*
X5741491Y-10283531D01*
X5741491Y-10283531D02*
X5722443Y-10312103D01*
X5722443Y-10312103D02*
X5712920Y-10350198D01*
X5712920Y-10350198D02*
X5712920Y-10426389D01*
X5712920Y-10426389D02*
X5722443Y-10445436D01*
X5722443Y-10445436D02*
X5731967Y-10454960D01*
X5731967Y-10454960D02*
X5751015Y-10464484D01*
X5751015Y-10464484D02*
X5789110Y-10464484D01*
X5789110Y-10464484D02*
X5808158Y-10454960D01*
X5808158Y-10454960D02*
X5817682Y-10445436D01*
X5817682Y-10445436D02*
X5827205Y-10426389D01*
X5827205Y-10426389D02*
X5827205Y-10378770D01*
X5827205Y-10378770D02*
X5817682Y-10359722D01*
X5817682Y-10359722D02*
X5808158Y-10350198D01*
X5808158Y-10350198D02*
X5789110Y-10340674D01*
X5789110Y-10340674D02*
X5751015Y-10340674D01*
X5751015Y-10340674D02*
X5731967Y-10350198D01*
X5731967Y-10350198D02*
X5722443Y-10359722D01*
X5722443Y-10359722D02*
X5712920Y-10378770D01*
X5912920Y-10464484D02*
X5912920Y-10331150D01*
X5912920Y-10350198D02*
X5922443Y-10340674D01*
X5922443Y-10340674D02*
X5941491Y-10331150D01*
X5941491Y-10331150D02*
X5970063Y-10331150D01*
X5970063Y-10331150D02*
X5989110Y-10340674D01*
X5989110Y-10340674D02*
X5998634Y-10359722D01*
X5998634Y-10359722D02*
X5998634Y-10464484D01*
X5998634Y-10359722D02*
X6008158Y-10340674D01*
X6008158Y-10340674D02*
X6027205Y-10331150D01*
X6027205Y-10331150D02*
X6055777Y-10331150D01*
X6055777Y-10331150D02*
X6074824Y-10340674D01*
X6074824Y-10340674D02*
X6084348Y-10359722D01*
X6084348Y-10359722D02*
X6084348Y-10464484D01*
X6179586Y-10464484D02*
X6179586Y-10331150D01*
X6179586Y-10350198D02*
X6189110Y-10340674D01*
X6189110Y-10340674D02*
X6208158Y-10331150D01*
X6208158Y-10331150D02*
X6236729Y-10331150D01*
X6236729Y-10331150D02*
X6255777Y-10340674D01*
X6255777Y-10340674D02*
X6265301Y-10359722D01*
X6265301Y-10359722D02*
X6265301Y-10464484D01*
X6265301Y-10359722D02*
X6274824Y-10340674D01*
X6274824Y-10340674D02*
X6293872Y-10331150D01*
X6293872Y-10331150D02*
X6322443Y-10331150D01*
X6322443Y-10331150D02*
X6341491Y-10340674D01*
X6341491Y-10340674D02*
X6351015Y-10359722D01*
X6351015Y-10359722D02*
X6351015Y-10464484D01*
X6741491Y-10254960D02*
X6570063Y-10512103D01*
X6998634Y-10264484D02*
X7017682Y-10264484D01*
X7017682Y-10264484D02*
X7036729Y-10274008D01*
X7036729Y-10274008D02*
X7046253Y-10283531D01*
X7046253Y-10283531D02*
X7055777Y-10302579D01*
X7055777Y-10302579D02*
X7065301Y-10340674D01*
X7065301Y-10340674D02*
X7065301Y-10388293D01*
X7065301Y-10388293D02*
X7055777Y-10426389D01*
X7055777Y-10426389D02*
X7046253Y-10445436D01*
X7046253Y-10445436D02*
X7036729Y-10454960D01*
X7036729Y-10454960D02*
X7017682Y-10464484D01*
X7017682Y-10464484D02*
X6998634Y-10464484D01*
X6998634Y-10464484D02*
X6979586Y-10454960D01*
X6979586Y-10454960D02*
X6970063Y-10445436D01*
X6970063Y-10445436D02*
X6960539Y-10426389D01*
X6960539Y-10426389D02*
X6951015Y-10388293D01*
X6951015Y-10388293D02*
X6951015Y-10340674D01*
X6951015Y-10340674D02*
X6960539Y-10302579D01*
X6960539Y-10302579D02*
X6970063Y-10283531D01*
X6970063Y-10283531D02*
X6979586Y-10274008D01*
X6979586Y-10274008D02*
X6998634Y-10264484D01*
X7151015Y-10445436D02*
X7160539Y-10454960D01*
X7160539Y-10454960D02*
X7151015Y-10464484D01*
X7151015Y-10464484D02*
X7141491Y-10454960D01*
X7141491Y-10454960D02*
X7151015Y-10445436D01*
X7151015Y-10445436D02*
X7151015Y-10464484D01*
X7284348Y-10264484D02*
X7303396Y-10264484D01*
X7303396Y-10264484D02*
X7322444Y-10274008D01*
X7322444Y-10274008D02*
X7331967Y-10283531D01*
X7331967Y-10283531D02*
X7341491Y-10302579D01*
X7341491Y-10302579D02*
X7351015Y-10340674D01*
X7351015Y-10340674D02*
X7351015Y-10388293D01*
X7351015Y-10388293D02*
X7341491Y-10426389D01*
X7341491Y-10426389D02*
X7331967Y-10445436D01*
X7331967Y-10445436D02*
X7322444Y-10454960D01*
X7322444Y-10454960D02*
X7303396Y-10464484D01*
X7303396Y-10464484D02*
X7284348Y-10464484D01*
X7284348Y-10464484D02*
X7265301Y-10454960D01*
X7265301Y-10454960D02*
X7255777Y-10445436D01*
X7255777Y-10445436D02*
X7246253Y-10426389D01*
X7246253Y-10426389D02*
X7236729Y-10388293D01*
X7236729Y-10388293D02*
X7236729Y-10340674D01*
X7236729Y-10340674D02*
X7246253Y-10302579D01*
X7246253Y-10302579D02*
X7255777Y-10283531D01*
X7255777Y-10283531D02*
X7265301Y-10274008D01*
X7265301Y-10274008D02*
X7284348Y-10264484D01*
X7522444Y-10331150D02*
X7522444Y-10464484D01*
X7474825Y-10254960D02*
X7427206Y-10397817D01*
X7427206Y-10397817D02*
X7551015Y-10397817D01*
X7665301Y-10264484D02*
X7684348Y-10264484D01*
X7684348Y-10264484D02*
X7703396Y-10274008D01*
X7703396Y-10274008D02*
X7712920Y-10283531D01*
X7712920Y-10283531D02*
X7722444Y-10302579D01*
X7722444Y-10302579D02*
X7731967Y-10340674D01*
X7731967Y-10340674D02*
X7731967Y-10388293D01*
X7731967Y-10388293D02*
X7722444Y-10426389D01*
X7722444Y-10426389D02*
X7712920Y-10445436D01*
X7712920Y-10445436D02*
X7703396Y-10454960D01*
X7703396Y-10454960D02*
X7684348Y-10464484D01*
X7684348Y-10464484D02*
X7665301Y-10464484D01*
X7665301Y-10464484D02*
X7646253Y-10454960D01*
X7646253Y-10454960D02*
X7636729Y-10445436D01*
X7636729Y-10445436D02*
X7627206Y-10426389D01*
X7627206Y-10426389D02*
X7617682Y-10388293D01*
X7617682Y-10388293D02*
X7617682Y-10340674D01*
X7617682Y-10340674D02*
X7627206Y-10302579D01*
X7627206Y-10302579D02*
X7636729Y-10283531D01*
X7636729Y-10283531D02*
X7646253Y-10274008D01*
X7646253Y-10274008D02*
X7665301Y-10264484D01*
X7855777Y-10264484D02*
X7874825Y-10264484D01*
X7874825Y-10264484D02*
X7893872Y-10274008D01*
X7893872Y-10274008D02*
X7903396Y-10283531D01*
X7903396Y-10283531D02*
X7912920Y-10302579D01*
X7912920Y-10302579D02*
X7922444Y-10340674D01*
X7922444Y-10340674D02*
X7922444Y-10388293D01*
X7922444Y-10388293D02*
X7912920Y-10426389D01*
X7912920Y-10426389D02*
X7903396Y-10445436D01*
X7903396Y-10445436D02*
X7893872Y-10454960D01*
X7893872Y-10454960D02*
X7874825Y-10464484D01*
X7874825Y-10464484D02*
X7855777Y-10464484D01*
X7855777Y-10464484D02*
X7836729Y-10454960D01*
X7836729Y-10454960D02*
X7827206Y-10445436D01*
X7827206Y-10445436D02*
X7817682Y-10426389D01*
X7817682Y-10426389D02*
X7808158Y-10388293D01*
X7808158Y-10388293D02*
X7808158Y-10340674D01*
X7808158Y-10340674D02*
X7817682Y-10302579D01*
X7817682Y-10302579D02*
X7827206Y-10283531D01*
X7827206Y-10283531D02*
X7836729Y-10274008D01*
X7836729Y-10274008D02*
X7855777Y-10264484D01*
X7998634Y-10264484D02*
X7998634Y-10302579D01*
X8074825Y-10264484D02*
X8074825Y-10302579D01*
X8370063Y-10540674D02*
X8360539Y-10531150D01*
X8360539Y-10531150D02*
X8341491Y-10502579D01*
X8341491Y-10502579D02*
X8331968Y-10483531D01*
X8331968Y-10483531D02*
X8322444Y-10454960D01*
X8322444Y-10454960D02*
X8312920Y-10407341D01*
X8312920Y-10407341D02*
X8312920Y-10369246D01*
X8312920Y-10369246D02*
X8322444Y-10321627D01*
X8322444Y-10321627D02*
X8331968Y-10293055D01*
X8331968Y-10293055D02*
X8341491Y-10274008D01*
X8341491Y-10274008D02*
X8360539Y-10245436D01*
X8360539Y-10245436D02*
X8370063Y-10235912D01*
X8531968Y-10331150D02*
X8531968Y-10464484D01*
X8484349Y-10254960D02*
X8436730Y-10397817D01*
X8436730Y-10397817D02*
X8560539Y-10397817D01*
X8789111Y-10464484D02*
X8789111Y-10264484D01*
X8874825Y-10464484D02*
X8874825Y-10359722D01*
X8874825Y-10359722D02*
X8865301Y-10340674D01*
X8865301Y-10340674D02*
X8846253Y-10331150D01*
X8846253Y-10331150D02*
X8817682Y-10331150D01*
X8817682Y-10331150D02*
X8798634Y-10340674D01*
X8798634Y-10340674D02*
X8789111Y-10350198D01*
X8998634Y-10464484D02*
X8979587Y-10454960D01*
X8979587Y-10454960D02*
X8970063Y-10445436D01*
X8970063Y-10445436D02*
X8960539Y-10426389D01*
X8960539Y-10426389D02*
X8960539Y-10369246D01*
X8960539Y-10369246D02*
X8970063Y-10350198D01*
X8970063Y-10350198D02*
X8979587Y-10340674D01*
X8979587Y-10340674D02*
X8998634Y-10331150D01*
X8998634Y-10331150D02*
X9027206Y-10331150D01*
X9027206Y-10331150D02*
X9046253Y-10340674D01*
X9046253Y-10340674D02*
X9055777Y-10350198D01*
X9055777Y-10350198D02*
X9065301Y-10369246D01*
X9065301Y-10369246D02*
X9065301Y-10426389D01*
X9065301Y-10426389D02*
X9055777Y-10445436D01*
X9055777Y-10445436D02*
X9046253Y-10454960D01*
X9046253Y-10454960D02*
X9027206Y-10464484D01*
X9027206Y-10464484D02*
X8998634Y-10464484D01*
X9179587Y-10464484D02*
X9160539Y-10454960D01*
X9160539Y-10454960D02*
X9151015Y-10435912D01*
X9151015Y-10435912D02*
X9151015Y-10264484D01*
X9331968Y-10454960D02*
X9312920Y-10464484D01*
X9312920Y-10464484D02*
X9274825Y-10464484D01*
X9274825Y-10464484D02*
X9255777Y-10454960D01*
X9255777Y-10454960D02*
X9246253Y-10435912D01*
X9246253Y-10435912D02*
X9246253Y-10359722D01*
X9246253Y-10359722D02*
X9255777Y-10340674D01*
X9255777Y-10340674D02*
X9274825Y-10331150D01*
X9274825Y-10331150D02*
X9312920Y-10331150D01*
X9312920Y-10331150D02*
X9331968Y-10340674D01*
X9331968Y-10340674D02*
X9341492Y-10359722D01*
X9341492Y-10359722D02*
X9341492Y-10378770D01*
X9341492Y-10378770D02*
X9246253Y-10397817D01*
X9417682Y-10454960D02*
X9436730Y-10464484D01*
X9436730Y-10464484D02*
X9474825Y-10464484D01*
X9474825Y-10464484D02*
X9493873Y-10454960D01*
X9493873Y-10454960D02*
X9503396Y-10435912D01*
X9503396Y-10435912D02*
X9503396Y-10426389D01*
X9503396Y-10426389D02*
X9493873Y-10407341D01*
X9493873Y-10407341D02*
X9474825Y-10397817D01*
X9474825Y-10397817D02*
X9446253Y-10397817D01*
X9446253Y-10397817D02*
X9427206Y-10388293D01*
X9427206Y-10388293D02*
X9417682Y-10369246D01*
X9417682Y-10369246D02*
X9417682Y-10359722D01*
X9417682Y-10359722D02*
X9427206Y-10340674D01*
X9427206Y-10340674D02*
X9446253Y-10331150D01*
X9446253Y-10331150D02*
X9474825Y-10331150D01*
X9474825Y-10331150D02*
X9493873Y-10340674D01*
X9570063Y-10540674D02*
X9579587Y-10531150D01*
X9579587Y-10531150D02*
X9598634Y-10502579D01*
X9598634Y-10502579D02*
X9608158Y-10483531D01*
X9608158Y-10483531D02*
X9617682Y-10454960D01*
X9617682Y-10454960D02*
X9627206Y-10407341D01*
X9627206Y-10407341D02*
X9627206Y-10369246D01*
X9627206Y-10369246D02*
X9617682Y-10321627D01*
X9617682Y-10321627D02*
X9608158Y-10293055D01*
X9608158Y-10293055D02*
X9598634Y-10274008D01*
X9598634Y-10274008D02*
X9579587Y-10245436D01*
X9579587Y-10245436D02*
X9570063Y-10235912D01*
X4765711Y-10707711D02*
X4765711Y-10566289D01*
X4624289Y-10566289D01*
X4624289Y-10707711D01*
X4765711Y-10707711D01*
X5046253Y-10547531D02*
X5055777Y-10538008D01*
X5055777Y-10538008D02*
X5074824Y-10528484D01*
X5074824Y-10528484D02*
X5122444Y-10528484D01*
X5122444Y-10528484D02*
X5141491Y-10538008D01*
X5141491Y-10538008D02*
X5151015Y-10547531D01*
X5151015Y-10547531D02*
X5160539Y-10566579D01*
X5160539Y-10566579D02*
X5160539Y-10585627D01*
X5160539Y-10585627D02*
X5151015Y-10614198D01*
X5151015Y-10614198D02*
X5036729Y-10728484D01*
X5036729Y-10728484D02*
X5160539Y-10728484D01*
X5246253Y-10709436D02*
X5255777Y-10718960D01*
X5255777Y-10718960D02*
X5246253Y-10728484D01*
X5246253Y-10728484D02*
X5236729Y-10718960D01*
X5236729Y-10718960D02*
X5246253Y-10709436D01*
X5246253Y-10709436D02*
X5246253Y-10728484D01*
X5331967Y-10547531D02*
X5341491Y-10538008D01*
X5341491Y-10538008D02*
X5360539Y-10528484D01*
X5360539Y-10528484D02*
X5408158Y-10528484D01*
X5408158Y-10528484D02*
X5427205Y-10538008D01*
X5427205Y-10538008D02*
X5436729Y-10547531D01*
X5436729Y-10547531D02*
X5446253Y-10566579D01*
X5446253Y-10566579D02*
X5446253Y-10585627D01*
X5446253Y-10585627D02*
X5436729Y-10614198D01*
X5436729Y-10614198D02*
X5322444Y-10728484D01*
X5322444Y-10728484D02*
X5446253Y-10728484D01*
X5570063Y-10528484D02*
X5589110Y-10528484D01*
X5589110Y-10528484D02*
X5608158Y-10538008D01*
X5608158Y-10538008D02*
X5617682Y-10547531D01*
X5617682Y-10547531D02*
X5627205Y-10566579D01*
X5627205Y-10566579D02*
X5636729Y-10604674D01*
X5636729Y-10604674D02*
X5636729Y-10652293D01*
X5636729Y-10652293D02*
X5627205Y-10690389D01*
X5627205Y-10690389D02*
X5617682Y-10709436D01*
X5617682Y-10709436D02*
X5608158Y-10718960D01*
X5608158Y-10718960D02*
X5589110Y-10728484D01*
X5589110Y-10728484D02*
X5570063Y-10728484D01*
X5570063Y-10728484D02*
X5551015Y-10718960D01*
X5551015Y-10718960D02*
X5541491Y-10709436D01*
X5541491Y-10709436D02*
X5531967Y-10690389D01*
X5531967Y-10690389D02*
X5522444Y-10652293D01*
X5522444Y-10652293D02*
X5522444Y-10604674D01*
X5522444Y-10604674D02*
X5531967Y-10566579D01*
X5531967Y-10566579D02*
X5541491Y-10547531D01*
X5541491Y-10547531D02*
X5551015Y-10538008D01*
X5551015Y-10538008D02*
X5570063Y-10528484D01*
X5760539Y-10528484D02*
X5779586Y-10528484D01*
X5779586Y-10528484D02*
X5798634Y-10538008D01*
X5798634Y-10538008D02*
X5808158Y-10547531D01*
X5808158Y-10547531D02*
X5817682Y-10566579D01*
X5817682Y-10566579D02*
X5827205Y-10604674D01*
X5827205Y-10604674D02*
X5827205Y-10652293D01*
X5827205Y-10652293D02*
X5817682Y-10690389D01*
X5817682Y-10690389D02*
X5808158Y-10709436D01*
X5808158Y-10709436D02*
X5798634Y-10718960D01*
X5798634Y-10718960D02*
X5779586Y-10728484D01*
X5779586Y-10728484D02*
X5760539Y-10728484D01*
X5760539Y-10728484D02*
X5741491Y-10718960D01*
X5741491Y-10718960D02*
X5731967Y-10709436D01*
X5731967Y-10709436D02*
X5722443Y-10690389D01*
X5722443Y-10690389D02*
X5712920Y-10652293D01*
X5712920Y-10652293D02*
X5712920Y-10604674D01*
X5712920Y-10604674D02*
X5722443Y-10566579D01*
X5722443Y-10566579D02*
X5731967Y-10547531D01*
X5731967Y-10547531D02*
X5741491Y-10538008D01*
X5741491Y-10538008D02*
X5760539Y-10528484D01*
X5912920Y-10728484D02*
X5912920Y-10595150D01*
X5912920Y-10614198D02*
X5922443Y-10604674D01*
X5922443Y-10604674D02*
X5941491Y-10595150D01*
X5941491Y-10595150D02*
X5970063Y-10595150D01*
X5970063Y-10595150D02*
X5989110Y-10604674D01*
X5989110Y-10604674D02*
X5998634Y-10623722D01*
X5998634Y-10623722D02*
X5998634Y-10728484D01*
X5998634Y-10623722D02*
X6008158Y-10604674D01*
X6008158Y-10604674D02*
X6027205Y-10595150D01*
X6027205Y-10595150D02*
X6055777Y-10595150D01*
X6055777Y-10595150D02*
X6074824Y-10604674D01*
X6074824Y-10604674D02*
X6084348Y-10623722D01*
X6084348Y-10623722D02*
X6084348Y-10728484D01*
X6179586Y-10728484D02*
X6179586Y-10595150D01*
X6179586Y-10614198D02*
X6189110Y-10604674D01*
X6189110Y-10604674D02*
X6208158Y-10595150D01*
X6208158Y-10595150D02*
X6236729Y-10595150D01*
X6236729Y-10595150D02*
X6255777Y-10604674D01*
X6255777Y-10604674D02*
X6265301Y-10623722D01*
X6265301Y-10623722D02*
X6265301Y-10728484D01*
X6265301Y-10623722D02*
X6274824Y-10604674D01*
X6274824Y-10604674D02*
X6293872Y-10595150D01*
X6293872Y-10595150D02*
X6322443Y-10595150D01*
X6322443Y-10595150D02*
X6341491Y-10604674D01*
X6341491Y-10604674D02*
X6351015Y-10623722D01*
X6351015Y-10623722D02*
X6351015Y-10728484D01*
X6741491Y-10518960D02*
X6570063Y-10776103D01*
X6998634Y-10528484D02*
X7017682Y-10528484D01*
X7017682Y-10528484D02*
X7036729Y-10538008D01*
X7036729Y-10538008D02*
X7046253Y-10547531D01*
X7046253Y-10547531D02*
X7055777Y-10566579D01*
X7055777Y-10566579D02*
X7065301Y-10604674D01*
X7065301Y-10604674D02*
X7065301Y-10652293D01*
X7065301Y-10652293D02*
X7055777Y-10690389D01*
X7055777Y-10690389D02*
X7046253Y-10709436D01*
X7046253Y-10709436D02*
X7036729Y-10718960D01*
X7036729Y-10718960D02*
X7017682Y-10728484D01*
X7017682Y-10728484D02*
X6998634Y-10728484D01*
X6998634Y-10728484D02*
X6979586Y-10718960D01*
X6979586Y-10718960D02*
X6970063Y-10709436D01*
X6970063Y-10709436D02*
X6960539Y-10690389D01*
X6960539Y-10690389D02*
X6951015Y-10652293D01*
X6951015Y-10652293D02*
X6951015Y-10604674D01*
X6951015Y-10604674D02*
X6960539Y-10566579D01*
X6960539Y-10566579D02*
X6970063Y-10547531D01*
X6970063Y-10547531D02*
X6979586Y-10538008D01*
X6979586Y-10538008D02*
X6998634Y-10528484D01*
X7151015Y-10709436D02*
X7160539Y-10718960D01*
X7160539Y-10718960D02*
X7151015Y-10728484D01*
X7151015Y-10728484D02*
X7141491Y-10718960D01*
X7141491Y-10718960D02*
X7151015Y-10709436D01*
X7151015Y-10709436D02*
X7151015Y-10728484D01*
X7284348Y-10528484D02*
X7303396Y-10528484D01*
X7303396Y-10528484D02*
X7322444Y-10538008D01*
X7322444Y-10538008D02*
X7331967Y-10547531D01*
X7331967Y-10547531D02*
X7341491Y-10566579D01*
X7341491Y-10566579D02*
X7351015Y-10604674D01*
X7351015Y-10604674D02*
X7351015Y-10652293D01*
X7351015Y-10652293D02*
X7341491Y-10690389D01*
X7341491Y-10690389D02*
X7331967Y-10709436D01*
X7331967Y-10709436D02*
X7322444Y-10718960D01*
X7322444Y-10718960D02*
X7303396Y-10728484D01*
X7303396Y-10728484D02*
X7284348Y-10728484D01*
X7284348Y-10728484D02*
X7265301Y-10718960D01*
X7265301Y-10718960D02*
X7255777Y-10709436D01*
X7255777Y-10709436D02*
X7246253Y-10690389D01*
X7246253Y-10690389D02*
X7236729Y-10652293D01*
X7236729Y-10652293D02*
X7236729Y-10604674D01*
X7236729Y-10604674D02*
X7246253Y-10566579D01*
X7246253Y-10566579D02*
X7255777Y-10547531D01*
X7255777Y-10547531D02*
X7265301Y-10538008D01*
X7265301Y-10538008D02*
X7284348Y-10528484D01*
X7465301Y-10614198D02*
X7446253Y-10604674D01*
X7446253Y-10604674D02*
X7436729Y-10595150D01*
X7436729Y-10595150D02*
X7427206Y-10576103D01*
X7427206Y-10576103D02*
X7427206Y-10566579D01*
X7427206Y-10566579D02*
X7436729Y-10547531D01*
X7436729Y-10547531D02*
X7446253Y-10538008D01*
X7446253Y-10538008D02*
X7465301Y-10528484D01*
X7465301Y-10528484D02*
X7503396Y-10528484D01*
X7503396Y-10528484D02*
X7522444Y-10538008D01*
X7522444Y-10538008D02*
X7531967Y-10547531D01*
X7531967Y-10547531D02*
X7541491Y-10566579D01*
X7541491Y-10566579D02*
X7541491Y-10576103D01*
X7541491Y-10576103D02*
X7531967Y-10595150D01*
X7531967Y-10595150D02*
X7522444Y-10604674D01*
X7522444Y-10604674D02*
X7503396Y-10614198D01*
X7503396Y-10614198D02*
X7465301Y-10614198D01*
X7465301Y-10614198D02*
X7446253Y-10623722D01*
X7446253Y-10623722D02*
X7436729Y-10633246D01*
X7436729Y-10633246D02*
X7427206Y-10652293D01*
X7427206Y-10652293D02*
X7427206Y-10690389D01*
X7427206Y-10690389D02*
X7436729Y-10709436D01*
X7436729Y-10709436D02*
X7446253Y-10718960D01*
X7446253Y-10718960D02*
X7465301Y-10728484D01*
X7465301Y-10728484D02*
X7503396Y-10728484D01*
X7503396Y-10728484D02*
X7522444Y-10718960D01*
X7522444Y-10718960D02*
X7531967Y-10709436D01*
X7531967Y-10709436D02*
X7541491Y-10690389D01*
X7541491Y-10690389D02*
X7541491Y-10652293D01*
X7541491Y-10652293D02*
X7531967Y-10633246D01*
X7531967Y-10633246D02*
X7522444Y-10623722D01*
X7522444Y-10623722D02*
X7503396Y-10614198D01*
X7712920Y-10528484D02*
X7674825Y-10528484D01*
X7674825Y-10528484D02*
X7655777Y-10538008D01*
X7655777Y-10538008D02*
X7646253Y-10547531D01*
X7646253Y-10547531D02*
X7627206Y-10576103D01*
X7627206Y-10576103D02*
X7617682Y-10614198D01*
X7617682Y-10614198D02*
X7617682Y-10690389D01*
X7617682Y-10690389D02*
X7627206Y-10709436D01*
X7627206Y-10709436D02*
X7636729Y-10718960D01*
X7636729Y-10718960D02*
X7655777Y-10728484D01*
X7655777Y-10728484D02*
X7693872Y-10728484D01*
X7693872Y-10728484D02*
X7712920Y-10718960D01*
X7712920Y-10718960D02*
X7722444Y-10709436D01*
X7722444Y-10709436D02*
X7731967Y-10690389D01*
X7731967Y-10690389D02*
X7731967Y-10642770D01*
X7731967Y-10642770D02*
X7722444Y-10623722D01*
X7722444Y-10623722D02*
X7712920Y-10614198D01*
X7712920Y-10614198D02*
X7693872Y-10604674D01*
X7693872Y-10604674D02*
X7655777Y-10604674D01*
X7655777Y-10604674D02*
X7636729Y-10614198D01*
X7636729Y-10614198D02*
X7627206Y-10623722D01*
X7627206Y-10623722D02*
X7617682Y-10642770D01*
X7903396Y-10528484D02*
X7865301Y-10528484D01*
X7865301Y-10528484D02*
X7846253Y-10538008D01*
X7846253Y-10538008D02*
X7836729Y-10547531D01*
X7836729Y-10547531D02*
X7817682Y-10576103D01*
X7817682Y-10576103D02*
X7808158Y-10614198D01*
X7808158Y-10614198D02*
X7808158Y-10690389D01*
X7808158Y-10690389D02*
X7817682Y-10709436D01*
X7817682Y-10709436D02*
X7827206Y-10718960D01*
X7827206Y-10718960D02*
X7846253Y-10728484D01*
X7846253Y-10728484D02*
X7884348Y-10728484D01*
X7884348Y-10728484D02*
X7903396Y-10718960D01*
X7903396Y-10718960D02*
X7912920Y-10709436D01*
X7912920Y-10709436D02*
X7922444Y-10690389D01*
X7922444Y-10690389D02*
X7922444Y-10642770D01*
X7922444Y-10642770D02*
X7912920Y-10623722D01*
X7912920Y-10623722D02*
X7903396Y-10614198D01*
X7903396Y-10614198D02*
X7884348Y-10604674D01*
X7884348Y-10604674D02*
X7846253Y-10604674D01*
X7846253Y-10604674D02*
X7827206Y-10614198D01*
X7827206Y-10614198D02*
X7817682Y-10623722D01*
X7817682Y-10623722D02*
X7808158Y-10642770D01*
X7998634Y-10528484D02*
X7998634Y-10566579D01*
X8074825Y-10528484D02*
X8074825Y-10566579D01*
X8370063Y-10804674D02*
X8360539Y-10795150D01*
X8360539Y-10795150D02*
X8341491Y-10766579D01*
X8341491Y-10766579D02*
X8331968Y-10747531D01*
X8331968Y-10747531D02*
X8322444Y-10718960D01*
X8322444Y-10718960D02*
X8312920Y-10671341D01*
X8312920Y-10671341D02*
X8312920Y-10633246D01*
X8312920Y-10633246D02*
X8322444Y-10585627D01*
X8322444Y-10585627D02*
X8331968Y-10557055D01*
X8331968Y-10557055D02*
X8341491Y-10538008D01*
X8341491Y-10538008D02*
X8360539Y-10509436D01*
X8360539Y-10509436D02*
X8370063Y-10499912D01*
X8541491Y-10528484D02*
X8446253Y-10528484D01*
X8446253Y-10528484D02*
X8436730Y-10623722D01*
X8436730Y-10623722D02*
X8446253Y-10614198D01*
X8446253Y-10614198D02*
X8465301Y-10604674D01*
X8465301Y-10604674D02*
X8512920Y-10604674D01*
X8512920Y-10604674D02*
X8531968Y-10614198D01*
X8531968Y-10614198D02*
X8541491Y-10623722D01*
X8541491Y-10623722D02*
X8551015Y-10642770D01*
X8551015Y-10642770D02*
X8551015Y-10690389D01*
X8551015Y-10690389D02*
X8541491Y-10709436D01*
X8541491Y-10709436D02*
X8531968Y-10718960D01*
X8531968Y-10718960D02*
X8512920Y-10728484D01*
X8512920Y-10728484D02*
X8465301Y-10728484D01*
X8465301Y-10728484D02*
X8446253Y-10718960D01*
X8446253Y-10718960D02*
X8436730Y-10709436D01*
X8789111Y-10728484D02*
X8789111Y-10528484D01*
X8874825Y-10728484D02*
X8874825Y-10623722D01*
X8874825Y-10623722D02*
X8865301Y-10604674D01*
X8865301Y-10604674D02*
X8846253Y-10595150D01*
X8846253Y-10595150D02*
X8817682Y-10595150D01*
X8817682Y-10595150D02*
X8798634Y-10604674D01*
X8798634Y-10604674D02*
X8789111Y-10614198D01*
X8998634Y-10728484D02*
X8979587Y-10718960D01*
X8979587Y-10718960D02*
X8970063Y-10709436D01*
X8970063Y-10709436D02*
X8960539Y-10690389D01*
X8960539Y-10690389D02*
X8960539Y-10633246D01*
X8960539Y-10633246D02*
X8970063Y-10614198D01*
X8970063Y-10614198D02*
X8979587Y-10604674D01*
X8979587Y-10604674D02*
X8998634Y-10595150D01*
X8998634Y-10595150D02*
X9027206Y-10595150D01*
X9027206Y-10595150D02*
X9046253Y-10604674D01*
X9046253Y-10604674D02*
X9055777Y-10614198D01*
X9055777Y-10614198D02*
X9065301Y-10633246D01*
X9065301Y-10633246D02*
X9065301Y-10690389D01*
X9065301Y-10690389D02*
X9055777Y-10709436D01*
X9055777Y-10709436D02*
X9046253Y-10718960D01*
X9046253Y-10718960D02*
X9027206Y-10728484D01*
X9027206Y-10728484D02*
X8998634Y-10728484D01*
X9179587Y-10728484D02*
X9160539Y-10718960D01*
X9160539Y-10718960D02*
X9151015Y-10699912D01*
X9151015Y-10699912D02*
X9151015Y-10528484D01*
X9331968Y-10718960D02*
X9312920Y-10728484D01*
X9312920Y-10728484D02*
X9274825Y-10728484D01*
X9274825Y-10728484D02*
X9255777Y-10718960D01*
X9255777Y-10718960D02*
X9246253Y-10699912D01*
X9246253Y-10699912D02*
X9246253Y-10623722D01*
X9246253Y-10623722D02*
X9255777Y-10604674D01*
X9255777Y-10604674D02*
X9274825Y-10595150D01*
X9274825Y-10595150D02*
X9312920Y-10595150D01*
X9312920Y-10595150D02*
X9331968Y-10604674D01*
X9331968Y-10604674D02*
X9341492Y-10623722D01*
X9341492Y-10623722D02*
X9341492Y-10642770D01*
X9341492Y-10642770D02*
X9246253Y-10661817D01*
X9417682Y-10718960D02*
X9436730Y-10728484D01*
X9436730Y-10728484D02*
X9474825Y-10728484D01*
X9474825Y-10728484D02*
X9493873Y-10718960D01*
X9493873Y-10718960D02*
X9503396Y-10699912D01*
X9503396Y-10699912D02*
X9503396Y-10690389D01*
X9503396Y-10690389D02*
X9493873Y-10671341D01*
X9493873Y-10671341D02*
X9474825Y-10661817D01*
X9474825Y-10661817D02*
X9446253Y-10661817D01*
X9446253Y-10661817D02*
X9427206Y-10652293D01*
X9427206Y-10652293D02*
X9417682Y-10633246D01*
X9417682Y-10633246D02*
X9417682Y-10623722D01*
X9417682Y-10623722D02*
X9427206Y-10604674D01*
X9427206Y-10604674D02*
X9446253Y-10595150D01*
X9446253Y-10595150D02*
X9474825Y-10595150D01*
X9474825Y-10595150D02*
X9493873Y-10604674D01*
X9570063Y-10804674D02*
X9579587Y-10795150D01*
X9579587Y-10795150D02*
X9598634Y-10766579D01*
X9598634Y-10766579D02*
X9608158Y-10747531D01*
X9608158Y-10747531D02*
X9617682Y-10718960D01*
X9617682Y-10718960D02*
X9627206Y-10671341D01*
X9627206Y-10671341D02*
X9627206Y-10633246D01*
X9627206Y-10633246D02*
X9617682Y-10585627D01*
X9617682Y-10585627D02*
X9608158Y-10557055D01*
X9608158Y-10557055D02*
X9598634Y-10538008D01*
X9598634Y-10538008D02*
X9579587Y-10509436D01*
X9579587Y-10509436D02*
X9570063Y-10499912D01*
M02*
