M48
; DRILL file {KiCad 8.0.8} date 2025-06-09T15:06:13+0530
; FORMAT={-:-/ absolute / metric / decimal}
; #@! TF.CreationDate,2025-06-09T15:06:13+05:30
; #@! TF.GenerationSoftware,Kicad,Pcbnew,8.0.8
; #@! TF.FileFunction,Plated,1,2,PTH
FMAT,2
METRIC
; #@! TA.AperFunction,Plated,PTH,ViaDrill
T1C0.400
; #@! TA.AperFunction,Plated,PTH,ComponentDrill
T2C1.000
; #@! TA.AperFunction,Plated,PTH,ComponentDrill
T3C1.016
; #@! TA.AperFunction,Plated,PTH,ComponentDrill
T4C2.200
%
G90
G05
T1
X60.45Y-75.4
X74.2Y-52.4
X74.6Y-69.6
X76.5Y-43.0
X76.5Y-60.0
X76.5Y-77.0
X94.5Y-43.0
X94.5Y-60.0
X94.5Y-77.0
X112.5Y-43.0
X112.5Y-60.0
X112.5Y-77.0
T2
X51.38Y-43.38
X51.38Y-45.92
X51.38Y-48.46
X51.38Y-51.0
X51.38Y-53.54
X51.38Y-56.08
X51.38Y-58.62
X51.5Y-81.5
X51.5Y-84.0
X51.5Y-86.5
X66.0Y-81.5
X66.0Y-86.5
X66.62Y-43.38
X66.62Y-45.92
X66.62Y-48.46
X66.62Y-51.0
X66.62Y-53.54
X66.62Y-56.08
X66.62Y-58.62
T3
X57.73Y-42.428
X57.73Y-44.968
X60.27Y-42.428
X60.27Y-44.968
T4
X59.0Y-69.6
X89.0Y-57.6
X89.0Y-74.4
X107.0Y-57.4
X107.0Y-74.4
M30
